<svg width="640" height="276" viewBox="0 0 640 276" fill="none" xmlns="http://www.w3.org/2000/svg">
<g filter="url(#filter0_d_1409_17126)">
<rect x="135" y="123" width="293" height="88" rx="12.893" fill="#FAF7FF"/>
</g>
<path d="M175.56 147.54H178.76V149.7H175.56V147.54ZM175.56 151.56H178.76V153.72H175.56V151.56ZM166.96 146.26C169.82 146.26 172 148.14 172 150.76C172 153.36 169.82 155.24 166.96 155.24C164.1 155.24 161.92 153.36 161.92 150.76C161.92 148.14 164.1 146.26 166.96 146.26ZM166.96 148.48C165.56 148.48 164.52 149.34 164.52 150.76C164.52 152.2 165.56 153.02 166.96 153.02C168.36 153.02 169.4 152.2 169.4 150.76C169.4 149.34 168.36 148.48 166.96 148.48ZM173.72 145.26H176.38V156.06H173.72V145.26ZM170.34 156.46C174.16 156.46 176.6 157.84 176.6 160.12C176.6 162.42 174.16 163.78 170.34 163.78C166.5 163.78 164.06 162.42 164.06 160.12C164.06 157.84 166.5 156.46 170.34 156.46ZM170.34 158.56C167.98 158.56 166.7 159.06 166.7 160.12C166.7 161.2 167.98 161.7 170.34 161.7C172.7 161.7 173.96 161.2 173.96 160.12C173.96 159.06 172.7 158.56 170.34 158.56ZM180.218 159.48H196.978V161.64H180.218V159.48ZM187.258 155.38H189.918V160.08H187.258V155.38ZM187.178 147.68H189.418V148.34C189.418 152.24 186.618 155.34 181.898 156.2L180.858 154.1C184.978 153.46 187.178 150.9 187.178 148.34V147.68ZM187.718 147.68H189.958V148.34C189.958 150.9 192.158 153.38 196.378 154L195.358 156.1C190.558 155.26 187.718 152.24 187.718 148.34V147.68ZM181.598 146.66H195.538V148.78H181.598V146.66ZM205.617 145.36H207.857V145.7C207.857 148.8 205.077 151.24 200.297 151.76L199.417 149.76C203.597 149.34 205.617 147.5 205.617 145.7V145.36ZM206.077 145.36H208.337V145.7C208.337 147.5 210.357 149.34 214.517 149.76L213.637 151.76C208.857 151.24 206.077 148.8 206.077 145.7V145.36ZM205.617 154.14H208.277V156.72H205.617V154.14ZM198.597 152.52H215.337V154.6H198.597V152.52ZM200.517 155.8H213.317V160.6H203.157V162.2H200.537V158.76H210.697V157.78H200.517V155.8ZM200.537 161.66H213.797V163.66H200.537V161.66ZM221.155 146.68H223.315V149.38C223.315 153.96 221.715 158.26 218.215 159.98L216.615 157.84C219.735 156.38 221.155 152.82 221.155 149.38V146.68ZM221.695 146.68H223.815V149.38C223.815 152.7 225.135 156.08 228.095 157.52L226.495 159.64C223.155 157.94 221.695 153.82 221.695 149.38V146.68ZM228.835 145.26H231.515V163.78H228.835V145.26ZM230.915 152.38H234.195V154.6H230.915V152.38ZM246.785 147.32H249.085V147.86C249.085 151.12 246.425 153.78 241.725 154.42L240.745 152.34C244.825 151.84 246.785 149.76 246.785 147.86V147.32ZM247.545 147.32H249.845V147.86C249.845 149.76 251.805 151.84 255.885 152.34L254.925 154.42C250.205 153.78 247.545 151.12 247.545 147.86V147.32ZM246.925 157H249.565V163.8H246.925V157ZM239.945 155.48H256.685V157.6H239.945V155.48ZM241.425 146.2H255.165V148.3H241.425V146.2ZM270.223 145.26H272.903V158.52H270.223V145.26ZM272.143 150.42H275.363V152.6H272.143V150.42ZM265.063 146.64H267.903C267.903 151.68 264.823 155.14 259.303 156.74L258.183 154.62C262.723 153.38 265.063 150.9 265.063 147.96V146.64ZM258.983 146.64H266.503V148.78H258.983V146.64ZM260.923 161.34H273.523V163.46H260.923V161.34ZM260.923 157.18H263.603V162.28H260.923V157.18ZM282.273 162V147.2H287.153C290.193 147.2 292.513 148.1 292.513 150.86C292.513 152.22 291.773 153.6 290.513 154.06V154.14C292.093 154.52 293.273 155.66 293.273 157.64C293.273 160.62 290.793 162 287.553 162H282.273ZM285.233 153.22H286.953C288.833 153.22 289.633 152.48 289.633 151.28C289.633 149.98 288.773 149.48 286.993 149.48H285.233V153.22ZM285.233 159.72H287.293C289.293 159.72 290.393 159 290.393 157.48C290.393 156.04 289.333 155.42 287.293 155.42H285.233V159.72ZM295.886 162V147.2H304.966V149.66H298.846V153.08H304.026V155.58H298.846V159.52H305.186V162H295.886ZM312.611 162.28C310.611 162.28 308.651 161.52 307.211 160.14L308.911 158.1C309.951 159.08 311.371 159.72 312.671 159.72C314.211 159.72 315.011 159.06 315.011 158.04C315.011 156.94 314.111 156.58 312.791 156.02L310.811 155.18C309.331 154.58 307.811 153.36 307.811 151.22C307.811 148.8 309.951 146.94 312.931 146.94C314.651 146.94 316.371 147.62 317.571 148.84L316.091 150.7C315.131 149.92 314.151 149.48 312.931 149.48C311.631 149.48 310.811 150.06 310.811 151.02C310.811 152.08 311.871 152.48 313.131 152.98L315.071 153.78C316.851 154.52 318.031 155.68 318.031 157.8C318.031 160.22 316.011 162.28 312.611 162.28ZM323.045 162V149.66H318.865V147.2H330.185V149.66H326.005V162H323.045ZM337.136 162V147.2H341.996C345.256 147.2 347.776 148.34 347.776 151.86C347.776 155.24 345.256 156.74 342.076 156.74H340.096V162H337.136ZM340.096 154.4H341.876C343.916 154.4 344.896 153.54 344.896 151.86C344.896 150.12 343.816 149.56 341.776 149.56H340.096V154.4ZM350.236 162V150.82H353.176V162H350.236ZM351.696 149C350.676 149 349.996 148.36 349.996 147.38C349.996 146.42 350.676 145.8 351.696 145.8C352.716 145.8 353.416 146.42 353.416 147.38C353.416 148.36 352.716 149 351.696 149ZM361.05 162.28C357.97 162.28 355.61 160.12 355.61 156.42C355.61 152.7 358.27 150.54 361.31 150.54C362.71 150.54 363.75 151.06 364.57 151.78L363.19 153.66C362.63 153.18 362.09 152.94 361.49 152.94C359.75 152.94 358.61 154.3 358.61 156.42C358.61 158.52 359.77 159.9 361.37 159.9C362.19 159.9 362.95 159.5 363.57 159L364.73 160.94C363.67 161.86 362.29 162.28 361.05 162.28ZM366.857 162V146.06H369.737V155.62H369.837L373.637 150.82H376.877L373.037 155.42L377.217 162H374.037L371.317 157.36L369.737 159.18V162H366.857ZM381.879 163.4H401.879V143.4H381.879V163.4Z" fill="#111111"/>
<path d="M170.178 180.249H171.257V192.027H170.178V180.249ZM165.056 181.159C166.798 181.159 168.046 182.758 168.046 185.254C168.046 187.763 166.798 189.362 165.056 189.362C163.327 189.362 162.079 187.763 162.079 185.254C162.079 182.758 163.327 181.159 165.056 181.159ZM165.056 182.134C163.912 182.134 163.106 183.356 163.106 185.254C163.106 187.165 163.912 188.413 165.056 188.413C166.213 188.413 167.006 187.165 167.006 185.254C167.006 183.356 166.213 182.134 165.056 182.134ZM179.147 183.577H182.527V184.461H179.147V183.577ZM182.189 180.275H183.268V188.972H182.189V180.275ZM175.715 190.87H183.554V191.754H175.715V190.87ZM175.715 188.127H176.794V191.325H175.715V188.127ZM174.181 181.042H175.247V183.122H178.432V181.042H179.485V186.97H174.181V181.042ZM175.247 183.967V186.086H178.432V183.967H175.247ZM193.181 181.419H194.117V181.913C194.117 184.019 191.881 185.566 189.515 185.969L189.099 185.111C191.166 184.812 193.181 183.46 193.181 181.913V181.419ZM193.454 181.419H194.377V181.913C194.377 183.46 196.405 184.812 198.459 185.111L198.056 185.969C195.677 185.566 193.454 184.019 193.454 181.913V181.419ZM193.22 187.529H194.286V192.014H193.22V187.529ZM188.475 186.957H199.096V187.841H188.475V186.957ZM189.463 180.99H198.069V181.861H189.463V180.99ZM205.192 184.825H207.415V185.722H205.192V184.825ZM209.378 180.262H210.418V192.014H209.378V180.262ZM207.051 180.509H208.078V191.429H207.051V180.509ZM203.073 181.237C204.594 181.237 205.582 182.81 205.582 185.332C205.582 187.854 204.594 189.427 203.073 189.427C201.552 189.427 200.577 187.854 200.577 185.332C200.577 182.81 201.552 181.237 203.073 181.237ZM203.073 182.238C202.15 182.238 201.565 183.434 201.565 185.332C201.565 187.23 202.15 188.426 203.073 188.426C204.009 188.426 204.594 187.23 204.594 185.332C204.594 183.434 204.009 182.238 203.073 182.238ZM223.243 180.249H224.335V192.014H223.243V180.249ZM224.036 185.02H226.207V185.917H224.036V185.02ZM220.24 181.523H221.293C221.293 184.864 219.759 187.88 215.963 189.791L215.365 188.959C218.615 187.308 220.24 184.799 220.24 181.692V181.523ZM215.911 181.523H220.799V182.407H215.911V181.523ZM230.145 181.523H231.029V182.472C231.029 184.63 229.729 186.437 227.753 187.152L227.207 186.294C228.975 185.67 230.145 184.149 230.145 182.472V181.523ZM230.34 181.523H231.224V182.459C231.224 183.993 232.342 185.371 234.071 185.943L233.551 186.788C231.588 186.138 230.34 184.461 230.34 182.459V181.523ZM227.532 181.133H233.811V182.017H227.532V181.133ZM235.293 180.262H236.372V187.347H235.293V180.262ZM236.073 183.239H238.114V184.149H236.073V183.239ZM232.628 187.659C235.02 187.659 236.489 188.452 236.489 189.817C236.489 191.195 235.02 191.988 232.628 191.988C230.236 191.988 228.767 191.195 228.767 189.817C228.767 188.452 230.236 187.659 232.628 187.659ZM232.628 188.53C230.886 188.53 229.82 188.998 229.82 189.817C229.82 190.649 230.886 191.143 232.628 191.143C234.37 191.143 235.436 190.649 235.436 189.817C235.436 188.998 234.37 188.53 232.628 188.53ZM250.16 180.262H251.239V186.255H250.16V180.262ZM250.771 182.901H252.981V183.798H250.771V182.901ZM242.607 181.029H248.002V185.826H242.607V181.029ZM246.949 181.9H243.66V184.968H246.949V181.9ZM243.348 190.818H243.907C244.609 190.818 245.74 190.753 246.741 190.415L246.923 191.286C245.792 191.65 244.713 191.702 243.907 191.702H243.348V190.818ZM243.348 187.334H244.401V191.052H243.348V187.334ZM246.494 187.451H252.396V188.257H246.494V187.451ZM249.458 188.686C250.732 188.686 251.629 189.336 251.629 190.337C251.629 191.364 250.732 192.001 249.458 192.001C248.171 192.001 247.274 191.364 247.274 190.337C247.274 189.336 248.171 188.686 249.458 188.686ZM249.458 189.453C248.73 189.453 248.236 189.804 248.236 190.337C248.236 190.883 248.73 191.234 249.458 191.234C250.16 191.234 250.667 190.883 250.667 190.337C250.667 189.804 250.16 189.453 249.458 189.453ZM248.925 186.424H249.978V188.023H248.925V186.424ZM262.613 180.249H263.692V192.027H262.613V180.249ZM257.491 181.159C259.233 181.159 260.481 182.758 260.481 185.254C260.481 187.763 259.233 189.362 257.491 189.362C255.762 189.362 254.514 187.763 254.514 185.254C254.514 182.758 255.762 181.159 257.491 181.159ZM257.491 182.134C256.347 182.134 255.541 183.356 255.541 185.254C255.541 187.165 256.347 188.413 257.491 188.413C258.648 188.413 259.441 187.165 259.441 185.254C259.441 183.356 258.648 182.134 257.491 182.134ZM271.824 181.276H272.708V183.382C272.708 185.982 271.304 188.517 269.445 189.505L268.782 188.647C270.485 187.789 271.824 185.527 271.824 183.382V181.276ZM272.019 181.276H272.89V183.382C272.89 185.449 274.203 187.594 275.867 188.426L275.204 189.284C273.384 188.309 272.019 185.904 272.019 183.382V181.276ZM276.894 180.262H277.986V192.014H276.894V180.262ZM277.726 185.02H279.91V185.93H277.726V185.02ZM288.944 180.262H290.023V187.36H288.944V180.262ZM289.698 183.2H291.765V184.097H289.698V183.2ZM281.417 185.8H282.34C284.472 185.8 285.993 185.735 287.826 185.41L287.917 186.307C286.058 186.619 284.511 186.697 282.34 186.697H281.417V185.8ZM281.391 180.99H286.682V184.188H282.47V186.372H281.417V183.343H285.616V181.874H281.391V180.99ZM286.266 187.724C288.671 187.724 290.127 188.504 290.127 189.856C290.127 191.221 288.671 192.001 286.266 192.001C283.874 192.001 282.405 191.221 282.405 189.856C282.405 188.504 283.874 187.724 286.266 187.724ZM286.266 188.569C284.511 188.569 283.458 189.037 283.458 189.856C283.458 190.688 284.511 191.156 286.266 191.156C288.021 191.156 289.087 190.688 289.087 189.856C289.087 189.037 288.021 188.569 286.266 188.569ZM300.903 180.262H301.982V187.139H300.903V180.262ZM301.683 183.083H303.724V183.993H301.683V183.083ZM293.35 180.912H294.416V182.706H297.731V180.912H298.784V186.398H293.35V180.912ZM294.416 183.564V185.527H297.731V183.564H294.416ZM294.637 187.776H302.073V188.647H295.716V191.598H294.637V187.776ZM294.637 190.974H302.307V191.858H294.637V190.974ZM304.815 186.437H315.436V187.321H304.815V186.437ZM306.193 190.87H314.266V191.754H306.193V190.87ZM306.193 188.348H307.272V191.143H306.193V188.348ZM310.132 180.652C312.641 180.652 314.266 181.536 314.266 183.005C314.266 184.461 312.641 185.345 310.132 185.345C307.61 185.345 305.998 184.461 305.998 183.005C305.998 181.536 307.61 180.652 310.132 180.652ZM310.132 181.536C308.286 181.536 307.103 182.082 307.103 183.005C307.103 183.928 308.286 184.474 310.132 184.474C311.978 184.474 313.161 183.928 313.161 183.005C313.161 182.082 311.978 181.536 310.132 181.536ZM322.32 191V182.485H319.447V181.471H326.415V182.485H323.542V191H322.32ZM331.268 191.182C328.863 191.182 327.199 189.258 327.199 186.203C327.199 183.148 328.863 181.302 331.268 181.302C333.66 181.302 335.324 183.161 335.324 186.203C335.324 189.258 333.66 191.182 331.268 191.182ZM331.268 190.116C332.971 190.116 334.102 188.582 334.102 186.203C334.102 183.824 332.971 182.355 331.268 182.355C329.552 182.355 328.434 183.824 328.434 186.203C328.434 188.582 329.552 190.116 331.268 190.116ZM337.394 191V181.471H340.111C342.243 181.471 343.686 182.186 343.686 184.279C343.686 186.281 342.256 187.217 340.163 187.217H338.603V191H337.394ZM338.603 186.242H340.02C341.684 186.242 342.49 185.631 342.49 184.279C342.49 182.888 341.645 182.459 339.955 182.459H338.603V186.242ZM348.372 191V190.012H350.491V183.187H348.788V182.42C349.646 182.264 350.257 182.043 350.764 181.744H351.674V190.012H353.598V191H348.372ZM358.052 191.182C356.193 191.182 355.075 189.453 355.075 186.346C355.075 183.239 356.193 181.575 358.052 181.575C359.885 181.575 361.003 183.239 361.003 186.346C361.003 189.453 359.885 191.182 358.052 191.182ZM358.052 190.22C359.131 190.22 359.859 189.063 359.859 186.346C359.859 183.616 359.131 182.524 358.052 182.524C356.96 182.524 356.219 183.616 356.219 186.346C356.219 189.063 356.96 190.22 358.052 190.22Z" fill="#666666"/>
<g filter="url(#filter1_d_1409_17126)">
<rect x="25" y="15" width="270" height="88" rx="12.893" fill="#FFF8F7"/>
</g>
<path d="M58.84 47.68H61.5V51.9H58.84V47.68ZM60.18 38.2C64.14 38.2 67.1 40.22 67.1 43.3C67.1 46.42 64.14 48.42 60.18 48.42C56.22 48.42 53.26 46.42 53.26 43.3C53.26 40.22 56.22 38.2 60.18 38.2ZM60.18 40.3C57.64 40.3 55.88 41.42 55.88 43.3C55.88 45.22 57.64 46.32 60.18 46.32C62.72 46.32 64.48 45.22 64.48 43.3C64.48 41.42 62.72 40.3 60.18 40.3ZM51.82 51.48H68.58V53.64H51.82V51.48ZM72.2784 40.96H85.0584V43.06H72.2784V40.96ZM70.1984 44.26H86.9784V46.36H70.1984V44.26ZM72.2784 37.46H74.9184V42.08H72.2784V37.46ZM72.0984 47.48H84.9984V52.4H74.7784V54.04H72.1184V50.52H82.3384V49.48H72.0984V47.48ZM72.1184 53.56H85.5384V55.58H72.1184V53.56ZM94.5569 38.48C97.4769 38.48 99.6569 40.38 99.6569 43.04C99.6569 45.72 97.4769 47.62 94.5569 47.62C91.6569 47.62 89.4369 45.72 89.4369 43.04C89.4369 40.38 91.6569 38.48 94.5569 38.48ZM94.5569 40.76C93.1369 40.76 92.0569 41.6 92.0569 43.04C92.0569 44.5 93.1369 45.34 94.5569 45.34C95.9769 45.34 97.0569 44.5 97.0569 43.04C97.0569 41.6 95.9769 40.76 94.5569 40.76ZM101.397 37.24H104.057V55.82H101.397V37.24ZM88.9969 52.06L88.6769 49.92C91.9369 49.92 96.4769 49.88 100.377 49.3L100.577 51.22C96.5569 52.02 92.1969 52.06 88.9969 52.06ZM125.287 39.54H128.487V41.7H125.287V39.54ZM125.287 43.56H128.487V45.72H125.287V43.56ZM116.687 38.26C119.547 38.26 121.727 40.14 121.727 42.76C121.727 45.36 119.547 47.24 116.687 47.24C113.827 47.24 111.647 45.36 111.647 42.76C111.647 40.14 113.827 38.26 116.687 38.26ZM116.687 40.48C115.287 40.48 114.247 41.34 114.247 42.76C114.247 44.2 115.287 45.02 116.687 45.02C118.087 45.02 119.127 44.2 119.127 42.76C119.127 41.34 118.087 40.48 116.687 40.48ZM123.447 37.26H126.107V48.06H123.447V37.26ZM120.067 48.46C123.887 48.46 126.327 49.84 126.327 52.12C126.327 54.42 123.887 55.78 120.067 55.78C116.227 55.78 113.787 54.42 113.787 52.12C113.787 49.84 116.227 48.46 120.067 48.46ZM120.067 50.56C117.707 50.56 116.427 51.06 116.427 52.12C116.427 53.2 117.707 53.7 120.067 53.7C122.427 53.7 123.687 53.2 123.687 52.12C123.687 51.06 122.427 50.56 120.067 50.56ZM129.945 51.48H146.705V53.64H129.945V51.48ZM136.985 47.38H139.645V52.08H136.985V47.38ZM136.905 39.68H139.145V40.34C139.145 44.24 136.345 47.34 131.625 48.2L130.585 46.1C134.705 45.46 136.905 42.9 136.905 40.34V39.68ZM137.445 39.68H139.685V40.34C139.685 42.9 141.885 45.38 146.105 46L145.085 48.1C140.285 47.26 137.445 44.24 137.445 40.34V39.68ZM131.325 38.66H145.265V40.78H131.325V38.66ZM155.343 37.36H157.583V37.7C157.583 40.8 154.803 43.24 150.023 43.76L149.143 41.76C153.323 41.34 155.343 39.5 155.343 37.7V37.36ZM155.803 37.36H158.063V37.7C158.063 39.5 160.083 41.34 164.243 41.76L163.363 43.76C158.583 43.24 155.803 40.8 155.803 37.7V37.36ZM155.343 46.14H158.003V48.72H155.343V46.14ZM148.323 44.52H165.063V46.6H148.323V44.52ZM150.243 47.8H163.043V52.6H152.883V54.2H150.263V50.76H160.423V49.78H150.243V47.8ZM150.263 53.66H163.523V55.66H150.263V53.66ZM170.882 38.68H173.042V41.38C173.042 45.96 171.442 50.26 167.942 51.98L166.342 49.84C169.462 48.38 170.882 44.82 170.882 41.38V38.68ZM171.422 38.68H173.542V41.38C173.542 44.7 174.862 48.08 177.822 49.52L176.222 51.64C172.882 49.94 171.422 45.82 171.422 41.38V38.68ZM178.562 37.26H181.242V55.78H178.562V37.26ZM180.642 44.38H183.922V46.6H180.642V44.38ZM190.152 49.28H191.472C193.712 49.28 195.692 49.22 197.992 48.82L198.212 50.96C195.832 51.4 193.792 51.46 191.472 51.46H190.152V49.28ZM190.132 39.08H196.672V46.16H192.732V50.12H190.152V44.08H194.112V41.18H190.132V39.08ZM203.032 37.26H205.552V55.78H203.032V37.26ZM197.432 43.56H200.312V45.74H197.432V43.56ZM199.272 37.6H201.732V54.9H199.272V37.6ZM212.57 38.68H214.73V41.38C214.73 46.14 213.09 50.44 209.41 52.14L207.83 49.94C211.05 48.54 212.57 44.98 212.57 41.38V38.68ZM213.09 38.68H215.25V41.38C215.25 44.8 216.71 48.2 219.87 49.56L218.31 51.7C214.73 50.06 213.09 45.94 213.09 41.38V38.68ZM220.75 37.24H223.43V55.82H220.75V37.24ZM239.208 37.26H241.888V55.78H239.208V37.26ZM226.908 38.96H237.308V41.08H226.908V38.96ZM226.668 51.56L226.408 49.38C229.748 49.38 234.208 49.32 238.028 48.86L238.168 50.8C234.268 51.46 230.008 51.54 226.668 51.56ZM228.508 40.62H231.088V49.96H228.508V40.62ZM233.128 40.62H235.708V49.96H233.128V40.62ZM248.578 55.4H268.578V35.4H248.578V55.4Z" fill="#111111"/>
<path d="M59.697 72.262H60.776V79.243H59.697V72.262ZM60.464 75.317H62.505V76.214H60.464V75.317ZM57.019 79.49C59.398 79.49 60.88 80.335 60.88 81.752C60.88 83.169 59.398 84.001 57.019 84.001C54.64 84.001 53.158 83.169 53.158 81.752C53.158 80.335 54.64 79.49 57.019 79.49ZM57.019 80.374C55.277 80.374 54.211 80.868 54.211 81.752C54.211 82.61 55.277 83.117 57.019 83.117C58.761 83.117 59.827 82.61 59.827 81.752C59.827 80.868 58.761 80.374 57.019 80.374ZM52.17 77.436H53.08C55.511 77.436 56.876 77.358 58.449 77.033L58.579 77.917C56.954 78.242 55.563 78.32 53.08 78.32H52.17V77.436ZM52.17 73.159H57.357V74.043H53.236V78.008H52.17V73.159ZM72.15 72.275H73.242V80.881H72.15V72.275ZM65.689 82.87H73.593V83.754H65.689V82.87ZM65.689 80.088H66.755V83.286H65.689V80.088ZM66.664 72.912H67.561V74.108C67.561 76.396 66.261 78.398 64.285 79.204L63.726 78.333C65.494 77.644 66.664 75.928 66.664 74.108V72.912ZM66.859 72.912H67.743V74.108C67.743 75.876 68.926 77.475 70.681 78.112L70.109 78.983C68.159 78.229 66.859 76.344 66.859 74.108V72.912ZM79.377 73.107C81.21 73.107 82.523 74.238 82.523 75.876C82.523 77.527 81.21 78.658 79.377 78.658C77.544 78.658 76.218 77.527 76.218 75.876C76.218 74.238 77.544 73.107 79.377 73.107ZM79.377 74.043C78.155 74.043 77.271 74.784 77.271 75.876C77.271 76.968 78.155 77.722 79.377 77.722C80.586 77.722 81.47 76.968 81.47 75.876C81.47 74.784 80.586 74.043 79.377 74.043ZM84.057 72.249H85.136V84.027H84.057V72.249ZM75.776 81.453L75.62 80.556C77.765 80.556 80.729 80.543 83.29 80.14L83.381 80.933C80.742 81.44 77.869 81.453 75.776 81.453ZM98.9882 72.262H100.067V84.014H98.9882V72.262ZM95.5432 73.523H96.6092C96.6092 76.929 95.0752 79.906 91.1492 81.83L90.5772 80.959C93.9702 79.321 95.5432 76.825 95.5432 73.705V73.523ZM91.1102 73.523H96.0112V74.407H91.1102V73.523ZM108.165 75.291H111.363V76.175H108.165V75.291ZM104.213 79.854H112.052V84.027H110.973V80.712H104.213V79.854ZM110.973 72.262H112.052V79.191H110.973V72.262ZM105.591 72.912C107.32 72.912 108.62 74.082 108.62 75.746C108.62 77.41 107.32 78.567 105.591 78.567C103.849 78.567 102.562 77.41 102.562 75.746C102.562 74.082 103.849 72.912 105.591 72.912ZM105.591 73.835C104.447 73.835 103.602 74.628 103.602 75.746C103.602 76.864 104.447 77.644 105.591 77.644C106.722 77.644 107.58 76.864 107.58 75.746C107.58 74.628 106.722 73.835 105.591 73.835ZM119.11 76.825H121.333V77.722H119.11V76.825ZM123.296 72.262H124.336V84.014H123.296V72.262ZM120.969 72.509H121.996V83.429H120.969V72.509ZM116.991 73.237C118.512 73.237 119.5 74.81 119.5 77.332C119.5 79.854 118.512 81.427 116.991 81.427C115.47 81.427 114.495 79.854 114.495 77.332C114.495 74.81 115.47 73.237 116.991 73.237ZM116.991 74.238C116.068 74.238 115.483 75.434 115.483 77.332C115.483 79.23 116.068 80.426 116.991 80.426C117.927 80.426 118.512 79.23 118.512 77.332C118.512 75.434 117.927 74.238 116.991 74.238ZM137.252 72.262H138.331V78.905H137.252V72.262ZM138.045 74.953H140.073V75.85H138.045V74.953ZM130.921 79.542H138.331V83.858H130.921V79.542ZM137.278 80.413H131.987V82.974H137.278V80.413ZM129.777 72.847H130.856V77.553H129.777V72.847ZM129.777 77.111H130.7C132.39 77.111 134.145 76.994 136.069 76.604L136.199 77.488C134.21 77.904 132.455 78.021 130.7 78.021H129.777V77.111ZM146.481 72.457C149.068 72.457 150.615 73.185 150.615 74.498C150.615 75.811 149.068 76.539 146.481 76.539C143.881 76.539 142.347 75.811 142.347 74.498C142.347 73.185 143.881 72.457 146.481 72.457ZM146.481 73.276C144.557 73.276 143.452 73.718 143.452 74.498C143.452 75.278 144.557 75.72 146.481 75.72C148.392 75.72 149.497 75.278 149.497 74.498C149.497 73.718 148.392 73.276 146.481 73.276ZM141.164 77.319H151.785V78.19H141.164V77.319ZM142.451 79.191H150.433V81.843H143.543V83.273H142.477V81.063H149.367V80.023H142.451V79.191ZM142.477 83.039H150.784V83.884H142.477V83.039ZM160.802 72.314H161.712V72.743C161.712 74.745 159.424 76.084 156.98 76.396L156.616 75.564C158.748 75.33 160.802 74.199 160.802 72.743V72.314ZM160.984 72.314H161.894V72.743C161.894 74.199 163.948 75.33 166.08 75.564L165.703 76.396C163.272 76.084 160.984 74.745 160.984 72.743V72.314ZM160.802 77.8H161.868V79.594H160.802V77.8ZM156.031 77.163H166.652V78.034H156.031V77.163ZM157.318 79.191H165.3V81.869H158.41V83.286H157.344V81.089H164.234V80.023H157.318V79.191ZM157.344 83.039H165.651V83.884H157.344V83.039Z" fill="#666666"/>
<g filter="url(#filter2_d_1409_17126)">
<rect x="311" y="15" width="304" height="88" rx="12.893" fill="#F5FCFF"/>
</g>
<path d="M337.8 46.14H354.54V48.26H337.8V46.14ZM344.82 43.94H347.48V46.76H344.82V43.94ZM339.94 37.68H342.56V39.26H349.78V37.68H352.42V44.7H339.94V37.68ZM342.56 41.24V42.62H349.78V41.24H342.56ZM339.74 49.42H352.54V55.58H339.74V49.42ZM349.94 51.5H342.36V53.48H349.94V51.5ZM365.25 38.68H367.41V41.38C367.41 46.14 365.77 50.44 362.09 52.14L360.51 49.94C363.73 48.54 365.25 44.98 365.25 41.38V38.68ZM365.77 38.68H367.93V41.38C367.93 44.8 369.39 48.2 372.55 49.56L370.99 51.7C367.41 50.06 365.77 45.94 365.77 41.38V38.68ZM373.43 37.24H376.11V55.82H373.43V37.24ZM385.668 39.28H388.028V39.74C388.028 42.7 385.548 45.2 380.828 45.76L379.868 43.64C383.888 43.2 385.668 41.38 385.668 39.74V39.28ZM386.968 39.28H389.328V39.74C389.328 41.38 391.128 43.2 395.148 43.64L394.168 45.76C389.468 45.2 386.968 42.7 386.968 39.74V39.28ZM380.648 38.12H394.368V40.22H380.648V38.12ZM381.148 53.34H393.988V55.46H381.148V53.34ZM381.148 50H383.808V53.96H381.148V50ZM379.128 46.68H395.888V48.8H379.128V46.68ZM411.738 41.22H415.298V43.34H411.738V41.22ZM408.918 38.06H411.698C411.698 43.06 409.258 45.98 403.338 47.36L402.378 45.34C407.458 44.24 408.918 42.1 408.918 39.38V38.06ZM403.398 38.06H410.838V40.1H403.398V38.06ZM409.458 41.14V42.88L402.838 43.36L402.478 41.36L409.458 41.14ZM414.898 37.26H417.558V46.6H414.898V37.26ZM405.318 47.32H417.558V52.36H407.978V54.64H405.358V50.44H414.918V49.38H405.318V47.32ZM405.358 53.52H417.938V55.58H405.358V53.52ZM423.616 49.54H436.236V55.78H433.596V51.66H423.616V49.54ZM421.196 46.04H422.476C425.116 46.04 426.816 45.98 428.856 45.62L429.096 47.7C427.016 48.08 425.196 48.12 422.476 48.12H421.196V46.04ZM421.176 38.62H427.696V44.26H423.776V47.42H421.196V42.34H425.136V40.7H421.176V38.62ZM433.716 37.26H436.236V48.78H433.716V37.26ZM428.336 41.64H431.816V43.78H428.336V41.64ZM429.996 37.62H432.476V48.7H429.996V37.62ZM448.635 39.66H452.315V41.8H448.635V39.66ZM448.635 43.24H452.315V45.36H448.635V43.24ZM443.095 38.32H445.235V40.44C445.235 44.28 443.675 47.6 440.175 48.9L438.755 46.82C441.815 45.74 443.095 43.14 443.095 40.44V38.32ZM443.655 38.32H445.795V40.44C445.795 42.98 446.995 45.52 449.915 46.62L448.455 48.68C445.175 47.38 443.655 44.12 443.655 40.44V38.32ZM451.695 37.28H454.355V50.98H451.695V37.28ZM442.095 53.34H454.755V55.46H442.095V53.34ZM442.095 49.72H444.775V54.68H442.095V49.72ZM460.984 55.4H480.984V35.4H460.984V55.4Z" fill="#111111"/>
<path d="M340.757 73.939H341.628V75.85C341.628 78.333 340.133 80.829 338.261 81.752L337.637 80.894C339.34 80.088 340.757 77.878 340.757 75.85V73.939ZM340.965 73.939H341.836V75.85C341.836 77.839 343.253 79.867 344.982 80.608L344.371 81.466C342.473 80.582 340.965 78.294 340.965 75.85V73.939ZM338.027 73.458H344.592V74.368H338.027V73.458ZM346.178 72.262H347.257V84.014H346.178V72.262ZM350.961 72.873H358.527V73.757H350.961V72.873ZM349.609 77.202H360.256V78.086H349.609V77.202ZM357.825 72.873H358.878V73.744C358.878 74.745 358.878 75.889 358.488 77.514L357.435 77.462C357.825 75.85 357.825 74.719 357.825 73.744V72.873ZM350.909 79.685H358.917V83.858H350.909V79.685ZM357.864 80.543H351.962V82.987H357.864V80.543ZM362.049 73.315H367.444V78.762H362.049V73.315ZM366.391 74.186H363.102V77.891H366.391V74.186ZM369.602 72.249H370.681V80.868H369.602V72.249ZM370.343 75.837H372.423V76.734H370.343V75.837ZM363.362 82.87H371.214V83.754H363.362V82.87ZM363.362 80.049H364.441V83.247H363.362V80.049ZM376.915 73.315H382.31V78.762H376.915V73.315ZM381.257 74.186H377.968V77.891H381.257V74.186ZM384.468 72.249H385.547V80.868H384.468V72.249ZM385.209 75.837H387.289V76.734H385.209V75.837ZM378.228 82.87H386.08V83.754H378.228V82.87ZM378.228 80.049H379.307V83.247H378.228V80.049ZM397.129 76.942H399.3V77.852H397.129V76.942ZM396.336 72.249H397.428V84.014H396.336V72.249ZM388.848 73.406H389.927V80.686H388.848V73.406ZM388.848 80.127H389.784C391.526 80.127 393.307 80.01 395.244 79.607L395.374 80.504C393.372 80.92 391.565 81.037 389.784 81.037H388.848V80.127ZM401.756 72.444H402.822V73.536H408.503V72.444H409.582V76.318H401.756V72.444ZM402.822 74.368V75.486H408.503V74.368H402.822ZM400.339 77.449H410.96V78.32H400.339V77.449ZM405.11 75.928H406.176V77.722H405.11V75.928ZM401.626 79.295H409.608V81.908H402.718V83.364H401.652V81.128H408.542V80.114H401.626V79.295ZM401.652 83.052H409.959V83.884H401.652V83.052ZM419.963 72.678H420.912V73.328C420.912 75.577 418.624 77.189 416.18 77.605L415.751 76.734C417.896 76.409 419.963 75.005 419.963 73.328V72.678ZM420.158 72.678H421.094V73.328C421.094 74.966 423.187 76.409 425.306 76.734L424.877 77.605C422.459 77.189 420.158 75.551 420.158 73.328V72.678ZM419.963 79.542H421.029V84.014H419.963V79.542ZM415.218 78.879H425.839V79.776H415.218V78.879ZM433.01 79.49H433.842V80.127C433.842 81.661 432.88 83.208 431.19 83.858L430.644 83.052C432.126 82.519 433.01 81.258 433.01 80.127V79.49ZM433.244 79.49H434.05V80.127C434.05 81.31 434.752 82.571 436.156 83.143L435.701 83.962C434.011 83.299 433.244 81.687 433.244 80.127V79.49ZM437.352 79.49H438.158V80.127C438.158 81.505 437.378 83.247 435.701 83.962L435.246 83.143C436.637 82.506 437.352 81.141 437.352 80.127V79.49ZM437.573 79.49H438.405V80.127C438.405 81.336 439.276 82.545 440.771 83.052L440.225 83.858C438.509 83.234 437.573 81.752 437.573 80.127V79.49ZM438.626 72.275H439.718V78.983H438.626V72.275ZM433.413 72.951C435.194 72.951 436.468 74.069 436.468 75.694C436.468 77.319 435.194 78.424 433.413 78.424C431.632 78.424 430.345 77.319 430.345 75.694C430.345 74.069 431.632 72.951 433.413 72.951ZM433.413 73.848C432.243 73.848 431.398 74.602 431.398 75.694C431.398 76.786 432.243 77.527 433.413 77.527C434.583 77.527 435.428 76.786 435.428 75.694C435.428 74.602 434.583 73.848 433.413 73.848ZM443.474 75.785H451.456V76.669H443.474V75.785ZM442.031 78.242H452.691V79.126H442.031V78.242ZM443.474 72.691H444.54V76.227H443.474V72.691ZM443.396 82.844H451.521V83.728H443.396V82.844ZM443.396 80.296H444.462V83.078H443.396V80.296ZM464.944 72.275H466.023V81.089H464.944V72.275ZM465.685 76.123H467.765V77.033H465.685V76.123ZM456.936 73.692H463.878V74.563H456.936V73.692ZM460.407 75.213C462.071 75.213 463.215 76.084 463.215 77.41C463.215 78.723 462.071 79.594 460.407 79.594C458.73 79.594 457.586 78.723 457.586 77.41C457.586 76.084 458.73 75.213 460.407 75.213ZM460.407 76.058C459.341 76.058 458.613 76.591 458.613 77.41C458.613 78.216 459.341 78.749 460.407 78.749C461.46 78.749 462.188 78.216 462.188 77.41C462.188 76.591 461.46 76.058 460.407 76.058ZM459.861 72.262H460.94V74.147H459.861V72.262ZM458.704 82.87H466.556V83.754H458.704V82.87ZM458.704 80.387H459.783V83.247H458.704V80.387ZM475.135 75.304H477.787V76.201H475.135V75.304ZM477.449 72.262H478.528V79.269H477.449V72.262ZM474.667 79.62C477.085 79.62 478.58 80.439 478.58 81.817C478.58 83.208 477.085 84.001 474.667 84.001C472.236 84.001 470.741 83.208 470.741 81.817C470.741 80.439 472.236 79.62 474.667 79.62ZM474.667 80.465C472.899 80.465 471.82 80.959 471.82 81.817C471.82 82.662 472.899 83.156 474.667 83.156C476.435 83.156 477.514 82.662 477.514 81.817C477.514 80.959 476.435 80.465 474.667 80.465ZM471.859 73.445H472.743V74.394C472.743 76.565 471.417 78.424 469.467 79.152L468.908 78.294C470.65 77.657 471.859 76.084 471.859 74.394V73.445ZM472.067 73.445H472.938V74.394C472.938 75.915 474.082 77.371 475.785 77.969L475.239 78.827C473.328 78.138 472.067 76.37 472.067 74.394V73.445ZM469.233 73.12H475.512V74.004H469.233V73.12ZM488.441 73.419H489.377V73.913C489.377 76.019 487.141 77.566 484.775 77.969L484.359 77.111C486.426 76.812 488.441 75.46 488.441 73.913V73.419ZM488.714 73.419H489.637V73.913C489.637 75.46 491.665 76.812 493.719 77.111L493.316 77.969C490.937 77.566 488.714 76.019 488.714 73.913V73.419ZM488.48 79.529H489.546V84.014H488.48V79.529ZM483.735 78.957H494.356V79.841H483.735V78.957ZM484.723 72.99H493.329V73.861H484.723V72.99ZM495.681 79.256H506.341V80.14H495.681V79.256ZM498.437 79.737H499.529V84.014H498.437V79.737ZM502.48 79.737H503.559V84.014H502.48V79.737ZM496.955 72.717H505.041V75.746H498.073V77.761H496.981V74.914H503.962V73.588H496.955V72.717ZM496.981 77.189H505.314V78.06H496.981V77.189ZM507.965 85.47L507.692 84.781C508.498 84.417 508.992 83.767 508.992 82.974L508.862 81.908L509.434 82.766C509.278 82.961 509.07 83.026 508.836 83.026C508.381 83.026 507.978 82.727 507.978 82.194C507.978 81.674 508.381 81.362 508.862 81.362C509.486 81.362 509.863 81.895 509.863 82.753C509.863 84.014 509.148 84.989 507.965 85.47ZM515.153 79.438H523.811V80.283H515.153V79.438ZM515.621 75.005H523.616V75.863H515.621V75.005ZM514.165 77.046H524.825V77.904H514.165V77.046ZM515.621 72.431H516.687V75.473H515.621V72.431ZM518.975 75.343H520.054V77.462H518.975V75.343ZM519.482 80.816C521.731 80.816 523.005 81.362 523.005 82.415C523.005 83.455 521.731 83.988 519.482 83.988C517.22 83.988 515.946 83.455 515.946 82.415C515.946 81.362 517.22 80.816 519.482 80.816ZM519.482 81.583C517.948 81.583 517.064 81.856 517.064 82.415C517.064 82.961 517.948 83.234 519.482 83.234C521.016 83.234 521.887 82.961 521.887 82.415C521.887 81.856 521.016 81.583 519.482 81.583ZM518.949 78.359H520.015V79.984H518.949V78.359ZM534.678 72.262H535.757V84.014H534.678V72.262ZM529.387 75.057H530.258V76.058C530.258 78.567 528.841 80.842 526.956 81.752L526.345 80.92C528.087 80.114 529.387 78.112 529.387 76.058V75.057ZM529.595 75.057H530.453V76.058C530.453 78.021 531.792 79.932 533.547 80.699L532.936 81.544C531.038 80.686 529.595 78.489 529.595 76.058V75.057ZM526.67 74.303H533.144V75.174H526.67V74.303ZM529.387 72.47H530.466V74.784H529.387V72.47ZM541.203 73.939H542.074V75.85C542.074 78.333 540.579 80.829 538.707 81.752L538.083 80.894C539.786 80.088 541.203 77.878 541.203 75.85V73.939ZM541.411 73.939H542.282V75.85C542.282 77.839 543.699 79.867 545.428 80.608L544.817 81.466C542.919 80.582 541.411 78.294 541.411 75.85V73.939ZM538.473 73.458H545.038V74.368H538.473V73.458ZM546.624 72.262H547.703V84.014H546.624V72.262ZM553.418 73.432H558.812V81.037H553.418V73.432ZM557.76 74.303H554.471V80.166H557.76V74.303ZM560.906 72.262H561.998V84.014H560.906V72.262ZM561.738 76.955H563.922V77.865H561.738V76.955ZM569.549 76.461H571.798V77.358H569.549V76.461ZM567.352 73.367H568.197V75.603C568.197 78.06 567.17 80.439 565.454 81.492L564.778 80.673C566.39 79.724 567.352 77.618 567.352 75.603V73.367ZM567.56 73.367H568.392V75.564C568.392 77.449 569.276 79.451 570.823 80.387L570.199 81.232C568.509 80.192 567.56 77.852 567.56 75.564V73.367ZM573.865 72.262H574.905V84.014H573.865V72.262ZM571.486 72.509H572.5V83.429H571.486V72.509ZM579.48 78.307H580.546V81.83H579.48V78.307ZM583.822 78.307H584.901V81.83H583.822V78.307ZM576.88 81.622H587.527V82.519H576.88V81.622ZM582.184 73.003C584.667 73.003 586.448 74.186 586.448 76.032C586.448 77.865 584.667 79.048 582.184 79.048C579.688 79.048 577.907 77.865 577.907 76.032C577.907 74.186 579.688 73.003 582.184 73.003ZM582.184 73.861C580.299 73.861 578.947 74.719 578.947 76.032C578.947 77.332 580.299 78.19 582.184 78.19C584.069 78.19 585.408 77.332 585.408 76.032C585.408 74.719 584.069 73.861 582.184 73.861Z" fill="#666666"/>
<defs>
<filter id="filter0_d_1409_17126" x="102.77" y="123" width="357.46" height="152.46" filterUnits="userSpaceOnUse" color-interpolation-filters="sRGB">
<feFlood flood-opacity="0" result="BackgroundImageFix"/>
<feColorMatrix in="SourceAlpha" type="matrix" values="0 0 0 0 0 0 0 0 0 0 0 0 0 0 0 0 0 0 127 0" result="hardAlpha"/>
<feOffset dy="32.23"/>
<feGaussianBlur stdDeviation="16.115"/>
<feComposite in2="hardAlpha" operator="out"/>
<feColorMatrix type="matrix" values="0 0 0 0 0 0 0 0 0 0 0 0 0 0 0 0 0 0 0.12 0"/>
<feBlend mode="normal" in2="BackgroundImageFix" result="effect1_dropShadow_1409_17126"/>
<feBlend mode="normal" in="SourceGraphic" in2="effect1_dropShadow_1409_17126" result="shape"/>
</filter>
<filter id="filter1_d_1409_17126" x="0" y="0" width="320" height="138" filterUnits="userSpaceOnUse" color-interpolation-filters="sRGB">
<feFlood flood-opacity="0" result="BackgroundImageFix"/>
<feColorMatrix in="SourceAlpha" type="matrix" values="0 0 0 0 0 0 0 0 0 0 0 0 0 0 0 0 0 0 127 0" result="hardAlpha"/>
<feOffset dy="10"/>
<feGaussianBlur stdDeviation="12.5"/>
<feComposite in2="hardAlpha" operator="out"/>
<feColorMatrix type="matrix" values="0 0 0 0 0 0 0 0 0 0 0 0 0 0 0 0 0 0 0.12 0"/>
<feBlend mode="normal" in2="BackgroundImageFix" result="effect1_dropShadow_1409_17126"/>
<feBlend mode="normal" in="SourceGraphic" in2="effect1_dropShadow_1409_17126" result="shape"/>
</filter>
<filter id="filter2_d_1409_17126" x="286" y="0" width="354" height="138" filterUnits="userSpaceOnUse" color-interpolation-filters="sRGB">
<feFlood flood-opacity="0" result="BackgroundImageFix"/>
<feColorMatrix in="SourceAlpha" type="matrix" values="0 0 0 0 0 0 0 0 0 0 0 0 0 0 0 0 0 0 127 0" result="hardAlpha"/>
<feOffset dy="10"/>
<feGaussianBlur stdDeviation="12.5"/>
<feComposite in2="hardAlpha" operator="out"/>
<feColorMatrix type="matrix" values="0 0 0 0 0 0 0 0 0 0 0 0 0 0 0 0 0 0 0.12 0"/>
<feBlend mode="normal" in2="BackgroundImageFix" result="effect1_dropShadow_1409_17126"/>
<feBlend mode="normal" in="SourceGraphic" in2="effect1_dropShadow_1409_17126" result="shape"/>
</filter>
</defs>
</svg>
