<svg width="359" height="372" viewBox="0 0 359 372" fill="none" xmlns="http://www.w3.org/2000/svg">
<g filter="url(#filter0_d_0_1)">
<rect x="33" y="219" width="293" height="88" rx="12.893" fill="#FAF7FF"/>
</g>
<path d="M73.56 243.54H76.76V245.7H73.56V243.54ZM73.56 247.56H76.76V249.72H73.56V247.56ZM64.96 242.26C67.82 242.26 70 244.14 70 246.76C70 249.36 67.82 251.24 64.96 251.24C62.1 251.24 59.92 249.36 59.92 246.76C59.92 244.14 62.1 242.26 64.96 242.26ZM64.96 244.48C63.56 244.48 62.52 245.34 62.52 246.76C62.52 248.2 63.56 249.02 64.96 249.02C66.36 249.02 67.4 248.2 67.4 246.76C67.4 245.34 66.36 244.48 64.96 244.48ZM71.72 241.26H74.38V252.06H71.72V241.26ZM68.34 252.46C72.16 252.46 74.6 253.84 74.6 256.12C74.6 258.42 72.16 259.78 68.34 259.78C64.5 259.78 62.06 258.42 62.06 256.12C62.06 253.84 64.5 252.46 68.34 252.46ZM68.34 254.56C65.98 254.56 64.7 255.06 64.7 256.12C64.7 257.2 65.98 257.7 68.34 257.7C70.7 257.7 71.96 257.2 71.96 256.12C71.96 255.06 70.7 254.56 68.34 254.56ZM78.2184 255.48H94.9784V257.64H78.2184V255.48ZM85.2584 251.38H87.9184V256.08H85.2584V251.38ZM85.1784 243.68H87.4184V244.34C87.4184 248.24 84.6184 251.34 79.8984 252.2L78.8584 250.1C82.9784 249.46 85.1784 246.9 85.1784 244.34V243.68ZM85.7184 243.68H87.9584V244.34C87.9584 246.9 90.1584 249.38 94.3784 250L93.3584 252.1C88.5584 251.26 85.7184 248.24 85.7184 244.34V243.68ZM79.5984 242.66H93.5384V244.78H79.5984V242.66ZM103.617 241.36H105.857V241.7C105.857 244.8 103.077 247.24 98.2969 247.76L97.4169 245.76C101.597 245.34 103.617 243.5 103.617 241.7V241.36ZM104.077 241.36H106.337V241.7C106.337 243.5 108.357 245.34 112.517 245.76L111.637 247.76C106.857 247.24 104.077 244.8 104.077 241.7V241.36ZM103.617 250.14H106.277V252.72H103.617V250.14ZM96.5969 248.52H113.337V250.6H96.5969V248.52ZM98.5169 251.8H111.317V256.6H101.157V258.2H98.5369V254.76H108.697V253.78H98.5169V251.8ZM98.5369 257.66H111.797V259.66H98.5369V257.66ZM119.155 242.68H121.315V245.38C121.315 249.96 119.715 254.26 116.215 255.98L114.615 253.84C117.735 252.38 119.155 248.82 119.155 245.38V242.68ZM119.695 242.68H121.815V245.38C121.815 248.7 123.135 252.08 126.095 253.52L124.495 255.64C121.155 253.94 119.695 249.82 119.695 245.38V242.68ZM126.835 241.26H129.515V259.78H126.835V241.26ZM128.915 248.38H132.195V250.6H128.915V248.38ZM144.785 243.32H147.085V243.86C147.085 247.12 144.425 249.78 139.725 250.42L138.745 248.34C142.825 247.84 144.785 245.76 144.785 243.86V243.32ZM145.545 243.32H147.845V243.86C147.845 245.76 149.805 247.84 153.885 248.34L152.925 250.42C148.205 249.78 145.545 247.12 145.545 243.86V243.32ZM144.925 253H147.565V259.8H144.925V253ZM137.945 251.48H154.685V253.6H137.945V251.48ZM139.425 242.2H153.165V244.3H139.425V242.2ZM168.223 241.26H170.903V254.52H168.223V241.26ZM170.143 246.42H173.363V248.6H170.143V246.42ZM163.063 242.64H165.903C165.903 247.68 162.823 251.14 157.303 252.74L156.183 250.62C160.723 249.38 163.063 246.9 163.063 243.96V242.64ZM156.983 242.64H164.503V244.78H156.983V242.64ZM158.923 257.34H171.523V259.46H158.923V257.34ZM158.923 253.18H161.603V258.28H158.923V253.18ZM180.273 258V243.2H185.153C188.193 243.2 190.513 244.1 190.513 246.86C190.513 248.22 189.773 249.6 188.513 250.06V250.14C190.093 250.52 191.273 251.66 191.273 253.64C191.273 256.62 188.793 258 185.553 258H180.273ZM183.233 249.22H184.953C186.833 249.22 187.633 248.48 187.633 247.28C187.633 245.98 186.773 245.48 184.993 245.48H183.233V249.22ZM183.233 255.72H185.293C187.293 255.72 188.393 255 188.393 253.48C188.393 252.04 187.333 251.42 185.293 251.42H183.233V255.72ZM193.886 258V243.2H202.966V245.66H196.846V249.08H202.026V251.58H196.846V255.52H203.186V258H193.886ZM210.611 258.28C208.611 258.28 206.651 257.52 205.211 256.14L206.911 254.1C207.951 255.08 209.371 255.72 210.671 255.72C212.211 255.72 213.011 255.06 213.011 254.04C213.011 252.94 212.111 252.58 210.791 252.02L208.811 251.18C207.331 250.58 205.811 249.36 205.811 247.22C205.811 244.8 207.951 242.94 210.931 242.94C212.651 242.94 214.371 243.62 215.571 244.84L214.091 246.7C213.131 245.92 212.151 245.48 210.931 245.48C209.631 245.48 208.811 246.06 208.811 247.02C208.811 248.08 209.871 248.48 211.131 248.98L213.071 249.78C214.851 250.52 216.031 251.68 216.031 253.8C216.031 256.22 214.011 258.28 210.611 258.28ZM221.045 258V245.66H216.865V243.2H228.185V245.66H224.005V258H221.045ZM235.136 258V243.2H239.996C243.256 243.2 245.776 244.34 245.776 247.86C245.776 251.24 243.256 252.74 240.076 252.74H238.096V258H235.136ZM238.096 250.4H239.876C241.916 250.4 242.896 249.54 242.896 247.86C242.896 246.12 241.816 245.56 239.776 245.56H238.096V250.4ZM248.236 258V246.82H251.176V258H248.236ZM249.696 245C248.676 245 247.996 244.36 247.996 243.38C247.996 242.42 248.676 241.8 249.696 241.8C250.716 241.8 251.416 242.42 251.416 243.38C251.416 244.36 250.716 245 249.696 245ZM259.05 258.28C255.97 258.28 253.61 256.12 253.61 252.42C253.61 248.7 256.27 246.54 259.31 246.54C260.71 246.54 261.75 247.06 262.57 247.78L261.19 249.66C260.63 249.18 260.09 248.94 259.49 248.94C257.75 248.94 256.61 250.3 256.61 252.42C256.61 254.52 257.77 255.9 259.37 255.9C260.19 255.9 260.95 255.5 261.57 255L262.73 256.94C261.67 257.86 260.29 258.28 259.05 258.28ZM264.857 258V242.06H267.737V251.62H267.837L271.637 246.82H274.877L271.037 251.42L275.217 258H272.037L269.317 253.36L267.737 255.18V258H264.857ZM279.879 259.4H299.879V239.4H279.879V259.4Z" fill="#111111"/>
<path d="M68.178 276.249H69.257V288.027H68.178V276.249ZM63.056 277.159C64.798 277.159 66.046 278.758 66.046 281.254C66.046 283.763 64.798 285.362 63.056 285.362C61.327 285.362 60.079 283.763 60.079 281.254C60.079 278.758 61.327 277.159 63.056 277.159ZM63.056 278.134C61.912 278.134 61.106 279.356 61.106 281.254C61.106 283.165 61.912 284.413 63.056 284.413C64.213 284.413 65.006 283.165 65.006 281.254C65.006 279.356 64.213 278.134 63.056 278.134ZM77.147 279.577H80.527V280.461H77.147V279.577ZM80.189 276.275H81.268V284.972H80.189V276.275ZM73.715 286.87H81.554V287.754H73.715V286.87ZM73.715 284.127H74.794V287.325H73.715V284.127ZM72.181 277.042H73.247V279.122H76.432V277.042H77.485V282.97H72.181V277.042ZM73.247 279.967V282.086H76.432V279.967H73.247ZM91.1812 277.419H92.1172V277.913C92.1172 280.019 89.8812 281.566 87.5152 281.969L87.0992 281.111C89.1662 280.812 91.1812 279.46 91.1812 277.913V277.419ZM91.4542 277.419H92.3772V277.913C92.3772 279.46 94.4052 280.812 96.4592 281.111L96.0562 281.969C93.6772 281.566 91.4542 280.019 91.4542 277.913V277.419ZM91.2202 283.529H92.2862V288.014H91.2202V283.529ZM86.4752 282.957H97.0962V283.841H86.4752V282.957ZM87.4632 276.99H96.0692V277.861H87.4632V276.99ZM103.192 280.825H105.415V281.722H103.192V280.825ZM107.378 276.262H108.418V288.014H107.378V276.262ZM105.051 276.509H106.078V287.429H105.051V276.509ZM101.073 277.237C102.594 277.237 103.582 278.81 103.582 281.332C103.582 283.854 102.594 285.427 101.073 285.427C99.5522 285.427 98.5772 283.854 98.5772 281.332C98.5772 278.81 99.5522 277.237 101.073 277.237ZM101.073 278.238C100.15 278.238 99.5652 279.434 99.5652 281.332C99.5652 283.23 100.15 284.426 101.073 284.426C102.009 284.426 102.594 283.23 102.594 281.332C102.594 279.434 102.009 278.238 101.073 278.238ZM121.243 276.249H122.335V288.014H121.243V276.249ZM122.036 281.02H124.207V281.917H122.036V281.02ZM118.24 277.523H119.293C119.293 280.864 117.759 283.88 113.963 285.791L113.365 284.959C116.615 283.308 118.24 280.799 118.24 277.692V277.523ZM113.911 277.523H118.799V278.407H113.911V277.523ZM128.145 277.523H129.029V278.472C129.029 280.63 127.729 282.437 125.753 283.152L125.207 282.294C126.975 281.67 128.145 280.149 128.145 278.472V277.523ZM128.34 277.523H129.224V278.459C129.224 279.993 130.342 281.371 132.071 281.943L131.551 282.788C129.588 282.138 128.34 280.461 128.34 278.459V277.523ZM125.532 277.133H131.811V278.017H125.532V277.133ZM133.293 276.262H134.372V283.347H133.293V276.262ZM134.073 279.239H136.114V280.149H134.073V279.239ZM130.628 283.659C133.02 283.659 134.489 284.452 134.489 285.817C134.489 287.195 133.02 287.988 130.628 287.988C128.236 287.988 126.767 287.195 126.767 285.817C126.767 284.452 128.236 283.659 130.628 283.659ZM130.628 284.53C128.886 284.53 127.82 284.998 127.82 285.817C127.82 286.649 128.886 287.143 130.628 287.143C132.37 287.143 133.436 286.649 133.436 285.817C133.436 284.998 132.37 284.53 130.628 284.53ZM148.16 276.262H149.239V282.255H148.16V276.262ZM148.771 278.901H150.981V279.798H148.771V278.901ZM140.607 277.029H146.002V281.826H140.607V277.029ZM144.949 277.9H141.66V280.968H144.949V277.9ZM141.348 286.818H141.907C142.609 286.818 143.74 286.753 144.741 286.415L144.923 287.286C143.792 287.65 142.713 287.702 141.907 287.702H141.348V286.818ZM141.348 283.334H142.401V287.052H141.348V283.334ZM144.494 283.451H150.396V284.257H144.494V283.451ZM147.458 284.686C148.732 284.686 149.629 285.336 149.629 286.337C149.629 287.364 148.732 288.001 147.458 288.001C146.171 288.001 145.274 287.364 145.274 286.337C145.274 285.336 146.171 284.686 147.458 284.686ZM147.458 285.453C146.73 285.453 146.236 285.804 146.236 286.337C146.236 286.883 146.73 287.234 147.458 287.234C148.16 287.234 148.667 286.883 148.667 286.337C148.667 285.804 148.16 285.453 147.458 285.453ZM146.925 282.424H147.978V284.023H146.925V282.424ZM160.613 276.249H161.692V288.027H160.613V276.249ZM155.491 277.159C157.233 277.159 158.481 278.758 158.481 281.254C158.481 283.763 157.233 285.362 155.491 285.362C153.762 285.362 152.514 283.763 152.514 281.254C152.514 278.758 153.762 277.159 155.491 277.159ZM155.491 278.134C154.347 278.134 153.541 279.356 153.541 281.254C153.541 283.165 154.347 284.413 155.491 284.413C156.648 284.413 157.441 283.165 157.441 281.254C157.441 279.356 156.648 278.134 155.491 278.134ZM169.824 277.276H170.708V279.382C170.708 281.982 169.304 284.517 167.445 285.505L166.782 284.647C168.485 283.789 169.824 281.527 169.824 279.382V277.276ZM170.019 277.276H170.89V279.382C170.89 281.449 172.203 283.594 173.867 284.426L173.204 285.284C171.384 284.309 170.019 281.904 170.019 279.382V277.276ZM174.894 276.262H175.986V288.014H174.894V276.262ZM175.726 281.02H177.91V281.93H175.726V281.02ZM186.944 276.262H188.023V283.36H186.944V276.262ZM187.698 279.2H189.765V280.097H187.698V279.2ZM179.417 281.8H180.34C182.472 281.8 183.993 281.735 185.826 281.41L185.917 282.307C184.058 282.619 182.511 282.697 180.34 282.697H179.417V281.8ZM179.391 276.99H184.682V280.188H180.47V282.372H179.417V279.343H183.616V277.874H179.391V276.99ZM184.266 283.724C186.671 283.724 188.127 284.504 188.127 285.856C188.127 287.221 186.671 288.001 184.266 288.001C181.874 288.001 180.405 287.221 180.405 285.856C180.405 284.504 181.874 283.724 184.266 283.724ZM184.266 284.569C182.511 284.569 181.458 285.037 181.458 285.856C181.458 286.688 182.511 287.156 184.266 287.156C186.021 287.156 187.087 286.688 187.087 285.856C187.087 285.037 186.021 284.569 184.266 284.569ZM198.903 276.262H199.982V283.139H198.903V276.262ZM199.683 279.083H201.724V279.993H199.683V279.083ZM191.35 276.912H192.416V278.706H195.731V276.912H196.784V282.398H191.35V276.912ZM192.416 279.564V281.527H195.731V279.564H192.416ZM192.637 283.776H200.073V284.647H193.716V287.598H192.637V283.776ZM192.637 286.974H200.307V287.858H192.637V286.974ZM202.815 282.437H213.436V283.321H202.815V282.437ZM204.193 286.87H212.266V287.754H204.193V286.87ZM204.193 284.348H205.272V287.143H204.193V284.348ZM208.132 276.652C210.641 276.652 212.266 277.536 212.266 279.005C212.266 280.461 210.641 281.345 208.132 281.345C205.61 281.345 203.998 280.461 203.998 279.005C203.998 277.536 205.61 276.652 208.132 276.652ZM208.132 277.536C206.286 277.536 205.103 278.082 205.103 279.005C205.103 279.928 206.286 280.474 208.132 280.474C209.978 280.474 211.161 279.928 211.161 279.005C211.161 278.082 209.978 277.536 208.132 277.536ZM220.32 287V278.485H217.447V277.471H224.415V278.485H221.542V287H220.32ZM229.268 287.182C226.863 287.182 225.199 285.258 225.199 282.203C225.199 279.148 226.863 277.302 229.268 277.302C231.66 277.302 233.324 279.161 233.324 282.203C233.324 285.258 231.66 287.182 229.268 287.182ZM229.268 286.116C230.971 286.116 232.102 284.582 232.102 282.203C232.102 279.824 230.971 278.355 229.268 278.355C227.552 278.355 226.434 279.824 226.434 282.203C226.434 284.582 227.552 286.116 229.268 286.116ZM235.394 287V277.471H238.111C240.243 277.471 241.686 278.186 241.686 280.279C241.686 282.281 240.256 283.217 238.163 283.217H236.603V287H235.394ZM236.603 282.242H238.02C239.684 282.242 240.49 281.631 240.49 280.279C240.49 278.888 239.645 278.459 237.955 278.459H236.603V282.242ZM246.372 287V286.012H248.491V279.187H246.788V278.42C247.646 278.264 248.257 278.043 248.764 277.744H249.674V286.012H251.598V287H246.372ZM256.052 287.182C254.193 287.182 253.075 285.453 253.075 282.346C253.075 279.239 254.193 277.575 256.052 277.575C257.885 277.575 259.003 279.239 259.003 282.346C259.003 285.453 257.885 287.182 256.052 287.182ZM256.052 286.22C257.131 286.22 257.859 285.063 257.859 282.346C257.859 279.616 257.131 278.524 256.052 278.524C254.96 278.524 254.219 279.616 254.219 282.346C254.219 285.063 254.96 286.22 256.052 286.22Z" fill="#666666"/>
<g filter="url(#filter1_d_0_1)">
<rect x="45" y="15" width="270" height="88" rx="12.893" fill="#FFF8F7"/>
</g>
<path d="M78.84 47.68H81.5V51.9H78.84V47.68ZM80.18 38.2C84.14 38.2 87.1 40.22 87.1 43.3C87.1 46.42 84.14 48.42 80.18 48.42C76.22 48.42 73.26 46.42 73.26 43.3C73.26 40.22 76.22 38.2 80.18 38.2ZM80.18 40.3C77.64 40.3 75.88 41.42 75.88 43.3C75.88 45.22 77.64 46.32 80.18 46.32C82.72 46.32 84.48 45.22 84.48 43.3C84.48 41.42 82.72 40.3 80.18 40.3ZM71.82 51.48H88.58V53.64H71.82V51.48ZM92.2784 40.96H105.058V43.06H92.2784V40.96ZM90.1984 44.26H106.978V46.36H90.1984V44.26ZM92.2784 37.46H94.9184V42.08H92.2784V37.46ZM92.0984 47.48H104.998V52.4H94.7784V54.04H92.1184V50.52H102.338V49.48H92.0984V47.48ZM92.1184 53.56H105.538V55.58H92.1184V53.56ZM114.557 38.48C117.477 38.48 119.657 40.38 119.657 43.04C119.657 45.72 117.477 47.62 114.557 47.62C111.657 47.62 109.437 45.72 109.437 43.04C109.437 40.38 111.657 38.48 114.557 38.48ZM114.557 40.76C113.137 40.76 112.057 41.6 112.057 43.04C112.057 44.5 113.137 45.34 114.557 45.34C115.977 45.34 117.057 44.5 117.057 43.04C117.057 41.6 115.977 40.76 114.557 40.76ZM121.397 37.24H124.057V55.82H121.397V37.24ZM108.997 52.06L108.677 49.92C111.937 49.92 116.477 49.88 120.377 49.3L120.577 51.22C116.557 52.02 112.197 52.06 108.997 52.06ZM145.287 39.54H148.487V41.7H145.287V39.54ZM145.287 43.56H148.487V45.72H145.287V43.56ZM136.687 38.26C139.547 38.26 141.727 40.14 141.727 42.76C141.727 45.36 139.547 47.24 136.687 47.24C133.827 47.24 131.647 45.36 131.647 42.76C131.647 40.14 133.827 38.26 136.687 38.26ZM136.687 40.48C135.287 40.48 134.247 41.34 134.247 42.76C134.247 44.2 135.287 45.02 136.687 45.02C138.087 45.02 139.127 44.2 139.127 42.76C139.127 41.34 138.087 40.48 136.687 40.48ZM143.447 37.26H146.107V48.06H143.447V37.26ZM140.067 48.46C143.887 48.46 146.327 49.84 146.327 52.12C146.327 54.42 143.887 55.78 140.067 55.78C136.227 55.78 133.787 54.42 133.787 52.12C133.787 49.84 136.227 48.46 140.067 48.46ZM140.067 50.56C137.707 50.56 136.427 51.06 136.427 52.12C136.427 53.2 137.707 53.7 140.067 53.7C142.427 53.7 143.687 53.2 143.687 52.12C143.687 51.06 142.427 50.56 140.067 50.56ZM149.945 51.48H166.705V53.64H149.945V51.48ZM156.985 47.38H159.645V52.08H156.985V47.38ZM156.905 39.68H159.145V40.34C159.145 44.24 156.345 47.34 151.625 48.2L150.585 46.1C154.705 45.46 156.905 42.9 156.905 40.34V39.68ZM157.445 39.68H159.685V40.34C159.685 42.9 161.885 45.38 166.105 46L165.085 48.1C160.285 47.26 157.445 44.24 157.445 40.34V39.68ZM151.325 38.66H165.265V40.78H151.325V38.66ZM175.343 37.36H177.583V37.7C177.583 40.8 174.803 43.24 170.023 43.76L169.143 41.76C173.323 41.34 175.343 39.5 175.343 37.7V37.36ZM175.803 37.36H178.063V37.7C178.063 39.5 180.083 41.34 184.243 41.76L183.363 43.76C178.583 43.24 175.803 40.8 175.803 37.7V37.36ZM175.343 46.14H178.003V48.72H175.343V46.14ZM168.323 44.52H185.063V46.6H168.323V44.52ZM170.243 47.8H183.043V52.6H172.883V54.2H170.263V50.76H180.423V49.78H170.243V47.8ZM170.263 53.66H183.523V55.66H170.263V53.66ZM190.882 38.68H193.042V41.38C193.042 45.96 191.442 50.26 187.942 51.98L186.342 49.84C189.462 48.38 190.882 44.82 190.882 41.38V38.68ZM191.422 38.68H193.542V41.38C193.542 44.7 194.862 48.08 197.822 49.52L196.222 51.64C192.882 49.94 191.422 45.82 191.422 41.38V38.68ZM198.562 37.26H201.242V55.78H198.562V37.26ZM200.642 44.38H203.922V46.6H200.642V44.38ZM210.152 49.28H211.472C213.712 49.28 215.692 49.22 217.992 48.82L218.212 50.96C215.832 51.4 213.792 51.46 211.472 51.46H210.152V49.28ZM210.132 39.08H216.672V46.16H212.732V50.12H210.152V44.08H214.112V41.18H210.132V39.08ZM223.032 37.26H225.552V55.78H223.032V37.26ZM217.432 43.56H220.312V45.74H217.432V43.56ZM219.272 37.6H221.732V54.9H219.272V37.6ZM232.57 38.68H234.73V41.38C234.73 46.14 233.09 50.44 229.41 52.14L227.83 49.94C231.05 48.54 232.57 44.98 232.57 41.38V38.68ZM233.09 38.68H235.25V41.38C235.25 44.8 236.71 48.2 239.87 49.56L238.31 51.7C234.73 50.06 233.09 45.94 233.09 41.38V38.68ZM240.75 37.24H243.43V55.82H240.75V37.24ZM259.208 37.26H261.888V55.78H259.208V37.26ZM246.908 38.96H257.308V41.08H246.908V38.96ZM246.668 51.56L246.408 49.38C249.748 49.38 254.208 49.32 258.028 48.86L258.168 50.8C254.268 51.46 250.008 51.54 246.668 51.56ZM248.508 40.62H251.088V49.96H248.508V40.62ZM253.128 40.62H255.708V49.96H253.128V40.62ZM268.578 55.4H288.578V35.4H268.578V55.4Z" fill="#111111"/>
<path d="M79.697 72.262H80.776V79.243H79.697V72.262ZM80.464 75.317H82.505V76.214H80.464V75.317ZM77.019 79.49C79.398 79.49 80.88 80.335 80.88 81.752C80.88 83.169 79.398 84.001 77.019 84.001C74.64 84.001 73.158 83.169 73.158 81.752C73.158 80.335 74.64 79.49 77.019 79.49ZM77.019 80.374C75.277 80.374 74.211 80.868 74.211 81.752C74.211 82.61 75.277 83.117 77.019 83.117C78.761 83.117 79.827 82.61 79.827 81.752C79.827 80.868 78.761 80.374 77.019 80.374ZM72.17 77.436H73.08C75.511 77.436 76.876 77.358 78.449 77.033L78.579 77.917C76.954 78.242 75.563 78.32 73.08 78.32H72.17V77.436ZM72.17 73.159H77.357V74.043H73.236V78.008H72.17V73.159ZM92.15 72.275H93.242V80.881H92.15V72.275ZM85.689 82.87H93.593V83.754H85.689V82.87ZM85.689 80.088H86.755V83.286H85.689V80.088ZM86.664 72.912H87.561V74.108C87.561 76.396 86.261 78.398 84.285 79.204L83.726 78.333C85.494 77.644 86.664 75.928 86.664 74.108V72.912ZM86.859 72.912H87.743V74.108C87.743 75.876 88.926 77.475 90.681 78.112L90.109 78.983C88.159 78.229 86.859 76.344 86.859 74.108V72.912ZM99.377 73.107C101.21 73.107 102.523 74.238 102.523 75.876C102.523 77.527 101.21 78.658 99.377 78.658C97.544 78.658 96.218 77.527 96.218 75.876C96.218 74.238 97.544 73.107 99.377 73.107ZM99.377 74.043C98.155 74.043 97.271 74.784 97.271 75.876C97.271 76.968 98.155 77.722 99.377 77.722C100.586 77.722 101.47 76.968 101.47 75.876C101.47 74.784 100.586 74.043 99.377 74.043ZM104.057 72.249H105.136V84.027H104.057V72.249ZM95.776 81.453L95.62 80.556C97.765 80.556 100.729 80.543 103.29 80.14L103.381 80.933C100.742 81.44 97.869 81.453 95.776 81.453ZM118.988 72.262H120.067V84.014H118.988V72.262ZM115.543 73.523H116.609C116.609 76.929 115.075 79.906 111.149 81.83L110.577 80.959C113.97 79.321 115.543 76.825 115.543 73.705V73.523ZM111.11 73.523H116.011V74.407H111.11V73.523ZM128.165 75.291H131.363V76.175H128.165V75.291ZM124.213 79.854H132.052V84.027H130.973V80.712H124.213V79.854ZM130.973 72.262H132.052V79.191H130.973V72.262ZM125.591 72.912C127.32 72.912 128.62 74.082 128.62 75.746C128.62 77.41 127.32 78.567 125.591 78.567C123.849 78.567 122.562 77.41 122.562 75.746C122.562 74.082 123.849 72.912 125.591 72.912ZM125.591 73.835C124.447 73.835 123.602 74.628 123.602 75.746C123.602 76.864 124.447 77.644 125.591 77.644C126.722 77.644 127.58 76.864 127.58 75.746C127.58 74.628 126.722 73.835 125.591 73.835ZM139.11 76.825H141.333V77.722H139.11V76.825ZM143.296 72.262H144.336V84.014H143.296V72.262ZM140.969 72.509H141.996V83.429H140.969V72.509ZM136.991 73.237C138.512 73.237 139.5 74.81 139.5 77.332C139.5 79.854 138.512 81.427 136.991 81.427C135.47 81.427 134.495 79.854 134.495 77.332C134.495 74.81 135.47 73.237 136.991 73.237ZM136.991 74.238C136.068 74.238 135.483 75.434 135.483 77.332C135.483 79.23 136.068 80.426 136.991 80.426C137.927 80.426 138.512 79.23 138.512 77.332C138.512 75.434 137.927 74.238 136.991 74.238ZM157.252 72.262H158.331V78.905H157.252V72.262ZM158.045 74.953H160.073V75.85H158.045V74.953ZM150.921 79.542H158.331V83.858H150.921V79.542ZM157.278 80.413H151.987V82.974H157.278V80.413ZM149.777 72.847H150.856V77.553H149.777V72.847ZM149.777 77.111H150.7C152.39 77.111 154.145 76.994 156.069 76.604L156.199 77.488C154.21 77.904 152.455 78.021 150.7 78.021H149.777V77.111ZM166.481 72.457C169.068 72.457 170.615 73.185 170.615 74.498C170.615 75.811 169.068 76.539 166.481 76.539C163.881 76.539 162.347 75.811 162.347 74.498C162.347 73.185 163.881 72.457 166.481 72.457ZM166.481 73.276C164.557 73.276 163.452 73.718 163.452 74.498C163.452 75.278 164.557 75.72 166.481 75.72C168.392 75.72 169.497 75.278 169.497 74.498C169.497 73.718 168.392 73.276 166.481 73.276ZM161.164 77.319H171.785V78.19H161.164V77.319ZM162.451 79.191H170.433V81.843H163.543V83.273H162.477V81.063H169.367V80.023H162.451V79.191ZM162.477 83.039H170.784V83.884H162.477V83.039ZM180.802 72.314H181.712V72.743C181.712 74.745 179.424 76.084 176.98 76.396L176.616 75.564C178.748 75.33 180.802 74.199 180.802 72.743V72.314ZM180.984 72.314H181.894V72.743C181.894 74.199 183.948 75.33 186.08 75.564L185.703 76.396C183.272 76.084 180.984 74.745 180.984 72.743V72.314ZM180.802 77.8H181.868V79.594H180.802V77.8ZM176.031 77.163H186.652V78.034H176.031V77.163ZM177.318 79.191H185.3V81.869H178.41V83.286H177.344V81.089H184.234V80.023H177.318V79.191ZM177.344 83.039H185.651V83.884H177.344V83.039Z" fill="#666666"/>
<g filter="url(#filter2_d_0_1)">
<rect x="28" y="117" width="304" height="88" rx="12.893" fill="#F5FCFF"/>
</g>
<path d="M54.8 148.14H71.54V150.26H54.8V148.14ZM61.82 145.94H64.48V148.76H61.82V145.94ZM56.94 139.68H59.56V141.26H66.78V139.68H69.42V146.7H56.94V139.68ZM59.56 143.24V144.62H66.78V143.24H59.56ZM56.74 151.42H69.54V157.58H56.74V151.42ZM66.94 153.5H59.36V155.48H66.94V153.5ZM82.2497 140.68H84.4097V143.38C84.4097 148.14 82.7697 152.44 79.0897 154.14L77.5097 151.94C80.7297 150.54 82.2497 146.98 82.2497 143.38V140.68ZM82.7697 140.68H84.9297V143.38C84.9297 146.8 86.3897 150.2 89.5497 151.56L87.9897 153.7C84.4097 152.06 82.7697 147.94 82.7697 143.38V140.68ZM90.4297 139.24H93.1097V157.82H90.4297V139.24ZM102.668 141.28H105.028V141.74C105.028 144.7 102.548 147.2 97.8281 147.76L96.8681 145.64C100.888 145.2 102.668 143.38 102.668 141.74V141.28ZM103.968 141.28H106.328V141.74C106.328 143.38 108.128 145.2 112.148 145.64L111.168 147.76C106.468 147.2 103.968 144.7 103.968 141.74V141.28ZM97.6481 140.12H111.368V142.22H97.6481V140.12ZM98.1481 155.34H110.988V157.46H98.1481V155.34ZM98.1481 152H100.808V155.96H98.1481V152ZM96.1281 148.68H112.888V150.8H96.1281V148.68ZM128.738 143.22H132.298V145.34H128.738V143.22ZM125.918 140.06H128.698C128.698 145.06 126.258 147.98 120.338 149.36L119.378 147.34C124.458 146.24 125.918 144.1 125.918 141.38V140.06ZM120.398 140.06H127.838V142.1H120.398V140.06ZM126.458 143.14V144.88L119.838 145.36L119.478 143.36L126.458 143.14ZM131.898 139.26H134.558V148.6H131.898V139.26ZM122.318 149.32H134.558V154.36H124.978V156.64H122.358V152.44H131.918V151.38H122.318V149.32ZM122.358 155.52H134.938V157.58H122.358V155.52ZM140.616 151.54H153.236V157.78H150.596V153.66H140.616V151.54ZM138.196 148.04H139.476C142.116 148.04 143.816 147.98 145.856 147.62L146.096 149.7C144.016 150.08 142.196 150.12 139.476 150.12H138.196V148.04ZM138.176 140.62H144.696V146.26H140.776V149.42H138.196V144.34H142.136V142.7H138.176V140.62ZM150.716 139.26H153.236V150.78H150.716V139.26ZM145.336 143.64H148.816V145.78H145.336V143.64ZM146.996 139.62H149.476V150.7H146.996V139.62ZM165.635 141.66H169.315V143.8H165.635V141.66ZM165.635 145.24H169.315V147.36H165.635V145.24ZM160.095 140.32H162.235V142.44C162.235 146.28 160.675 149.6 157.175 150.9L155.755 148.82C158.815 147.74 160.095 145.14 160.095 142.44V140.32ZM160.655 140.32H162.795V142.44C162.795 144.98 163.995 147.52 166.915 148.62L165.455 150.68C162.175 149.38 160.655 146.12 160.655 142.44V140.32ZM168.695 139.28H171.355V152.98H168.695V139.28ZM159.095 155.34H171.755V157.46H159.095V155.34ZM159.095 151.72H161.775V156.68H159.095V151.72ZM177.984 157.4H197.984V137.4H177.984V157.4Z" fill="#111111"/>
<path d="M57.757 175.939H58.628V177.85C58.628 180.333 57.133 182.829 55.261 183.752L54.637 182.894C56.34 182.088 57.757 179.878 57.757 177.85V175.939ZM57.965 175.939H58.836V177.85C58.836 179.839 60.253 181.867 61.982 182.608L61.371 183.466C59.473 182.582 57.965 180.294 57.965 177.85V175.939ZM55.027 175.458H61.592V176.368H55.027V175.458ZM63.178 174.262H64.257V186.014H63.178V174.262ZM67.961 174.873H75.527V175.757H67.961V174.873ZM66.609 179.202H77.256V180.086H66.609V179.202ZM74.825 174.873H75.878V175.744C75.878 176.745 75.878 177.889 75.488 179.514L74.435 179.462C74.825 177.85 74.825 176.719 74.825 175.744V174.873ZM67.909 181.685H75.917V185.858H67.909V181.685ZM74.864 182.543H68.962V184.987H74.864V182.543ZM79.049 175.315H84.444V180.762H79.049V175.315ZM83.391 176.186H80.102V179.891H83.391V176.186ZM86.602 174.249H87.681V182.868H86.602V174.249ZM87.343 177.837H89.423V178.734H87.343V177.837ZM80.362 184.87H88.214V185.754H80.362V184.87ZM80.362 182.049H81.441V185.247H80.362V182.049ZM93.9152 175.315H99.3102V180.762H93.9152V175.315ZM98.2572 176.186H94.9682V179.891H98.2572V176.186ZM101.468 174.249H102.547V182.868H101.468V174.249ZM102.209 177.837H104.289V178.734H102.209V177.837ZM95.2282 184.87H103.08V185.754H95.2282V184.87ZM95.2282 182.049H96.3072V185.247H95.2282V182.049ZM114.129 178.942H116.3V179.852H114.129V178.942ZM113.336 174.249H114.428V186.014H113.336V174.249ZM105.848 175.406H106.927V182.686H105.848V175.406ZM105.848 182.127H106.784C108.526 182.127 110.307 182.01 112.244 181.607L112.374 182.504C110.372 182.92 108.565 183.037 106.784 183.037H105.848V182.127ZM118.756 174.444H119.822V175.536H125.503V174.444H126.582V178.318H118.756V174.444ZM119.822 176.368V177.486H125.503V176.368H119.822ZM117.339 179.449H127.96V180.32H117.339V179.449ZM122.11 177.928H123.176V179.722H122.11V177.928ZM118.626 181.295H126.608V183.908H119.718V185.364H118.652V183.128H125.542V182.114H118.626V181.295ZM118.652 185.052H126.959V185.884H118.652V185.052ZM136.963 174.678H137.912V175.328C137.912 177.577 135.624 179.189 133.18 179.605L132.751 178.734C134.896 178.409 136.963 177.005 136.963 175.328V174.678ZM137.158 174.678H138.094V175.328C138.094 176.966 140.187 178.409 142.306 178.734L141.877 179.605C139.459 179.189 137.158 177.551 137.158 175.328V174.678ZM136.963 181.542H138.029V186.014H136.963V181.542ZM132.218 180.879H142.839V181.776H132.218V180.879ZM150.01 181.49H150.842V182.127C150.842 183.661 149.88 185.208 148.19 185.858L147.644 185.052C149.126 184.519 150.01 183.258 150.01 182.127V181.49ZM150.244 181.49H151.05V182.127C151.05 183.31 151.752 184.571 153.156 185.143L152.701 185.962C151.011 185.299 150.244 183.687 150.244 182.127V181.49ZM154.352 181.49H155.158V182.127C155.158 183.505 154.378 185.247 152.701 185.962L152.246 185.143C153.637 184.506 154.352 183.141 154.352 182.127V181.49ZM154.573 181.49H155.405V182.127C155.405 183.336 156.276 184.545 157.771 185.052L157.225 185.858C155.509 185.234 154.573 183.752 154.573 182.127V181.49ZM155.626 174.275H156.718V180.983H155.626V174.275ZM150.413 174.951C152.194 174.951 153.468 176.069 153.468 177.694C153.468 179.319 152.194 180.424 150.413 180.424C148.632 180.424 147.345 179.319 147.345 177.694C147.345 176.069 148.632 174.951 150.413 174.951ZM150.413 175.848C149.243 175.848 148.398 176.602 148.398 177.694C148.398 178.786 149.243 179.527 150.413 179.527C151.583 179.527 152.428 178.786 152.428 177.694C152.428 176.602 151.583 175.848 150.413 175.848ZM160.474 177.785H168.456V178.669H160.474V177.785ZM159.031 180.242H169.691V181.126H159.031V180.242ZM160.474 174.691H161.54V178.227H160.474V174.691ZM160.396 184.844H168.521V185.728H160.396V184.844ZM160.396 182.296H161.462V185.078H160.396V182.296ZM181.944 174.275H183.023V183.089H181.944V174.275ZM182.685 178.123H184.765V179.033H182.685V178.123ZM173.936 175.692H180.878V176.563H173.936V175.692ZM177.407 177.213C179.071 177.213 180.215 178.084 180.215 179.41C180.215 180.723 179.071 181.594 177.407 181.594C175.73 181.594 174.586 180.723 174.586 179.41C174.586 178.084 175.73 177.213 177.407 177.213ZM177.407 178.058C176.341 178.058 175.613 178.591 175.613 179.41C175.613 180.216 176.341 180.749 177.407 180.749C178.46 180.749 179.188 180.216 179.188 179.41C179.188 178.591 178.46 178.058 177.407 178.058ZM176.861 174.262H177.94V176.147H176.861V174.262ZM175.704 184.87H183.556V185.754H175.704V184.87ZM175.704 182.387H176.783V185.247H175.704V182.387ZM192.135 177.304H194.787V178.201H192.135V177.304ZM194.449 174.262H195.528V181.269H194.449V174.262ZM191.667 181.62C194.085 181.62 195.58 182.439 195.58 183.817C195.58 185.208 194.085 186.001 191.667 186.001C189.236 186.001 187.741 185.208 187.741 183.817C187.741 182.439 189.236 181.62 191.667 181.62ZM191.667 182.465C189.899 182.465 188.82 182.959 188.82 183.817C188.82 184.662 189.899 185.156 191.667 185.156C193.435 185.156 194.514 184.662 194.514 183.817C194.514 182.959 193.435 182.465 191.667 182.465ZM188.859 175.445H189.743V176.394C189.743 178.565 188.417 180.424 186.467 181.152L185.908 180.294C187.65 179.657 188.859 178.084 188.859 176.394V175.445ZM189.067 175.445H189.938V176.394C189.938 177.915 191.082 179.371 192.785 179.969L192.239 180.827C190.328 180.138 189.067 178.37 189.067 176.394V175.445ZM186.233 175.12H192.512V176.004H186.233V175.12ZM205.441 175.419H206.377V175.913C206.377 178.019 204.141 179.566 201.775 179.969L201.359 179.111C203.426 178.812 205.441 177.46 205.441 175.913V175.419ZM205.714 175.419H206.637V175.913C206.637 177.46 208.665 178.812 210.719 179.111L210.316 179.969C207.937 179.566 205.714 178.019 205.714 175.913V175.419ZM205.48 181.529H206.546V186.014H205.48V181.529ZM200.735 180.957H211.356V181.841H200.735V180.957ZM201.723 174.99H210.329V175.861H201.723V174.99ZM212.681 181.256H223.341V182.14H212.681V181.256ZM215.437 181.737H216.529V186.014H215.437V181.737ZM219.48 181.737H220.559V186.014H219.48V181.737ZM213.955 174.717H222.041V177.746H215.073V179.761H213.981V176.914H220.962V175.588H213.955V174.717ZM213.981 179.189H222.314V180.06H213.981V179.189ZM224.965 187.47L224.692 186.781C225.498 186.417 225.992 185.767 225.992 184.974L225.862 183.908L226.434 184.766C226.278 184.961 226.07 185.026 225.836 185.026C225.381 185.026 224.978 184.727 224.978 184.194C224.978 183.674 225.381 183.362 225.862 183.362C226.486 183.362 226.863 183.895 226.863 184.753C226.863 186.014 226.148 186.989 224.965 187.47ZM232.153 181.438H240.811V182.283H232.153V181.438ZM232.621 177.005H240.616V177.863H232.621V177.005ZM231.165 179.046H241.825V179.904H231.165V179.046ZM232.621 174.431H233.687V177.473H232.621V174.431ZM235.975 177.343H237.054V179.462H235.975V177.343ZM236.482 182.816C238.731 182.816 240.005 183.362 240.005 184.415C240.005 185.455 238.731 185.988 236.482 185.988C234.22 185.988 232.946 185.455 232.946 184.415C232.946 183.362 234.22 182.816 236.482 182.816ZM236.482 183.583C234.948 183.583 234.064 183.856 234.064 184.415C234.064 184.961 234.948 185.234 236.482 185.234C238.016 185.234 238.887 184.961 238.887 184.415C238.887 183.856 238.016 183.583 236.482 183.583ZM235.949 180.359H237.015V181.984H235.949V180.359ZM251.678 174.262H252.757V186.014H251.678V174.262ZM246.387 177.057H247.258V178.058C247.258 180.567 245.841 182.842 243.956 183.752L243.345 182.92C245.087 182.114 246.387 180.112 246.387 178.058V177.057ZM246.595 177.057H247.453V178.058C247.453 180.021 248.792 181.932 250.547 182.699L249.936 183.544C248.038 182.686 246.595 180.489 246.595 178.058V177.057ZM243.67 176.303H250.144V177.174H243.67V176.303ZM246.387 174.47H247.466V176.784H246.387V174.47ZM258.203 175.939H259.074V177.85C259.074 180.333 257.579 182.829 255.707 183.752L255.083 182.894C256.786 182.088 258.203 179.878 258.203 177.85V175.939ZM258.411 175.939H259.282V177.85C259.282 179.839 260.699 181.867 262.428 182.608L261.817 183.466C259.919 182.582 258.411 180.294 258.411 177.85V175.939ZM255.473 175.458H262.038V176.368H255.473V175.458ZM263.624 174.262H264.703V186.014H263.624V174.262ZM270.418 175.432H275.812V183.037H270.418V175.432ZM274.76 176.303H271.471V182.166H274.76V176.303ZM277.906 174.262H278.998V186.014H277.906V174.262ZM278.738 178.955H280.922V179.865H278.738V178.955ZM286.549 178.461H288.798V179.358H286.549V178.461ZM284.352 175.367H285.197V177.603C285.197 180.06 284.17 182.439 282.454 183.492L281.778 182.673C283.39 181.724 284.352 179.618 284.352 177.603V175.367ZM284.56 175.367H285.392V177.564C285.392 179.449 286.276 181.451 287.823 182.387L287.199 183.232C285.509 182.192 284.56 179.852 284.56 177.564V175.367ZM290.865 174.262H291.905V186.014H290.865V174.262ZM288.486 174.509H289.5V185.429H288.486V174.509ZM296.48 180.307H297.546V183.83H296.48V180.307ZM300.822 180.307H301.901V183.83H300.822V180.307ZM293.88 183.622H304.527V184.519H293.88V183.622ZM299.184 175.003C301.667 175.003 303.448 176.186 303.448 178.032C303.448 179.865 301.667 181.048 299.184 181.048C296.688 181.048 294.907 179.865 294.907 178.032C294.907 176.186 296.688 175.003 299.184 175.003ZM299.184 175.861C297.299 175.861 295.947 176.719 295.947 178.032C295.947 179.332 297.299 180.19 299.184 180.19C301.069 180.19 302.408 179.332 302.408 178.032C302.408 176.719 301.069 175.861 299.184 175.861Z" fill="#666666"/>
<defs>
<filter id="filter0_d_0_1" x="0.77" y="219" width="357.46" height="152.46" filterUnits="userSpaceOnUse" color-interpolation-filters="sRGB">
<feFlood flood-opacity="0" result="BackgroundImageFix"/>
<feColorMatrix in="SourceAlpha" type="matrix" values="0 0 0 0 0 0 0 0 0 0 0 0 0 0 0 0 0 0 127 0" result="hardAlpha"/>
<feOffset dy="32.23"/>
<feGaussianBlur stdDeviation="16.115"/>
<feComposite in2="hardAlpha" operator="out"/>
<feColorMatrix type="matrix" values="0 0 0 0 0 0 0 0 0 0 0 0 0 0 0 0 0 0 0.12 0"/>
<feBlend mode="normal" in2="BackgroundImageFix" result="effect1_dropShadow_0_1"/>
<feBlend mode="normal" in="SourceGraphic" in2="effect1_dropShadow_0_1" result="shape"/>
</filter>
<filter id="filter1_d_0_1" x="20" y="0" width="320" height="138" filterUnits="userSpaceOnUse" color-interpolation-filters="sRGB">
<feFlood flood-opacity="0" result="BackgroundImageFix"/>
<feColorMatrix in="SourceAlpha" type="matrix" values="0 0 0 0 0 0 0 0 0 0 0 0 0 0 0 0 0 0 127 0" result="hardAlpha"/>
<feOffset dy="10"/>
<feGaussianBlur stdDeviation="12.5"/>
<feComposite in2="hardAlpha" operator="out"/>
<feColorMatrix type="matrix" values="0 0 0 0 0 0 0 0 0 0 0 0 0 0 0 0 0 0 0.12 0"/>
<feBlend mode="normal" in2="BackgroundImageFix" result="effect1_dropShadow_0_1"/>
<feBlend mode="normal" in="SourceGraphic" in2="effect1_dropShadow_0_1" result="shape"/>
</filter>
<filter id="filter2_d_0_1" x="3" y="102" width="354" height="138" filterUnits="userSpaceOnUse" color-interpolation-filters="sRGB">
<feFlood flood-opacity="0" result="BackgroundImageFix"/>
<feColorMatrix in="SourceAlpha" type="matrix" values="0 0 0 0 0 0 0 0 0 0 0 0 0 0 0 0 0 0 127 0" result="hardAlpha"/>
<feOffset dy="10"/>
<feGaussianBlur stdDeviation="12.5"/>
<feComposite in2="hardAlpha" operator="out"/>
<feColorMatrix type="matrix" values="0 0 0 0 0 0 0 0 0 0 0 0 0 0 0 0 0 0 0.12 0"/>
<feBlend mode="normal" in2="BackgroundImageFix" result="effect1_dropShadow_0_1"/>
<feBlend mode="normal" in="SourceGraphic" in2="effect1_dropShadow_0_1" result="shape"/>
</filter>
</defs>
</svg>
