<svg width="477" height="717" viewBox="0 0 477 717" fill="none" xmlns="http://www.w3.org/2000/svg" xmlns:xlink="http://www.w3.org/1999/xlink">
<g clip-path="url(#clip0_1084_474568)">
<path d="M51 40C51 17.9086 68.9086 0 91 0H386C408.091 0 426 17.9086 426 40V717H51V40Z" fill="white"/>
<path d="M83.56 100.54H86.76V102.7H83.56V100.54ZM83.56 104.56H86.76V106.72H83.56V104.56ZM74.96 99.26C77.82 99.26 80 101.14 80 103.76C80 106.36 77.82 108.24 74.96 108.24C72.1 108.24 69.92 106.36 69.92 103.76C69.92 101.14 72.1 99.26 74.96 99.26ZM74.96 101.48C73.56 101.48 72.52 102.34 72.52 103.76C72.52 105.2 73.56 106.02 74.96 106.02C76.36 106.02 77.4 105.2 77.4 103.76C77.4 102.34 76.36 101.48 74.96 101.48ZM81.72 98.26H84.38V109.06H81.72V98.26ZM78.34 109.46C82.16 109.46 84.6 110.84 84.6 113.12C84.6 115.42 82.16 116.78 78.34 116.78C74.5 116.78 72.06 115.42 72.06 113.12C72.06 110.84 74.5 109.46 78.34 109.46ZM78.34 111.56C75.98 111.56 74.7 112.06 74.7 113.12C74.7 114.2 75.98 114.7 78.34 114.7C80.7 114.7 81.96 114.2 81.96 113.12C81.96 112.06 80.7 111.56 78.34 111.56ZM88.2184 112.48H104.978V114.64H88.2184V112.48ZM95.2584 108.38H97.9184V113.08H95.2584V108.38ZM95.1784 100.68H97.4184V101.34C97.4184 105.24 94.6184 108.34 89.8984 109.2L88.8584 107.1C92.9784 106.46 95.1784 103.9 95.1784 101.34V100.68ZM95.7184 100.68H97.9584V101.34C97.9584 103.9 100.158 106.38 104.378 107L103.358 109.1C98.5584 108.26 95.7184 105.24 95.7184 101.34V100.68ZM89.5984 99.66H103.538V101.78H89.5984V99.66ZM113.617 98.36H115.857V98.7C115.857 101.8 113.077 104.24 108.297 104.76L107.417 102.76C111.597 102.34 113.617 100.5 113.617 98.7V98.36ZM114.077 98.36H116.337V98.7C116.337 100.5 118.357 102.34 122.517 102.76L121.637 104.76C116.857 104.24 114.077 101.8 114.077 98.7V98.36ZM113.617 107.14H116.277V109.72H113.617V107.14ZM106.597 105.52H123.337V107.6H106.597V105.52ZM108.517 108.8H121.317V113.6H111.157V115.2H108.537V111.76H118.697V110.78H108.517V108.8ZM108.537 114.66H121.797V116.66H108.537V114.66ZM129.155 99.68H131.315V102.38C131.315 106.96 129.715 111.26 126.215 112.98L124.615 110.84C127.735 109.38 129.155 105.82 129.155 102.38V99.68ZM129.695 99.68H131.815V102.38C131.815 105.7 133.135 109.08 136.095 110.52L134.495 112.64C131.155 110.94 129.695 106.82 129.695 102.38V99.68ZM136.835 98.26H139.515V116.78H136.835V98.26ZM138.915 105.38H142.195V107.6H138.915V105.38ZM143.394 106.56H160.174V108.5H143.394V106.56ZM145.274 109.42H158.174V113.82H147.954V115.4H145.314V112.14H155.554V111.22H145.274V109.42ZM145.314 114.84H158.694V116.64H145.314V114.84ZM145.454 98.58H158.134V102.94H148.114V104.46H145.474V101.28H155.514V100.36H145.454V98.58ZM145.474 103.9H158.474V105.7H145.474V103.9ZM172.323 99C175.143 99 177.183 100.62 177.183 102.96C177.183 105.26 175.143 106.92 172.323 106.92C169.523 106.92 167.483 105.26 167.483 102.96C167.483 100.62 169.523 99 172.323 99ZM172.323 101.16C170.983 101.16 170.023 101.8 170.023 102.96C170.023 104.1 170.983 104.74 172.323 104.74C173.683 104.74 174.643 104.1 174.643 102.96C174.643 101.8 173.683 101.16 172.323 101.16ZM171.083 108.76H173.743V116.22H171.083V108.76ZM179.183 98.26H181.823V116.78H179.183V98.26ZM166.703 110.16L166.383 108C169.623 108 174.203 107.96 178.123 107.36L178.303 109.3C174.283 110.1 169.903 110.14 166.703 110.16ZM196.642 98.28H199.302V112.12H196.642V98.28ZM198.542 103.92H201.762V106.1H198.542V103.92ZM184.722 100.2H195.622V102.28H184.722V100.2ZM190.182 102.94C192.842 102.94 194.722 104.4 194.722 106.52C194.722 108.64 192.842 110.08 190.182 110.08C187.502 110.08 185.622 108.64 185.622 106.52C185.622 104.4 187.502 102.94 190.182 102.94ZM190.182 104.96C189.002 104.96 188.182 105.52 188.182 106.52C188.182 107.52 189.002 108.06 190.182 108.06C191.362 108.06 192.182 107.52 192.182 106.52C192.182 105.52 191.362 104.96 190.182 104.96ZM188.842 98.24H191.502V101.22H188.842V98.24ZM187.362 114.34H199.962V116.46H187.362V114.34ZM187.362 111.08H190.022V115.26H187.362V111.08ZM217.572 103.04H221.892V105.18H217.572V103.04ZM220.492 98.28H223.152V111.78H220.492V98.28ZM210.932 114.34H223.572V116.46H210.932V114.34ZM210.932 110.64H213.592V115.6H210.932V110.64ZM211.932 100.7H214.092V101.86C214.092 105.34 212.452 108.56 208.892 109.74L207.552 107.62C210.612 106.62 211.932 104.2 211.932 101.86V100.7ZM212.492 100.7H214.632V101.86C214.632 104.02 215.892 106.32 218.812 107.3L217.512 109.38C214.072 108.24 212.492 105.16 212.492 101.86V100.7ZM208.272 99.52H218.232V101.62H208.272V99.52ZM226.03 107.8H242.79V109.88H226.03V107.8ZM233.07 105.82H235.73V108.56H233.07V105.82ZM228.11 104.66H241.01V106.68H228.11V104.66ZM228.11 98.72H240.87V100.74H230.75V105.8H228.11V98.72ZM230.01 101.72H240.45V103.66H230.01V101.72ZM234.39 110.7C238.45 110.7 240.81 111.78 240.81 113.74C240.81 115.72 238.45 116.78 234.39 116.78C230.31 116.78 227.95 115.72 227.95 113.74C227.95 111.78 230.31 110.7 234.39 110.7ZM234.39 112.66C231.81 112.66 230.63 112.98 230.63 113.74C230.63 114.52 231.81 114.84 234.39 114.84C236.95 114.84 238.13 114.52 238.13 113.74C238.13 112.98 236.95 112.66 234.39 112.66ZM251.308 100.32H253.608V100.86C253.608 104.12 250.948 106.78 246.248 107.42L245.268 105.34C249.348 104.84 251.308 102.76 251.308 100.86V100.32ZM252.068 100.32H254.368V100.86C254.368 102.76 256.328 104.84 260.408 105.34L259.448 107.42C254.728 106.78 252.068 104.12 252.068 100.86V100.32ZM251.448 110H254.088V116.8H251.448V110ZM244.468 108.48H261.208V110.6H244.468V108.48ZM245.948 99.2H259.688V101.3H245.948V99.2ZM266.578 116.4H286.578V96.4H266.578V116.4Z" fill="#111111"/>
<path d="M73.7354 137.696V139.766C74.8208 139.721 75.9316 139.626 76.9727 139.474L77.0488 140.21C74.4717 140.68 71.6914 140.692 69.6602 140.692L69.5205 139.867C70.4663 139.861 71.5835 139.854 72.7578 139.816V137.696H73.7354ZM76.3887 133.228V134.053H73.7354C73.7607 135.513 74.9731 136.7 76.6426 137.176L76.1729 137.963C74.8145 137.557 73.7544 136.687 73.2529 135.538C72.7578 136.75 71.7041 137.652 70.3457 138.064L69.8633 137.303C71.5327 136.814 72.707 135.576 72.7324 134.053H70.1426V133.228H72.7578V131.831H73.7354V133.228H76.3887ZM78.7119 131.742V143.054H77.7217V131.742H78.7119ZM89.668 132.428V133.304C89.668 134.25 89.668 135.398 89.376 136.935H91.0264V137.772H80.6924V136.935H88.373C88.6777 135.373 88.6777 134.269 88.6777 133.304V133.24H82V132.428H89.668ZM90.0107 141.937V142.774H82.0635V139.042H83.0537V141.937H90.0107ZM104.509 131.755V140.007H103.519V131.755H104.509ZM104.864 141.949V142.787H97.2217V139.169H98.2119V141.949H104.864ZM98.415 132.542C100.104 132.542 101.373 133.685 101.373 135.31C101.373 136.96 100.104 138.09 98.415 138.09C96.7266 138.09 95.457 136.96 95.457 135.31C95.457 133.685 96.7266 132.542 98.415 132.542ZM98.415 133.418C97.2725 133.418 96.4219 134.205 96.4346 135.31C96.4219 136.439 97.2725 137.214 98.415 137.214C99.5322 137.214 100.396 136.439 100.396 135.31C100.396 134.205 99.5322 133.418 98.415 133.418ZM115.757 131.742V143.028H114.754V131.742H115.757ZM112.418 132.974C112.405 136.224 110.895 139.093 107.111 140.908L106.565 140.096C109.619 138.648 111.174 136.484 111.402 133.786H107.086V132.974H112.418ZM126.396 131.742V136.338H128.224V137.176H126.396V143.028H125.405V131.742H126.396ZM123.476 132.961C123.476 136.16 121.978 139.067 118.296 140.883L117.737 140.096C120.657 138.642 122.244 136.471 122.473 133.799H118.258V132.961H123.476ZM140.982 131.742V134.294H142.684V135.132H140.982V137.531H139.992V131.742H140.982ZM137.859 132.491V137.087H132.642V132.491H137.859ZM133.619 133.304V136.287H136.895V133.304H133.619ZM134.33 138.547V141.898C134.984 141.879 135.854 141.784 136.653 141.518L136.806 142.317C135.701 142.686 134.635 142.724 133.898 142.724H133.365V138.547H134.33ZM142.112 138.661V139.423H136.412V138.661H138.786V137.658H139.764V138.661H142.112ZM139.256 139.829C140.487 139.842 141.363 140.438 141.376 141.416C141.363 142.394 140.487 143.003 139.256 143.003C138.012 143.003 137.148 142.394 137.161 141.416C137.148 140.438 138.012 139.842 139.256 139.829ZM139.256 140.54C138.558 140.54 138.05 140.883 138.05 141.416C138.05 141.949 138.558 142.305 139.256 142.292C139.967 142.305 140.462 141.949 140.462 141.416C140.462 140.883 139.967 140.54 139.256 140.54ZM153.678 137.696V138.509H143.395V137.696H153.678ZM152.535 141.949V142.787H144.728V139.499H145.73V141.949H152.535ZM148.536 132.148C150.961 132.136 152.522 132.974 152.522 134.383C152.522 135.792 150.961 136.63 148.536 136.63C146.086 136.63 144.537 135.792 144.537 134.383C144.537 132.974 146.086 132.136 148.536 132.148ZM148.536 132.948C146.721 132.948 145.553 133.494 145.565 134.383C145.553 135.271 146.721 135.817 148.536 135.817C150.339 135.817 151.507 135.271 151.507 134.383C151.507 133.494 150.339 132.948 148.536 132.948ZM161.663 133.57C161.663 135.106 162.831 136.516 164.469 137.074L163.923 137.861C162.672 137.404 161.688 136.471 161.193 135.297C160.711 136.624 159.708 137.671 158.388 138.179L157.854 137.379C159.543 136.744 160.673 135.233 160.686 133.494V132.326H161.663V133.57ZM166.716 131.742V134.688H168.417V135.525H166.716V138.61H165.726V131.742H166.716ZM163.098 138.902C165.421 138.902 166.817 139.651 166.817 140.946C166.817 142.267 165.421 143.003 163.098 143.003C160.774 143.003 159.353 142.267 159.353 140.946C159.353 139.651 160.774 138.902 163.098 138.902ZM163.098 139.702C161.396 139.702 160.343 140.172 160.355 140.946C160.343 141.746 161.396 142.203 163.098 142.216C164.812 142.203 165.853 141.746 165.853 140.946C165.853 140.172 164.812 139.702 163.098 139.702ZM179.411 137.201V138.026H174.752V139.359H178.154V142.876H170.385V139.359H173.774V138.026H169.128V137.201H179.411ZM178.434 132.11V132.936H176.694V135.31H178.396V136.135H170.131V135.31H171.832V132.936H170.093V132.11H178.434ZM171.375 140.146V142.063H177.177V140.146H171.375ZM172.822 135.31H175.704V132.936H172.822V135.31ZM189.669 131.742V143.054H188.666V131.742H189.669ZM183.664 132.618C185.34 132.631 186.546 134.154 186.546 136.554C186.546 138.953 185.34 140.477 183.664 140.477C181.976 140.477 180.782 138.953 180.782 136.554C180.782 134.154 181.976 132.631 183.664 132.618ZM183.664 133.507C182.534 133.52 181.747 134.713 181.747 136.554C181.747 138.395 182.534 139.588 183.664 139.588C184.794 139.588 185.581 138.395 185.581 136.554C185.581 134.713 184.794 133.52 183.664 133.507ZM201.272 131.742V143.028H200.308V131.742H201.272ZM199 131.983V142.457H198.048V136.973H196.601C196.493 139.169 195.56 140.54 194.163 140.54C192.69 140.54 191.738 139.017 191.738 136.617C191.738 134.218 192.69 132.694 194.163 132.694C195.534 132.694 196.461 134.021 196.588 136.147H198.048V131.983H199ZM194.163 133.634C193.249 133.634 192.665 134.776 192.678 136.617C192.665 138.445 193.249 139.601 194.163 139.588C195.077 139.601 195.661 138.445 195.661 136.617C195.661 134.776 195.077 133.634 194.163 133.634ZM213.168 140.743V141.581H202.834V140.743H205.398V137.696C204.434 137.195 203.85 136.382 203.85 135.36C203.85 133.608 205.563 132.466 207.976 132.453C210.388 132.466 212.102 133.608 212.102 135.36C212.102 136.363 211.537 137.169 210.604 137.671V140.743H213.168ZM207.976 133.278C206.122 133.266 204.814 134.104 204.814 135.36C204.814 136.617 206.122 137.468 207.976 137.468C209.816 137.468 211.137 136.617 211.137 135.36C211.137 134.104 209.816 133.266 207.976 133.278ZM206.376 140.743H209.601V138.052C209.112 138.185 208.566 138.255 207.976 138.255C207.398 138.255 206.858 138.191 206.376 138.064V140.743Z" fill="#666666"/>
<rect x="242" y="233" width="168" height="197" rx="8" fill="url(#pattern0_1084_474568)"/>
<g filter="url(#filter0_d_1084_474568)">
<path d="M395.001 403.344C395.981 403.344 396.901 403.724 397.591 404.414C399.021 405.844 399.021 408.164 397.591 409.584L396.591 410.584L393.591 413.584L390.001 417.174L386.411 413.584L382.411 409.584C380.981 408.154 380.981 405.834 382.411 404.414C383.101 403.724 384.021 403.344 385.001 403.344C385.981 403.344 386.901 403.724 387.591 404.414L388.591 405.414L390.001 406.824L391.411 405.414L392.411 404.414C393.101 403.724 394.021 403.344 395.001 403.344ZM395.001 401.344C393.551 401.344 392.101 401.894 391.001 403.004L390.001 404.004L389.001 403.004C387.901 401.904 386.451 401.344 385.001 401.344C383.551 401.344 382.101 401.894 381.001 403.004C378.791 405.214 378.791 408.794 381.001 411.004L385.001 415.004L390.001 420.004L395.001 415.004L398.001 412.004L399.001 411.004C401.211 408.794 401.211 405.214 399.001 403.004C397.901 401.904 396.451 401.344 395.001 401.344Z" fill="white"/>
</g>
<path d="M251.223 445.648H249.922V444.477H247.402V443.422H249.922V442.285H247.502C247.17 443.125 246.623 443.84 245.861 444.43C245.104 445.016 244.145 445.469 242.984 445.789L242.457 444.758C243.676 444.426 244.621 443.959 245.293 443.357C245.965 442.756 246.354 442.055 246.459 441.254H243.02V440.199H247.883C247.883 440.578 247.852 440.93 247.789 441.254H249.922V439.461H251.223V445.648ZM247.719 445.766C248.43 445.766 249.055 445.852 249.594 446.023C250.133 446.195 250.551 446.439 250.848 446.756C251.145 447.072 251.293 447.445 251.293 447.875C251.293 448.305 251.145 448.678 250.848 448.994C250.551 449.311 250.133 449.555 249.594 449.727C249.055 449.898 248.43 449.984 247.719 449.984C247 449.984 246.369 449.898 245.826 449.727C245.283 449.555 244.863 449.311 244.566 448.994C244.27 448.678 244.121 448.305 244.121 447.875C244.121 447.445 244.27 447.072 244.566 446.756C244.863 446.439 245.283 446.195 245.826 446.023C246.369 445.852 247 445.766 247.719 445.766ZM247.719 446.785C246.996 446.785 246.432 446.881 246.025 447.072C245.623 447.26 245.422 447.527 245.422 447.875C245.422 448.219 245.625 448.484 246.031 448.672C246.438 448.859 247 448.953 247.719 448.953C248.422 448.953 248.977 448.859 249.383 448.672C249.789 448.484 249.992 448.219 249.992 447.875C249.992 447.527 249.789 447.26 249.383 447.072C248.98 446.881 248.426 446.785 247.719 446.785ZM262.379 446.41H258.172V450.031H256.883V446.41H252.723V445.355H262.379V446.41ZM261.488 441.078H258.307C258.334 441.465 258.5 441.838 258.805 442.197C259.109 442.553 259.527 442.857 260.059 443.111C260.59 443.365 261.195 443.535 261.875 443.621L261.406 444.641C260.508 444.516 259.721 444.258 259.045 443.867C258.373 443.477 257.875 442.992 257.551 442.414C257.227 442.988 256.729 443.473 256.057 443.867C255.385 444.258 254.605 444.516 253.719 444.641L253.227 443.621C253.902 443.535 254.504 443.365 255.031 443.111C255.562 442.857 255.98 442.553 256.285 442.197C256.594 441.838 256.764 441.465 256.795 441.078H253.613V440.047H261.488V441.078ZM271.32 445.062H266.305V440.223H271.32V445.062ZM267.582 444.031H270.043V441.254H267.582V444.031ZM274.297 442.062H275.773V443.129H274.297V445.73H272.996V439.449H274.297V442.062ZM274.297 450.055H272.996V447.266H267.242V446.223H274.297V450.055ZM285.184 444.805H283.883V442.871H281.832V441.805H283.883V439.449H285.184V444.805ZM281.715 439.883C281.719 441.223 281.309 442.326 280.484 443.193C279.664 444.061 278.469 444.684 276.898 445.062L276.453 444.02C277.629 443.754 278.541 443.355 279.189 442.824C279.838 442.293 280.213 441.664 280.314 440.938H277.039V439.883H281.715ZM285.184 448.016H279.523V448.895H285.465V449.938H278.223V447.043H283.883V446.258H278.211V445.227H285.184V448.016ZM295.508 450.055H294.219V439.449H295.508V450.055ZM292.25 444.348H288.605V446.48C289.5 446.473 290.32 446.441 291.066 446.387C291.816 446.332 292.582 446.238 293.363 446.105L293.48 447.172C292.641 447.32 291.814 447.42 291.002 447.471C290.189 447.521 289.254 447.547 288.195 447.547H287.27V443.316H290.926V441.43H287.258V440.375H292.25V444.348Z" fill="#444444"/>
<path d="M251.059 463.801H250.133V462.395H247.367V461.633H250.133V460.227H247.467C247.131 461.055 246.576 461.77 245.803 462.371C245.029 462.973 244.078 463.441 242.949 463.777L242.562 463.051C243.402 462.801 244.131 462.482 244.748 462.096C245.365 461.705 245.852 461.256 246.207 460.748C246.562 460.24 246.771 459.688 246.834 459.09H243.09V458.316H247.836C247.836 458.719 247.791 459.109 247.701 459.488H250.133V457.543H251.059V463.801ZM247.648 463.906C248.348 463.906 248.959 463.986 249.482 464.146C250.006 464.307 250.408 464.537 250.689 464.838C250.975 465.135 251.117 465.488 251.117 465.898C251.117 466.312 250.975 466.67 250.689 466.971C250.408 467.271 250.006 467.502 249.482 467.662C248.959 467.822 248.348 467.902 247.648 467.902C246.941 467.902 246.326 467.822 245.803 467.662C245.279 467.502 244.875 467.271 244.59 466.971C244.309 466.67 244.168 466.312 244.168 465.898C244.168 465.488 244.309 465.135 244.59 464.838C244.875 464.537 245.279 464.307 245.803 464.146C246.326 463.986 246.941 463.906 247.648 463.906ZM247.648 464.645C247.129 464.641 246.674 464.689 246.283 464.791C245.896 464.889 245.598 465.033 245.387 465.225C245.176 465.416 245.07 465.641 245.07 465.898C245.07 466.156 245.176 466.381 245.387 466.572C245.598 466.76 245.896 466.902 246.283 467C246.67 467.102 247.125 467.152 247.648 467.152C248.164 467.152 248.613 467.102 248.996 467C249.379 466.902 249.674 466.76 249.881 466.572C250.092 466.381 250.199 466.156 250.203 465.898C250.199 465.641 250.092 465.416 249.881 465.225C249.67 465.033 249.373 464.889 248.99 464.791C248.607 464.689 248.16 464.641 247.648 464.645ZM258.055 459.008C258.051 459.453 258.225 459.879 258.576 460.285C258.928 460.688 259.387 461.027 259.953 461.305C260.52 461.582 261.109 461.766 261.723 461.855L261.383 462.582C260.832 462.488 260.301 462.332 259.789 462.113C259.281 461.895 258.83 461.621 258.436 461.293C258.041 460.961 257.742 460.592 257.539 460.186C257.336 460.592 257.037 460.959 256.643 461.287C256.248 461.615 255.797 461.891 255.289 462.113C254.785 462.332 254.262 462.488 253.719 462.582L253.355 461.855C253.965 461.766 254.553 461.582 255.119 461.305C255.686 461.027 256.145 460.688 256.496 460.285C256.848 459.879 257.023 459.453 257.023 459.008V458.938H253.684V458.188H261.383V458.938H258.055V459.008ZM262.285 464.234H257.973V467.949H257.07V464.234H252.793V463.473H262.285V464.234ZM271.59 461.434H264.453V457.918H265.367V460.695H271.59V461.434ZM272.691 463.602H263.152V462.852H272.691V463.602ZM271.648 467.691H264.395V464.668H265.309V466.93H271.648V467.691ZM280.098 459.77C280.098 460.195 280.211 460.604 280.438 460.994C280.668 461.381 280.984 461.723 281.387 462.02C281.789 462.312 282.246 462.535 282.758 462.688L282.312 463.402C281.707 463.223 281.174 462.943 280.713 462.564C280.252 462.186 279.904 461.74 279.67 461.229C279.443 461.799 279.1 462.299 278.639 462.729C278.182 463.154 277.645 463.469 277.027 463.672L276.582 462.969C277.09 462.797 277.541 462.551 277.936 462.23C278.334 461.906 278.643 461.531 278.861 461.105C279.084 460.68 279.195 460.234 279.195 459.77V459.547H276.84V458.809H279.195V457.484H280.121V458.809H282.453V459.547H280.098V459.77ZM285.184 463.848H284.258V461.281H282.125V460.52H284.258V457.531H285.184V463.848ZM281.727 464.129C282.449 464.129 283.072 464.203 283.596 464.352C284.119 464.5 284.52 464.717 284.797 465.002C285.078 465.283 285.219 465.625 285.219 466.027C285.219 466.426 285.078 466.768 284.797 467.053C284.52 467.338 284.119 467.555 283.596 467.703C283.072 467.852 282.449 467.926 281.727 467.926C281.004 467.926 280.381 467.852 279.857 467.703C279.334 467.555 278.932 467.338 278.65 467.053C278.373 466.768 278.234 466.426 278.234 466.027C278.234 465.625 278.373 465.283 278.65 465.002C278.932 464.717 279.334 464.5 279.857 464.352C280.381 464.203 281.004 464.129 281.727 464.129ZM281.727 464.844C281.195 464.848 280.734 464.896 280.344 464.99C279.957 465.084 279.66 465.221 279.453 465.4C279.246 465.576 279.145 465.785 279.148 466.027C279.145 466.266 279.246 466.475 279.453 466.654C279.664 466.83 279.963 466.965 280.35 467.059C280.74 467.152 281.199 467.199 281.727 467.199C282.258 467.199 282.717 467.152 283.104 467.059C283.49 466.965 283.787 466.83 283.994 466.654C284.201 466.479 284.305 466.27 284.305 466.027C284.305 465.785 284.201 465.576 283.994 465.4C283.791 465.221 283.496 465.084 283.109 464.99C282.723 464.896 282.262 464.848 281.727 464.844ZM292.18 459.008C292.176 459.453 292.35 459.879 292.701 460.285C293.053 460.688 293.512 461.027 294.078 461.305C294.645 461.582 295.234 461.766 295.848 461.855L295.508 462.582C294.957 462.488 294.426 462.332 293.914 462.113C293.406 461.895 292.955 461.621 292.561 461.293C292.166 460.961 291.867 460.592 291.664 460.186C291.461 460.592 291.162 460.959 290.768 461.287C290.373 461.615 289.922 461.891 289.414 462.113C288.91 462.332 288.387 462.488 287.844 462.582L287.48 461.855C288.09 461.766 288.678 461.582 289.244 461.305C289.811 461.027 290.27 460.688 290.621 460.285C290.973 459.879 291.148 459.453 291.148 459.008V458.938H287.809V458.188H295.508V458.938H292.18V459.008ZM296.41 464.234H292.098V467.949H291.195V464.234H286.918V463.473H296.41V464.234ZM298.953 464.551C298.957 464.047 299.008 463.639 299.105 463.326C299.207 463.014 299.348 462.762 299.527 462.57C299.707 462.379 299.949 462.191 300.254 462.008C300.512 461.852 300.719 461.654 300.875 461.416C301.031 461.174 301.109 460.898 301.109 460.59C301.109 460.332 301.047 460.105 300.922 459.91C300.801 459.711 300.633 459.559 300.418 459.453C300.207 459.344 299.973 459.289 299.715 459.289C299.48 459.289 299.26 459.338 299.053 459.436C298.85 459.529 298.68 459.68 298.543 459.887C298.41 460.09 298.332 460.344 298.309 460.648H297.242C297.262 460.188 297.383 459.787 297.605 459.447C297.828 459.107 298.123 458.848 298.49 458.668C298.857 458.488 299.266 458.398 299.715 458.398C300.195 458.398 300.619 458.496 300.986 458.691C301.354 458.883 301.637 459.148 301.836 459.488C302.039 459.828 302.141 460.211 302.141 460.637C302.141 461.5 301.754 462.168 300.98 462.641C300.73 462.793 300.533 462.951 300.389 463.115C300.248 463.279 300.143 463.475 300.072 463.701C300.006 463.928 299.969 464.211 299.961 464.551V464.609H298.953V464.551ZM299.492 467.07C299.355 467.07 299.229 467.037 299.111 466.971C298.998 466.9 298.906 466.807 298.836 466.689C298.77 466.572 298.738 466.445 298.742 466.309C298.738 466.176 298.77 466.053 298.836 465.939C298.906 465.822 298.998 465.73 299.111 465.664C299.229 465.594 299.355 465.559 299.492 465.559C299.625 465.559 299.748 465.594 299.861 465.664C299.979 465.73 300.07 465.822 300.137 465.939C300.207 466.053 300.242 466.176 300.242 466.309C300.242 466.445 300.207 466.572 300.137 466.689C300.07 466.807 299.979 466.9 299.861 466.971C299.748 467.037 299.625 467.07 299.492 467.07ZM314.34 458.973C314.34 459.656 314.324 460.27 314.293 460.812C314.262 461.352 314.182 461.969 314.053 462.664H315.582V463.426H306.055V462.664H313.121C313.242 462.047 313.324 461.447 313.367 460.865L307.133 461.152L307.016 460.367L313.408 460.18C313.42 459.887 313.426 459.484 313.426 458.973V458.855H307.262V458.094H314.34V458.973ZM314.562 467.727H307.262V464.469H308.188V466.953H314.562V467.727ZM324.184 458.211C324.918 458.215 325.574 458.33 326.152 458.557C326.73 458.783 327.182 459.104 327.506 459.518C327.83 459.928 327.992 460.402 327.992 460.941C327.992 461.449 327.85 461.9 327.564 462.295C327.283 462.689 326.889 463.004 326.381 463.238C325.873 463.473 325.289 463.611 324.629 463.654V465.84H328.977V466.613H319.438V465.84H323.727V463.654C323.07 463.611 322.488 463.473 321.98 463.238C321.473 463 321.078 462.686 320.797 462.295C320.516 461.9 320.375 461.449 320.375 460.941C320.375 460.402 320.537 459.928 320.861 459.518C321.186 459.104 321.637 458.783 322.215 458.557C322.793 458.33 323.449 458.215 324.184 458.211ZM324.184 458.973C323.625 458.973 323.123 459.057 322.678 459.225C322.236 459.389 321.891 459.621 321.641 459.922C321.391 460.219 321.266 460.559 321.266 460.941C321.266 461.336 321.391 461.684 321.641 461.984C321.891 462.285 322.236 462.518 322.678 462.682C323.119 462.846 323.621 462.93 324.184 462.934C324.746 462.93 325.248 462.846 325.689 462.682C326.131 462.518 326.477 462.285 326.727 461.984C326.977 461.684 327.102 461.336 327.102 460.941C327.102 460.559 326.977 460.219 326.727 459.922C326.477 459.621 326.129 459.389 325.684 459.225C325.242 459.057 324.742 458.973 324.184 458.973ZM333.312 459.5C333.309 459.969 333.416 460.422 333.635 460.859C333.857 461.297 334.168 461.684 334.566 462.02C334.965 462.355 335.418 462.613 335.926 462.793L335.457 463.531C334.867 463.32 334.35 463.004 333.904 462.582C333.463 462.16 333.125 461.67 332.891 461.111C332.672 461.732 332.336 462.275 331.883 462.74C331.43 463.201 330.895 463.551 330.277 463.789L329.773 463.051C330.297 462.863 330.756 462.592 331.15 462.236C331.549 461.877 331.857 461.459 332.076 460.982C332.295 460.506 332.406 460 332.41 459.465V458.176H333.312V459.5ZM337.953 460.73H339.523V461.516H337.953V465.23H337.039V457.531H337.953V460.73ZM338.434 467.727H331.449V464.492H332.387V466.953H338.434V467.727ZM341.785 464.609H340.801L340.719 458.516H341.867L341.785 464.609ZM341.293 467.07C341.156 467.07 341.029 467.037 340.912 466.971C340.799 466.9 340.707 466.807 340.637 466.689C340.57 466.572 340.539 466.445 340.543 466.309C340.539 466.176 340.57 466.053 340.637 465.939C340.707 465.822 340.799 465.73 340.912 465.664C341.029 465.594 341.156 465.559 341.293 465.559C341.426 465.559 341.549 465.594 341.662 465.664C341.779 465.73 341.871 465.822 341.938 465.939C342.008 466.053 342.043 466.176 342.043 466.309C342.043 466.445 342.008 466.572 341.938 466.689C341.871 466.807 341.779 466.9 341.662 466.971C341.549 467.037 341.426 467.07 341.293 467.07Z" fill="#999999"/>
<path d="M246.334 490.137C245.682 490.137 245.094 490.016 244.57 489.774C244.046 489.533 243.632 489.2 243.326 488.776C243.025 488.348 242.866 487.863 242.848 487.32H244.584C244.602 487.585 244.689 487.822 244.844 488.031C245.003 488.241 245.213 488.405 245.473 488.523C245.737 488.642 246.024 488.701 246.334 488.701C246.699 488.701 247.024 488.619 247.312 488.455C247.603 488.291 247.829 488.065 247.988 487.778C248.152 487.487 248.234 487.161 248.234 486.801C248.234 486.427 248.15 486.094 247.981 485.803C247.813 485.507 247.58 485.276 247.284 485.112C246.988 484.944 246.653 484.859 246.279 484.859C245.495 484.846 244.949 485.128 244.639 485.707H242.984L243.586 480.102H249.438V481.592H245.049L244.748 484.217H244.844C245.04 483.993 245.309 483.813 245.65 483.677C245.992 483.535 246.361 483.465 246.758 483.465C247.364 483.465 247.911 483.606 248.398 483.889C248.886 484.171 249.267 484.563 249.54 485.064C249.818 485.561 249.957 486.122 249.957 486.746C249.957 487.398 249.802 487.981 249.492 488.496C249.187 489.011 248.758 489.414 248.207 489.706C247.66 489.993 247.036 490.137 246.334 490.137ZM253.895 484.928C253.434 484.928 253.04 484.823 252.712 484.613C252.388 484.399 252.142 484.101 251.974 483.718C251.805 483.33 251.721 482.882 251.721 482.371C251.721 481.87 251.805 481.428 251.974 481.045C252.147 480.658 252.397 480.359 252.726 480.149C253.054 479.935 253.443 479.828 253.895 479.828C254.364 479.828 254.763 479.935 255.091 480.149C255.419 480.359 255.665 480.655 255.829 481.038C255.998 481.421 256.082 481.865 256.082 482.371C256.082 482.882 255.995 483.33 255.822 483.718C255.654 484.101 255.405 484.399 255.077 484.613C254.749 484.823 254.355 484.928 253.895 484.928ZM253.895 483.834C254.195 483.834 254.423 483.704 254.578 483.444C254.733 483.185 254.811 482.827 254.811 482.371C254.811 481.92 254.735 481.564 254.585 481.305C254.435 481.045 254.204 480.917 253.895 480.922C253.598 480.922 253.37 481.054 253.211 481.318C253.056 481.578 252.979 481.929 252.979 482.371C252.979 482.822 253.056 483.18 253.211 483.444C253.37 483.704 253.598 483.834 253.895 483.834ZM260.361 490.26C259.901 490.264 259.507 490.162 259.179 489.952C258.855 489.738 258.609 489.439 258.44 489.057C258.272 488.669 258.188 488.223 258.188 487.717C258.188 487.211 258.272 486.767 258.44 486.384C258.614 485.996 258.864 485.696 259.192 485.481C259.521 485.267 259.91 485.16 260.361 485.16C260.826 485.16 261.223 485.267 261.551 485.481C261.879 485.691 262.127 485.99 262.296 486.377C262.465 486.76 262.549 487.206 262.549 487.717C262.549 488.227 262.462 488.674 262.289 489.057C262.12 489.439 261.872 489.738 261.544 489.952C261.216 490.162 260.822 490.264 260.361 490.26ZM260.361 489.166C260.667 489.166 260.895 489.038 261.045 488.783C261.2 488.523 261.277 488.168 261.277 487.717C261.277 487.257 261.202 486.896 261.052 486.637C260.901 486.377 260.671 486.249 260.361 486.254C260.07 486.254 259.844 486.388 259.685 486.657C259.525 486.922 259.445 487.275 259.445 487.717C259.445 488.163 259.523 488.517 259.678 488.776C259.837 489.036 260.065 489.166 260.361 489.166ZM259.801 480.102H261.182L254.373 490H252.992L259.801 480.102Z" fill="#FC6955"/>
<path d="M272.416 490.137C271.719 490.137 271.094 490.018 270.543 489.781C269.992 489.544 269.559 489.214 269.244 488.79C268.93 488.362 268.766 487.872 268.752 487.32H270.543C270.561 487.58 270.652 487.81 270.816 488.011C270.985 488.207 271.208 488.359 271.486 488.469C271.764 488.578 272.074 488.633 272.416 488.633C272.776 488.633 273.097 488.571 273.38 488.448C273.667 488.321 273.89 488.145 274.05 487.922C274.209 487.699 274.289 487.443 274.289 487.156C274.289 486.86 274.207 486.596 274.043 486.363C273.879 486.131 273.642 485.951 273.332 485.823C273.022 485.691 272.658 485.625 272.238 485.625H271.35V484.258H272.238C272.585 484.258 272.892 484.199 273.161 484.08C273.435 483.957 273.646 483.786 273.797 483.567C273.947 483.344 274.02 483.091 274.016 482.809C274.02 482.535 273.956 482.294 273.824 482.084C273.697 481.87 273.512 481.706 273.271 481.592C273.029 481.473 272.749 481.414 272.43 481.414C272.12 481.414 271.83 481.471 271.562 481.585C271.297 481.694 271.083 481.852 270.919 482.057C270.759 482.262 270.675 482.499 270.666 482.768H268.957C268.971 482.221 269.13 481.735 269.436 481.312C269.745 480.888 270.162 480.557 270.687 480.32C271.215 480.083 271.801 479.965 272.443 479.965C273.095 479.965 273.672 480.088 274.173 480.334C274.674 480.576 275.062 480.906 275.335 481.325C275.608 481.744 275.743 482.207 275.738 482.713C275.743 483.077 275.67 483.408 275.52 483.704C275.369 484 275.157 484.246 274.884 484.442C274.61 484.638 274.294 484.773 273.934 484.846V484.928C274.394 484.992 274.788 485.128 275.116 485.338C275.444 485.543 275.693 485.81 275.861 486.138C276.03 486.466 276.112 486.837 276.107 487.252C276.112 487.799 275.955 488.293 275.636 488.735C275.321 489.173 274.882 489.517 274.316 489.768C273.756 490.014 273.122 490.137 272.416 490.137ZM281.152 479.965C281.854 479.965 282.497 480.12 283.08 480.43C283.663 480.735 284.135 481.243 284.495 481.954C284.86 482.665 285.044 483.597 285.049 484.75C285.049 485.876 284.887 486.844 284.563 487.655C284.24 488.462 283.78 489.077 283.183 489.501C282.586 489.925 281.882 490.137 281.07 490.137C280.446 490.137 279.885 490.016 279.389 489.774C278.892 489.533 278.491 489.198 278.186 488.77C277.885 488.341 277.698 487.854 277.625 487.307H279.389C279.48 487.703 279.671 488.018 279.963 488.25C280.259 488.478 280.628 488.592 281.07 488.592C281.544 488.592 281.95 488.457 282.287 488.188C282.624 487.92 282.88 487.532 283.053 487.026C283.23 486.516 283.322 485.908 283.326 485.201H283.217C282.966 485.63 282.615 485.965 282.164 486.206C281.717 486.448 281.221 486.568 280.674 486.568C280.09 486.568 279.56 486.432 279.081 486.158C278.607 485.88 278.231 485.497 277.953 485.01C277.675 484.522 277.534 483.971 277.529 483.355C277.529 482.713 277.68 482.134 277.98 481.619C278.281 481.104 278.705 480.701 279.252 480.409C279.803 480.113 280.437 479.965 281.152 479.965ZM281.193 481.4C280.838 481.4 280.512 481.485 280.216 481.653C279.92 481.822 279.687 482.052 279.519 482.344C279.35 482.631 279.266 482.945 279.266 483.287C279.266 483.647 279.345 483.973 279.505 484.265C279.669 484.556 279.895 484.789 280.182 484.962C280.473 485.131 280.801 485.215 281.166 485.215C281.517 485.215 281.84 485.128 282.137 484.955C282.438 484.782 282.674 484.552 282.848 484.265C283.021 483.973 283.107 483.661 283.107 483.328C283.107 482.986 283.025 482.67 282.861 482.378C282.697 482.082 282.469 481.845 282.178 481.667C281.886 481.489 281.558 481.4 281.193 481.4ZM286.977 492.857H285.678L286.389 489.029H288.125L286.977 492.857ZM293.238 490.137C292.514 490.137 291.867 490.018 291.297 489.781C290.727 489.54 290.281 489.207 289.957 488.783C289.638 488.359 289.479 487.881 289.479 487.348C289.479 486.938 289.572 486.555 289.759 486.199C289.946 485.844 290.201 485.55 290.524 485.317C290.848 485.085 291.206 484.937 291.598 484.873V484.818C291.256 484.745 290.953 484.604 290.688 484.395C290.424 484.185 290.217 483.925 290.066 483.615C289.921 483.305 289.848 482.973 289.848 482.617C289.848 482.111 289.993 481.658 290.285 481.257C290.577 480.851 290.98 480.535 291.495 480.307C292.015 480.079 292.596 479.965 293.238 479.965C293.876 479.965 294.453 480.079 294.968 480.307C295.483 480.535 295.886 480.851 296.178 481.257C296.469 481.662 296.615 482.116 296.615 482.617C296.615 482.973 296.54 483.305 296.39 483.615C296.244 483.925 296.036 484.185 295.768 484.395C295.503 484.604 295.202 484.745 294.865 484.818V484.873C295.262 484.937 295.622 485.085 295.945 485.317C296.269 485.55 296.524 485.844 296.711 486.199C296.902 486.555 296.998 486.938 296.998 487.348C296.998 487.881 296.836 488.359 296.513 488.783C296.194 489.207 295.747 489.54 295.173 489.781C294.603 490.018 293.958 490.137 293.238 490.137ZM293.238 488.729C293.621 488.729 293.958 488.665 294.25 488.537C294.542 488.405 294.767 488.223 294.927 487.99C295.086 487.753 295.166 487.484 295.166 487.184C295.166 486.878 295.082 486.603 294.913 486.356C294.749 486.11 294.519 485.919 294.223 485.782C293.931 485.641 293.603 485.57 293.238 485.57C292.869 485.57 292.536 485.641 292.24 485.782C291.949 485.919 291.718 486.11 291.55 486.356C291.386 486.603 291.306 486.878 291.311 487.184C291.306 487.484 291.381 487.753 291.536 487.99C291.696 488.223 291.921 488.405 292.213 488.537C292.509 488.665 292.851 488.729 293.238 488.729ZM293.238 484.244C293.553 484.244 293.835 484.183 294.086 484.06C294.337 483.937 294.53 483.763 294.667 483.54C294.808 483.317 294.879 483.064 294.879 482.781C294.879 482.508 294.808 482.264 294.667 482.05C294.53 481.831 294.337 481.662 294.086 481.544C293.84 481.421 293.557 481.359 293.238 481.359C292.915 481.359 292.628 481.419 292.377 481.537C292.126 481.656 291.93 481.824 291.789 482.043C291.652 482.257 291.584 482.503 291.584 482.781C291.584 483.064 291.655 483.317 291.796 483.54C291.937 483.763 292.133 483.937 292.384 484.06C292.634 484.183 292.919 484.244 293.238 484.244ZM302.125 490.137C301.332 490.137 300.651 489.938 300.081 489.542C299.516 489.141 299.081 488.56 298.775 487.799C298.475 487.038 298.324 486.122 298.324 485.051C298.324 483.984 298.475 483.071 298.775 482.31C299.081 481.544 299.518 480.963 300.088 480.566C300.658 480.165 301.337 479.965 302.125 479.965C302.909 479.965 303.586 480.165 304.155 480.566C304.729 480.963 305.167 481.544 305.468 482.31C305.773 483.071 305.926 483.984 305.926 485.051C305.926 486.122 305.773 487.038 305.468 487.799C305.167 488.56 304.732 489.141 304.162 489.542C303.597 489.938 302.918 490.137 302.125 490.137ZM302.125 488.646C302.544 488.646 302.902 488.512 303.198 488.243C303.499 487.97 303.729 487.566 303.889 487.033C304.053 486.495 304.135 485.835 304.135 485.051C304.135 484.276 304.053 483.62 303.889 483.082C303.729 482.54 303.499 482.132 303.198 481.858C302.897 481.58 302.54 481.441 302.125 481.441C301.71 481.441 301.353 481.58 301.052 481.858C300.751 482.132 300.519 482.54 300.354 483.082C300.195 483.62 300.115 484.276 300.115 485.051C300.115 485.835 300.195 486.495 300.354 487.033C300.519 487.566 300.749 487.97 301.045 488.243C301.346 488.512 301.706 488.646 302.125 488.646ZM311.066 490.137C310.273 490.137 309.592 489.938 309.022 489.542C308.457 489.141 308.022 488.56 307.717 487.799C307.416 487.038 307.266 486.122 307.266 485.051C307.266 483.984 307.416 483.071 307.717 482.31C308.022 481.544 308.46 480.963 309.029 480.566C309.599 480.165 310.278 479.965 311.066 479.965C311.85 479.965 312.527 480.165 313.097 480.566C313.671 480.963 314.108 481.544 314.409 482.31C314.715 483.071 314.867 483.984 314.867 485.051C314.867 486.122 314.715 487.038 314.409 487.799C314.108 488.56 313.673 489.141 313.104 489.542C312.538 489.938 311.859 490.137 311.066 490.137ZM311.066 488.646C311.486 488.646 311.843 488.512 312.14 488.243C312.44 487.97 312.671 487.566 312.83 487.033C312.994 486.495 313.076 485.835 313.076 485.051C313.076 484.276 312.994 483.62 312.83 483.082C312.671 482.54 312.44 482.132 312.14 481.858C311.839 481.58 311.481 481.441 311.066 481.441C310.652 481.441 310.294 481.58 309.993 481.858C309.692 482.132 309.46 482.54 309.296 483.082C309.136 483.62 309.057 484.276 309.057 485.051C309.057 485.835 309.136 486.495 309.296 487.033C309.46 487.566 309.69 487.97 309.986 488.243C310.287 488.512 310.647 488.646 311.066 488.646ZM326.311 488.223H324.779V487.143H322.359V486.076H324.779V478.871H326.311V488.223ZM326.598 490.971H317.533V487.32H319.051V489.74H326.598V490.971ZM315.893 484.422C317.497 484.413 318.937 484.385 320.213 484.34C321.489 484.294 322.706 484.199 323.863 484.053L323.945 485.146C322.956 485.311 321.917 485.429 320.828 485.502V487.881H319.311V485.584C318.431 485.62 317.355 485.639 316.084 485.639L315.893 484.422ZM319.926 479.322C320.523 479.322 321.051 479.416 321.512 479.603C321.977 479.785 322.339 480.042 322.599 480.375C322.863 480.703 322.997 481.081 323.002 481.51C322.997 481.947 322.865 482.33 322.605 482.658C322.346 482.986 321.983 483.239 321.519 483.417C321.054 483.595 320.523 483.684 319.926 483.684C319.32 483.684 318.782 483.595 318.312 483.417C317.848 483.239 317.485 482.986 317.226 482.658C316.966 482.33 316.836 481.947 316.836 481.51C316.836 481.081 316.966 480.703 317.226 480.375C317.485 480.042 317.848 479.785 318.312 479.603C318.782 479.416 319.32 479.322 319.926 479.322ZM319.926 480.443C319.429 480.443 319.028 480.539 318.723 480.73C318.422 480.917 318.271 481.177 318.271 481.51C318.271 481.842 318.422 482.104 318.723 482.296C319.028 482.483 319.429 482.576 319.926 482.576C320.404 482.576 320.794 482.48 321.095 482.289C321.396 482.098 321.548 481.838 321.553 481.51C321.548 481.182 321.396 480.922 321.095 480.73C320.794 480.539 320.404 480.443 319.926 480.443Z" fill="#111111"/>
<rect x="67" y="514" width="168" height="197" rx="8" fill="url(#pattern1_1084_474568)"/>
<g filter="url(#filter1_d_1084_474568)">
<path d="M220.001 684.344C220.981 684.344 221.901 684.724 222.591 685.414C224.021 686.844 224.021 689.164 222.591 690.584L221.591 691.584L218.591 694.584L215.001 698.174L211.411 694.584L207.411 690.584C205.981 689.154 205.981 686.834 207.411 685.414C208.101 684.724 209.021 684.344 210.001 684.344C210.981 684.344 211.901 684.724 212.591 685.414L213.591 686.414L215.001 687.824L216.411 686.414L217.411 685.414C218.101 684.724 219.021 684.344 220.001 684.344ZM220.001 682.344C218.551 682.344 217.101 682.894 216.001 684.004L215.001 685.004L214.001 684.004C212.901 682.904 211.451 682.344 210.001 682.344C208.551 682.344 207.101 682.894 206.001 684.004C203.791 686.214 203.791 689.794 206.001 692.004L210.001 696.004L215.001 701.004L220.001 696.004L223.001 693.004L224.001 692.004C226.211 689.794 226.211 686.214 224.001 684.004C222.901 682.904 221.451 682.344 220.001 682.344Z" fill="white"/>
</g>
<rect x="67" y="233" width="168" height="197" rx="8" fill="url(#pattern2_1084_474568)"/>
<g filter="url(#filter2_d_1084_474568)">
<path d="M219.658 245C220.638 245 221.557 245.38 222.247 246.07C223.677 247.5 223.677 249.82 222.247 251.24L221.247 252.24L218.247 255.24L214.658 258.83L211.067 255.24L207.067 251.24C205.637 249.81 205.637 247.49 207.067 246.07C207.757 245.38 208.678 245 209.658 245C210.638 245 211.557 245.38 212.247 246.07L213.247 247.07L214.658 248.48L216.067 247.07L217.067 246.07C217.757 245.38 218.677 245 219.658 245ZM219.658 243C218.208 243 216.758 243.55 215.658 244.66L214.658 245.66L213.658 244.66C212.557 243.56 211.108 243 209.658 243C208.208 243 206.758 243.55 205.658 244.66C203.447 246.87 203.447 250.45 205.658 252.66L209.658 256.66L214.658 261.66L219.658 256.66L222.657 253.66L223.657 252.66C225.868 250.45 225.868 246.87 223.657 244.66C222.557 243.56 221.108 243 219.658 243Z" fill="white"/>
</g>
<path d="M75.707 442.555H77.1836V443.633H75.707V447.195H74.4062V439.449H75.707V442.555ZM76.1289 449.832H68.9219V446.387H70.2227V448.777H76.1289V449.832ZM70.3281 440.152C70.8594 440.152 71.3418 440.268 71.7754 440.498C72.209 440.725 72.5508 441.041 72.8008 441.447C73.0547 441.854 73.1836 442.312 73.1875 442.824C73.1836 443.328 73.0547 443.783 72.8008 444.189C72.5508 444.592 72.207 444.908 71.7695 445.139C71.3359 445.369 70.8555 445.484 70.3281 445.484C69.7969 445.484 69.3125 445.369 68.875 445.139C68.4375 444.908 68.0918 444.592 67.8379 444.189C67.5879 443.783 67.4648 443.328 67.4688 442.824C67.4648 442.316 67.5879 441.859 67.8379 441.453C68.0918 441.043 68.4375 440.725 68.875 440.498C69.3125 440.268 69.7969 440.152 70.3281 440.152ZM70.3281 441.289C70.0312 441.289 69.7617 441.354 69.5195 441.482C69.2773 441.607 69.0859 441.787 68.9453 442.021C68.8086 442.252 68.7422 442.52 68.7461 442.824C68.7422 443.121 68.8086 443.385 68.9453 443.615C69.0859 443.846 69.2773 444.023 69.5195 444.148C69.7617 444.273 70.0312 444.336 70.3281 444.336C70.625 444.336 70.8926 444.273 71.1309 444.148C71.373 444.023 71.5625 443.846 71.6992 443.615C71.8398 443.385 71.9102 443.121 71.9102 442.824C71.9102 442.52 71.8398 442.252 71.6992 442.021C71.5625 441.787 71.373 441.607 71.1309 441.482C70.8926 441.354 70.625 441.289 70.3281 441.289ZM87.3906 445.566H77.7227V444.523H81.918V443.516H78.9062V439.93H86.2188V440.949H80.207V442.484H86.2773V443.516H83.1953V444.523H87.3906V445.566ZM82.5391 446.176C83.3008 446.176 83.9551 446.252 84.502 446.404C85.0488 446.553 85.4688 446.771 85.7617 447.061C86.0547 447.35 86.2031 447.699 86.207 448.109C86.2031 448.516 86.0547 448.863 85.7617 449.152C85.4688 449.441 85.0469 449.662 84.4961 449.814C83.9492 449.967 83.2969 450.043 82.5391 450.043C81.7734 450.043 81.1133 449.967 80.5586 449.814C80.0039 449.662 79.5801 449.441 79.2871 449.152C78.9941 448.863 78.8477 448.516 78.8477 448.109C78.8477 447.699 78.9941 447.35 79.2871 447.061C79.5801 446.771 80.002 446.553 80.5527 446.404C81.1074 446.252 81.7695 446.176 82.5391 446.176ZM82.5391 447.172C81.7656 447.172 81.1758 447.252 80.7695 447.412C80.3672 447.572 80.168 447.805 80.1719 448.109C80.168 448.414 80.3672 448.645 80.7695 448.801C81.1719 448.957 81.7617 449.035 82.5391 449.035C83.3008 449.035 83.8848 448.957 84.291 448.801C84.6973 448.645 84.9023 448.414 84.9062 448.109C84.9023 447.805 84.6953 447.572 84.2852 447.412C83.8789 447.252 83.2969 447.172 82.5391 447.172ZM97.7734 448.73H88.0938V447.676H92.2422V445.227H93.5312V447.676H97.7734V448.73ZM93.5664 440.867C93.5664 441.398 93.7305 441.914 94.0586 442.414C94.3906 442.914 94.8477 443.344 95.4297 443.703C96.0156 444.059 96.6719 444.293 97.3984 444.406L96.8359 445.484C95.9414 445.316 95.1445 444.99 94.4453 444.506C93.75 444.018 93.2266 443.428 92.875 442.736C92.6406 443.193 92.3281 443.611 91.9375 443.99C91.5469 444.365 91.0957 444.682 90.584 444.939C90.0723 445.193 89.5234 445.375 88.9375 445.484L88.375 444.406C89.0938 444.293 89.7422 444.059 90.3203 443.703C90.9023 443.344 91.3574 442.914 91.6855 442.414C92.0137 441.91 92.1797 441.395 92.1836 440.867V440.094H93.5664V440.867ZM108.121 446.41H103.914V450.031H102.625V446.41H98.4648V445.355H108.121V446.41ZM107.23 441.078H104.049C104.076 441.465 104.242 441.838 104.547 442.197C104.852 442.553 105.27 442.857 105.801 443.111C106.332 443.365 106.938 443.535 107.617 443.621L107.148 444.641C106.25 444.516 105.463 444.258 104.787 443.867C104.115 443.477 103.617 442.992 103.293 442.414C102.969 442.988 102.471 443.473 101.799 443.867C101.127 444.258 100.348 444.516 99.4609 444.641L98.9688 443.621C99.6445 443.535 100.246 443.365 100.773 443.111C101.305 442.857 101.723 442.553 102.027 442.197C102.336 441.838 102.506 441.465 102.537 441.078H99.3555V440.047H107.23V441.078Z" fill="#444444"/>
<path d="M75.5664 460.707H77.1367V461.48H75.5664V465.219H74.6523V457.531H75.5664V460.707ZM76.0469 467.727H69.0508V464.422H69.9531V466.953H76.0469V467.727ZM70.3516 458.27C70.8672 458.27 71.332 458.379 71.7461 458.598C72.1641 458.816 72.4922 459.121 72.7305 459.512C72.9688 459.898 73.0898 460.34 73.0938 460.836C73.0898 461.332 72.9688 461.775 72.7305 462.166C72.4922 462.553 72.1641 462.855 71.7461 463.074C71.332 463.293 70.8672 463.402 70.3516 463.402C69.8359 463.402 69.3691 463.293 68.9512 463.074C68.5371 462.855 68.2109 462.553 67.9727 462.166C67.7344 461.775 67.6172 461.332 67.6211 460.836C67.6172 460.34 67.7344 459.898 67.9727 459.512C68.2109 459.121 68.5371 458.816 68.9512 458.598C69.3691 458.379 69.8359 458.27 70.3516 458.27ZM70.3516 459.078C70.0117 459.078 69.7012 459.154 69.4199 459.307C69.1387 459.455 68.918 459.664 68.7578 459.934C68.5977 460.199 68.5195 460.5 68.5234 460.836C68.5195 461.172 68.5977 461.475 68.7578 461.744C68.918 462.01 69.1387 462.219 69.4199 462.371C69.7012 462.52 70.0117 462.594 70.3516 462.594C70.6992 462.594 71.0117 462.52 71.2891 462.371C71.5703 462.219 71.791 462.01 71.9512 461.744C72.1113 461.479 72.1914 461.176 72.1914 460.836C72.1914 460.496 72.1113 460.193 71.9512 459.928C71.791 459.662 71.5703 459.455 71.2891 459.307C71.0117 459.154 70.6992 459.078 70.3516 459.078ZM87.2969 463.426H77.793V462.688H82.0938V461.469H79V458.023H86.1133V458.762H79.9023V460.719H86.1836V461.469H82.9844V462.688H87.2969V463.426ZM82.5391 464.188C83.2812 464.188 83.9199 464.262 84.4551 464.41C84.9941 464.555 85.4062 464.768 85.6914 465.049C85.9766 465.33 86.1211 465.668 86.125 466.062C86.1211 466.461 85.9766 466.801 85.6914 467.082C85.4062 467.363 84.9961 467.576 84.4609 467.721C83.9258 467.869 83.2852 467.945 82.5391 467.949C81.7891 467.945 81.1445 467.869 80.6055 467.721C80.0664 467.576 79.6543 467.363 79.3691 467.082C79.084 466.801 78.9414 466.461 78.9414 466.062C78.9414 465.668 79.084 465.33 79.3691 465.049C79.6543 464.768 80.0664 464.555 80.6055 464.41C81.1445 464.262 81.7891 464.188 82.5391 464.188ZM82.5391 464.914C81.9844 464.914 81.5059 464.961 81.1035 465.055C80.7051 465.145 80.4004 465.275 80.1895 465.447C79.9785 465.619 79.875 465.824 79.8789 466.062C79.875 466.305 79.9785 466.512 80.1895 466.684C80.4004 466.855 80.7051 466.986 81.1035 467.076C81.5059 467.166 81.9844 467.211 82.5391 467.211C83.0898 467.211 83.5645 467.166 83.9629 467.076C84.3613 466.986 84.666 466.855 84.877 466.684C85.0918 466.508 85.1992 466.301 85.1992 466.062C85.1992 465.824 85.0918 465.619 84.877 465.447C84.666 465.275 84.3594 465.145 83.957 465.055C83.5586 464.961 83.0859 464.914 82.5391 464.914ZM99.2383 461.773H100.926V462.547H99.2383V467.949H98.3242V457.531H99.2383V461.773ZM96.543 458.656C96.543 460.207 96.1543 461.613 95.377 462.875C94.5996 464.133 93.3945 465.164 91.7617 465.969L91.2461 465.242C92.5859 464.574 93.623 463.75 94.3574 462.77C95.0918 461.785 95.5117 460.672 95.6172 459.43H91.7266V458.656H96.543ZM111.074 463.625H106.832V465.758H105.918V463.625H101.535V462.863H111.074V463.625ZM109.832 461.668H102.777V458.047H109.832V461.668ZM103.68 460.93H108.918V458.773H103.68V460.93ZM110.008 467.727H102.754V464.727H103.68V466.953H110.008V467.727ZM115.328 458.293C115.871 458.293 116.354 458.396 116.775 458.604C117.201 458.811 117.533 459.1 117.771 459.471C118.01 459.842 118.129 460.266 118.129 460.742C118.129 461.219 118.01 461.643 117.771 462.014C117.533 462.385 117.201 462.674 116.775 462.881C116.354 463.088 115.871 463.191 115.328 463.191C114.785 463.191 114.299 463.088 113.869 462.881C113.443 462.674 113.109 462.385 112.867 462.014C112.629 461.643 112.512 461.219 112.516 460.742C112.512 460.266 112.629 459.842 112.867 459.471C113.109 459.1 113.443 458.811 113.869 458.604C114.299 458.396 114.785 458.293 115.328 458.293ZM115.328 459.102C114.961 459.102 114.631 459.172 114.338 459.312C114.049 459.449 113.822 459.643 113.658 459.893C113.494 460.139 113.414 460.422 113.418 460.742C113.414 461.062 113.494 461.348 113.658 461.598C113.822 461.844 114.049 462.037 114.338 462.178C114.631 462.314 114.961 462.383 115.328 462.383C115.691 462.383 116.018 462.314 116.307 462.178C116.596 462.037 116.82 461.844 116.98 461.598C117.145 461.348 117.227 461.062 117.227 460.742C117.227 460.422 117.145 460.139 116.98 459.893C116.82 459.643 116.596 459.449 116.307 459.312C116.018 459.172 115.691 459.102 115.328 459.102ZM120.461 467.973H119.547V457.531H120.461V467.973ZM111.977 464.891C113.328 464.891 114.557 464.869 115.662 464.826C116.771 464.783 117.836 464.688 118.855 464.539L118.926 465.219C117.879 465.414 116.811 465.539 115.721 465.594C114.635 465.648 113.43 465.676 112.105 465.676L111.977 464.891ZM129.367 462.289H126.543V464.609C127.242 464.605 127.879 464.584 128.453 464.545C129.027 464.506 129.633 464.43 130.27 464.316L130.34 465.078C129.668 465.199 129.039 465.279 128.453 465.318C127.867 465.354 127.164 465.375 126.344 465.383H125.652V461.527H128.488V459.453H125.629V458.691H129.367V462.289ZM134.207 467.949H133.328V457.531H134.207V467.949ZM132.074 467.398H131.207V462.043H129.871V461.293H131.207V457.789H132.074V467.398ZM139.375 460.332C139.371 460.949 139.496 461.562 139.75 462.172C140.004 462.777 140.348 463.316 140.781 463.789C141.215 464.262 141.688 464.613 142.199 464.844L141.637 465.57C141.043 465.277 140.504 464.842 140.02 464.264C139.539 463.682 139.176 463.021 138.93 462.283C138.688 463.068 138.324 463.771 137.84 464.393C137.355 465.01 136.809 465.473 136.199 465.781L135.613 465.008C136.125 464.77 136.598 464.408 137.031 463.924C137.465 463.436 137.811 462.877 138.068 462.248C138.326 461.615 138.457 460.977 138.461 460.332V458.434H139.375V460.332ZM144.262 467.973H143.336V457.531H144.262V467.973ZM154.656 467.949H153.73V457.531H154.656V467.949ZM152.254 459.43H151.07V464.445C151.703 464.402 152.277 464.348 152.793 464.281L152.852 464.973C151.844 465.129 150.799 465.232 149.717 465.283C148.635 465.334 147.441 465.363 146.137 465.371L146.031 464.586L147.473 464.58V459.43H146.301V458.668H152.254V459.43ZM148.375 464.562C148.902 464.551 149.5 464.529 150.168 464.498V459.43H148.375V464.562ZM167.641 459.688C167.641 460.285 167.633 460.807 167.617 461.252C167.605 461.697 167.572 462.217 167.518 462.811C167.463 463.404 167.375 464.051 167.254 464.75L166.316 464.656C166.445 463.996 166.541 463.375 166.604 462.793C166.666 462.207 166.703 461.691 166.715 461.246C166.73 460.797 166.738 460.277 166.738 459.688V459.406H160.457V458.645H167.641V459.688ZM168.918 466.414H159.426V465.652H168.918V466.414ZM177.965 462.957H173.254V458.328H177.965V462.957ZM174.156 462.207H177.051V459.09H174.156V462.207ZM180.953 460.391H182.523V461.164H180.953V464.469H180.039V457.531H180.953V460.391ZM178.246 464.27C178.242 464.75 178.402 465.193 178.727 465.6C179.051 466.002 179.482 466.34 180.021 466.613C180.561 466.883 181.145 467.07 181.773 467.176L181.398 467.902C180.598 467.758 179.873 467.486 179.225 467.088C178.576 466.693 178.102 466.207 177.801 465.629C177.496 466.207 177.018 466.693 176.365 467.088C175.713 467.486 174.984 467.758 174.18 467.902L173.816 467.176C174.441 467.07 175.021 466.883 175.557 466.613C176.096 466.34 176.525 466.002 176.846 465.6C177.17 465.193 177.332 464.75 177.332 464.27V463.953H178.246V464.27ZM194.406 459.688C194.406 460.285 194.398 460.807 194.383 461.252C194.371 461.697 194.338 462.217 194.283 462.811C194.229 463.404 194.141 464.051 194.02 464.75L193.082 464.656C193.211 463.996 193.307 463.375 193.369 462.793C193.432 462.207 193.469 461.691 193.48 461.246C193.496 460.797 193.504 460.277 193.504 459.688V459.406H187.223V458.645H194.406V459.688ZM195.684 466.414H186.191V465.652H195.684V466.414ZM205.469 467.949H204.59V462.488H203.055V467.41H202.211V457.766H203.055V461.727H204.59V457.531H205.469V467.949ZM200.852 459.57H197.863V464.586C198.633 464.582 199.285 464.561 199.82 464.521C200.359 464.479 200.902 464.402 201.449 464.293L201.531 465.066C200.938 465.188 200.352 465.27 199.773 465.312C199.199 465.352 198.48 465.371 197.617 465.371H196.949V458.809H200.852V459.57ZM216.473 466.66H206.934V465.887H211.223V463.918H208.129V460.707H214.363V459.066H208.105V458.305H215.266V461.457H209.043V463.156H215.512V463.918H212.125V465.887H216.473V466.66ZM218.91 464.609H217.926L217.844 458.516H218.992L218.91 464.609ZM218.418 467.07C218.281 467.07 218.154 467.037 218.037 466.971C217.924 466.9 217.832 466.807 217.762 466.689C217.695 466.572 217.664 466.445 217.668 466.309C217.664 466.176 217.695 466.053 217.762 465.939C217.832 465.822 217.924 465.73 218.037 465.664C218.154 465.594 218.281 465.559 218.418 465.559C218.551 465.559 218.674 465.594 218.787 465.664C218.904 465.73 218.996 465.822 219.062 465.939C219.133 466.053 219.168 466.176 219.168 466.309C219.168 466.445 219.133 466.572 219.062 466.689C218.996 466.807 218.904 466.9 218.787 466.971C218.674 467.037 218.551 467.07 218.418 467.07Z" fill="#999999"/>
<path d="M71.8398 490H70.0488V481.838H69.9941L67.6836 483.314V481.688L70.1309 480.102H71.8398V490ZM77.8965 490.137C77.1035 490.137 76.4222 489.938 75.8525 489.542C75.2874 489.141 74.8522 488.56 74.5469 487.799C74.2461 487.038 74.0957 486.122 74.0957 485.051C74.0957 483.984 74.2461 483.071 74.5469 482.31C74.8522 481.544 75.2897 480.963 75.8594 480.566C76.429 480.165 77.1081 479.965 77.8965 479.965C78.6803 479.965 79.3571 480.165 79.9268 480.566C80.501 480.963 80.9385 481.544 81.2393 482.31C81.5446 483.071 81.6973 483.984 81.6973 485.051C81.6973 486.122 81.5446 487.038 81.2393 487.799C80.9385 488.56 80.5033 489.141 79.9336 489.542C79.3685 489.938 78.6895 490.137 77.8965 490.137ZM77.8965 488.646C78.3158 488.646 78.6735 488.512 78.9697 488.243C79.2705 487.97 79.5007 487.566 79.6602 487.033C79.8242 486.495 79.9062 485.835 79.9062 485.051C79.9062 484.276 79.8242 483.62 79.6602 483.082C79.5007 482.54 79.2705 482.132 78.9697 481.858C78.6689 481.58 78.3112 481.441 77.8965 481.441C77.4818 481.441 77.124 481.58 76.8232 481.858C76.5225 482.132 76.29 482.54 76.126 483.082C75.9665 483.62 75.8867 484.276 75.8867 485.051C75.8867 485.835 75.9665 486.495 76.126 487.033C76.29 487.566 76.5202 487.97 76.8164 488.243C77.1172 488.512 77.4772 488.646 77.8965 488.646ZM85.6211 484.928C85.1608 484.928 84.7666 484.823 84.4385 484.613C84.1149 484.399 83.8688 484.101 83.7002 483.718C83.5316 483.33 83.4473 482.882 83.4473 482.371C83.4473 481.87 83.5316 481.428 83.7002 481.045C83.8734 480.658 84.124 480.359 84.4521 480.149C84.7803 479.935 85.1699 479.828 85.6211 479.828C86.0905 479.828 86.4893 479.935 86.8174 480.149C87.1455 480.359 87.3916 480.655 87.5557 481.038C87.7243 481.421 87.8086 481.865 87.8086 482.371C87.8086 482.882 87.722 483.33 87.5488 483.718C87.3802 484.101 87.1318 484.399 86.8037 484.613C86.4756 484.823 86.0814 484.928 85.6211 484.928ZM85.6211 483.834C85.9219 483.834 86.1497 483.704 86.3047 483.444C86.4596 483.185 86.5371 482.827 86.5371 482.371C86.5371 481.92 86.4619 481.564 86.3115 481.305C86.1611 481.045 85.931 480.917 85.6211 480.922C85.3249 480.922 85.097 481.054 84.9375 481.318C84.7826 481.578 84.7051 481.929 84.7051 482.371C84.7051 482.822 84.7826 483.18 84.9375 483.444C85.097 483.704 85.3249 483.834 85.6211 483.834ZM92.0879 490.26C91.6276 490.264 91.2334 490.162 90.9053 489.952C90.5817 489.738 90.3356 489.439 90.167 489.057C89.9984 488.669 89.9141 488.223 89.9141 487.717C89.9141 487.211 89.9984 486.767 90.167 486.384C90.3402 485.996 90.5908 485.696 90.9189 485.481C91.2471 485.267 91.6367 485.16 92.0879 485.16C92.5527 485.16 92.9492 485.267 93.2773 485.481C93.6055 485.691 93.8538 485.99 94.0225 486.377C94.1911 486.76 94.2754 487.206 94.2754 487.717C94.2754 488.227 94.1888 488.674 94.0156 489.057C93.847 489.439 93.5986 489.738 93.2705 489.952C92.9424 490.162 92.5482 490.264 92.0879 490.26ZM92.0879 489.166C92.3932 489.166 92.6211 489.038 92.7715 488.783C92.9264 488.523 93.0039 488.168 93.0039 487.717C93.0039 487.257 92.9287 486.896 92.7783 486.637C92.6279 486.377 92.3978 486.249 92.0879 486.254C91.7962 486.254 91.5706 486.388 91.4111 486.657C91.2516 486.922 91.1719 487.275 91.1719 487.717C91.1719 488.163 91.2493 488.517 91.4043 488.776C91.5638 489.036 91.7917 489.166 92.0879 489.166ZM91.5273 480.102H92.9082L86.0996 490H84.7188L91.5273 480.102Z" fill="#FC6955"/>
<path d="M100.643 486.732L104.922 480.102H107.137V486.691H108.436V488.154H107.137V490H105.441V488.154H100.643V486.732ZM105.469 486.691V482.125H105.359L102.461 486.623V486.691H105.469ZM113.508 490.137C112.715 490.137 112.034 489.938 111.464 489.542C110.899 489.141 110.464 488.56 110.158 487.799C109.857 487.038 109.707 486.122 109.707 485.051C109.707 483.984 109.857 483.071 110.158 482.31C110.464 481.544 110.901 480.963 111.471 480.566C112.04 480.165 112.719 479.965 113.508 479.965C114.292 479.965 114.968 480.165 115.538 480.566C116.112 480.963 116.55 481.544 116.851 482.31C117.156 483.071 117.309 483.984 117.309 485.051C117.309 486.122 117.156 487.038 116.851 487.799C116.55 488.56 116.115 489.141 115.545 489.542C114.98 489.938 114.301 490.137 113.508 490.137ZM113.508 488.646C113.927 488.646 114.285 488.512 114.581 488.243C114.882 487.97 115.112 487.566 115.271 487.033C115.436 486.495 115.518 485.835 115.518 485.051C115.518 484.276 115.436 483.62 115.271 483.082C115.112 482.54 114.882 482.132 114.581 481.858C114.28 481.58 113.923 481.441 113.508 481.441C113.093 481.441 112.735 481.58 112.435 481.858C112.134 482.132 111.901 482.54 111.737 483.082C111.578 483.62 111.498 484.276 111.498 485.051C111.498 485.835 111.578 486.495 111.737 487.033C111.901 487.566 112.132 487.97 112.428 488.243C112.729 488.512 113.089 488.646 113.508 488.646ZM119.25 492.857H117.951L118.662 489.029H120.398L119.25 492.857ZM125.539 490.137C124.746 490.137 124.065 489.938 123.495 489.542C122.93 489.141 122.495 488.56 122.189 487.799C121.889 487.038 121.738 486.122 121.738 485.051C121.738 483.984 121.889 483.071 122.189 482.31C122.495 481.544 122.932 480.963 123.502 480.566C124.072 480.165 124.751 479.965 125.539 479.965C126.323 479.965 127 480.165 127.569 480.566C128.144 480.963 128.581 481.544 128.882 482.31C129.187 483.071 129.34 483.984 129.34 485.051C129.34 486.122 129.187 487.038 128.882 487.799C128.581 488.56 128.146 489.141 127.576 489.542C127.011 489.938 126.332 490.137 125.539 490.137ZM125.539 488.646C125.958 488.646 126.316 488.512 126.612 488.243C126.913 487.97 127.143 487.566 127.303 487.033C127.467 486.495 127.549 485.835 127.549 485.051C127.549 484.276 127.467 483.62 127.303 483.082C127.143 482.54 126.913 482.132 126.612 481.858C126.312 481.58 125.954 481.441 125.539 481.441C125.124 481.441 124.767 481.58 124.466 481.858C124.165 482.132 123.933 482.54 123.769 483.082C123.609 483.62 123.529 484.276 123.529 485.051C123.529 485.835 123.609 486.495 123.769 487.033C123.933 487.566 124.163 487.97 124.459 488.243C124.76 488.512 125.12 488.646 125.539 488.646ZM134.48 490.137C133.688 490.137 133.006 489.938 132.437 489.542C131.871 489.141 131.436 488.56 131.131 487.799C130.83 487.038 130.68 486.122 130.68 485.051C130.68 483.984 130.83 483.071 131.131 482.31C131.436 481.544 131.874 480.963 132.443 480.566C133.013 480.165 133.692 479.965 134.48 479.965C135.264 479.965 135.941 480.165 136.511 480.566C137.085 480.963 137.522 481.544 137.823 482.31C138.129 483.071 138.281 483.984 138.281 485.051C138.281 486.122 138.129 487.038 137.823 487.799C137.522 488.56 137.087 489.141 136.518 489.542C135.952 489.938 135.273 490.137 134.48 490.137ZM134.48 488.646C134.9 488.646 135.257 488.512 135.554 488.243C135.854 487.97 136.085 487.566 136.244 487.033C136.408 486.495 136.49 485.835 136.49 485.051C136.49 484.276 136.408 483.62 136.244 483.082C136.085 482.54 135.854 482.132 135.554 481.858C135.253 481.58 134.895 481.441 134.48 481.441C134.066 481.441 133.708 481.58 133.407 481.858C133.106 482.132 132.874 482.54 132.71 483.082C132.55 483.62 132.471 484.276 132.471 485.051C132.471 485.835 132.55 486.495 132.71 487.033C132.874 487.566 133.104 487.97 133.4 488.243C133.701 488.512 134.061 488.646 134.48 488.646ZM143.422 490.137C142.629 490.137 141.948 489.938 141.378 489.542C140.813 489.141 140.378 488.56 140.072 487.799C139.771 487.038 139.621 486.122 139.621 485.051C139.621 483.984 139.771 483.071 140.072 482.31C140.378 481.544 140.815 480.963 141.385 480.566C141.954 480.165 142.633 479.965 143.422 479.965C144.206 479.965 144.882 480.165 145.452 480.566C146.026 480.963 146.464 481.544 146.765 482.31C147.07 483.071 147.223 483.984 147.223 485.051C147.223 486.122 147.07 487.038 146.765 487.799C146.464 488.56 146.029 489.141 145.459 489.542C144.894 489.938 144.215 490.137 143.422 490.137ZM143.422 488.646C143.841 488.646 144.199 488.512 144.495 488.243C144.796 487.97 145.026 487.566 145.186 487.033C145.35 486.495 145.432 485.835 145.432 485.051C145.432 484.276 145.35 483.62 145.186 483.082C145.026 482.54 144.796 482.132 144.495 481.858C144.194 481.58 143.837 481.441 143.422 481.441C143.007 481.441 142.649 481.58 142.349 481.858C142.048 482.132 141.815 482.54 141.651 483.082C141.492 483.62 141.412 484.276 141.412 485.051C141.412 485.835 141.492 486.495 141.651 487.033C141.815 487.566 142.046 487.97 142.342 488.243C142.643 488.512 143.003 488.646 143.422 488.646ZM158.666 488.223H157.135V487.143H154.715V486.076H157.135V478.871H158.666V488.223ZM158.953 490.971H149.889V487.32H151.406V489.74H158.953V490.971ZM148.248 484.422C149.852 484.413 151.292 484.385 152.568 484.34C153.844 484.294 155.061 484.199 156.219 484.053L156.301 485.146C155.312 485.311 154.273 485.429 153.184 485.502V487.881H151.666V485.584C150.786 485.62 149.711 485.639 148.439 485.639L148.248 484.422ZM152.281 479.322C152.878 479.322 153.407 479.416 153.867 479.603C154.332 479.785 154.694 480.042 154.954 480.375C155.218 480.703 155.353 481.081 155.357 481.51C155.353 481.947 155.221 482.33 154.961 482.658C154.701 482.986 154.339 483.239 153.874 483.417C153.409 483.595 152.878 483.684 152.281 483.684C151.675 483.684 151.137 483.595 150.668 483.417C150.203 483.239 149.841 482.986 149.581 482.658C149.321 482.33 149.191 481.947 149.191 481.51C149.191 481.081 149.321 480.703 149.581 480.375C149.841 480.042 150.203 479.785 150.668 479.603C151.137 479.416 151.675 479.322 152.281 479.322ZM152.281 480.443C151.785 480.443 151.383 480.539 151.078 480.73C150.777 480.917 150.627 481.177 150.627 481.51C150.627 481.842 150.777 482.104 151.078 482.296C151.383 482.483 151.785 482.576 152.281 482.576C152.76 482.576 153.149 482.48 153.45 482.289C153.751 482.098 153.904 481.838 153.908 481.51C153.904 481.182 153.751 480.922 153.45 480.73C153.149 480.539 152.76 480.443 152.281 480.443Z" fill="#111111"/>
<rect x="242" y="514" width="168" height="197" rx="8" fill="url(#pattern3_1084_474568)"/>
<g filter="url(#filter3_d_1084_474568)">
<path d="M395.001 684.344C395.981 684.344 396.901 684.724 397.591 685.414C399.021 686.844 399.021 689.164 397.591 690.584L396.591 691.584L393.591 694.584L390.001 698.174L386.411 694.584L382.411 690.584C380.981 689.154 380.981 686.834 382.411 685.414C383.101 684.724 384.021 684.344 385.001 684.344C385.981 684.344 386.901 684.724 387.591 685.414L388.591 686.414L390.001 687.824L391.411 686.414L392.411 685.414C393.101 684.724 394.021 684.344 395.001 684.344ZM395.001 682.344C393.551 682.344 392.101 682.894 391.001 684.004L390.001 685.004L389.001 684.004C387.901 682.904 386.451 682.344 385.001 682.344C383.551 682.344 382.101 682.894 381.001 684.004C378.791 686.214 378.791 689.794 381.001 692.004L385.001 696.004L390.001 701.004L395.001 696.004L398.001 693.004L399.001 692.004C401.211 689.794 401.211 686.214 399.001 684.004C397.901 682.904 396.451 682.344 395.001 682.344Z" fill="white"/>
</g>
<rect x="51" y="44" width="374" height="48" fill="white"/>
<g clip-path="url(#clip1_1084_474568)">
<path d="M366.55 71C367.3 71 367.96 70.59 368.3 69.97L371.88 63.48C372.25 62.82 371.77 62 371.01 62H356.21L355.27 60H352V62H354L357.6 69.59L356.25 72.03C355.52 73.37 356.48 75 358 75H370V73H358L359.1 71H366.55ZM357.16 64H369.31L366.55 69H359.53L357.16 64ZM358 76C356.9 76 356.01 76.9 356.01 78C356.01 79.1 356.9 80 358 80C359.1 80 360 79.1 360 78C360 76.9 359.1 76 358 76ZM368 76C366.9 76 366.01 76.9 366.01 78C366.01 79.1 366.9 80 368 80C369.1 80 370 79.1 370 78C370 76.9 369.1 76 368 76Z" fill="#111111"/>
</g>
<rect x="405" y="54" width="8" height="8" rx="4" fill="#FC6955"/>
<path d="M405 75V68C405 64.22 402.37 61.06 398.84 60.22C398.54 59.5 397.83 59 397 59C396.17 59 395.46 59.5 395.16 60.22C391.63 61.05 389 64.22 389 68V75C388.45 75 388 75.45 388 76C388 76.55 388.45 77 389 77H394C394 78.65 395.35 80 397 80C398.65 80 400 78.65 400 77H405C405.55 77 406 76.55 406 76C406 75.45 405.55 75 405 75ZM391 68C391 64.69 393.69 62 397 62C400.31 62 403 64.69 403 68V75H391V68ZM397 78C396.45 78 396 77.55 396 77H398C398 77.55 397.55 78 397 78Z" fill="#111111"/>
<rect x="367" y="50" width="16" height="16" rx="8" fill="#FC6955"/>
<path d="M376.069 62H374.985V56.0039H374.946L373.257 57.1074V56.082L375.015 54.9297H376.069V62Z" fill="white"/>
<rect width="21.1066" height="25.2349" transform="matrix(0.997859 0.0654031 -0.707107 0.707107 93.8438 63.7734)" fill="url(#pattern4_1084_474568)"/>
<rect x="76" y="53" width="9.79616" height="29.4527" fill="url(#pattern5_1084_474568)"/>
<path d="M329 63C332.31 63 335 65.69 335 69C335 72.31 332.31 75 329 75C325.69 75 323 72.31 323 69C323 65.69 325.69 63 329 63ZM329 61C324.58 61 321 64.58 321 69C321 73.42 324.58 77 329 77C333.42 77 337 73.42 337 69C337 64.58 333.42 61 329 61Z" fill="#111111"/>
<path d="M334.877 73.1072L333.109 74.875L338.109 79.8743L339.876 78.1065L334.877 73.1072Z" fill="#111111"/>
</g>
<g filter="url(#filter4_d_1084_474568)">
<rect x="31" y="155" width="415" height="50" rx="10" fill="white"/>
<rect x="43" y="164" width="52" height="32" rx="16" fill="#111111"/>
<path d="M63.877 177.999H66.841V178.883H63.877V177.999ZM66.23 174.775H67.309V183.381H66.23V174.775ZM59.808 185.37H67.634V186.254H59.808V185.37ZM59.808 182.627H60.887V185.825H59.808V182.627ZM60.64 176.231H61.524V177.18C61.524 179.312 60.198 181.158 58.235 181.886L57.676 181.028C59.431 180.404 60.64 178.844 60.64 177.18V176.231ZM60.848 176.231H61.719V177.167C61.719 178.688 62.863 180.17 64.566 180.768L64.02 181.613C62.109 180.924 60.848 179.156 60.848 177.167V176.231ZM58.014 175.724H64.293V176.595H58.014V175.724ZM70.961 175.308H78.527V176.192H70.961V175.308ZM69.609 179.52H80.256V180.404H69.609V179.52ZM74.38 180.118H75.446V182.887H74.38V180.118ZM77.825 175.308H78.878V176.179C78.878 177.154 78.878 178.337 78.488 179.949L77.435 179.819C77.825 178.246 77.825 177.128 77.825 176.179V175.308ZM70.714 182.536H78.956V186.514H77.877V183.42H70.714V182.536Z" fill="white"/>
<rect x="99.5" y="164.5" width="63" height="31" rx="15.5" fill="white"/>
<rect x="99.5" y="164.5" width="63" height="31" rx="15.5" stroke="#E6E6E7"/>
<path d="M119.266 176.92H122.412V177.804H119.266V176.92ZM119.162 179.364H122.334V180.248H119.162V179.364ZM122.23 174.762H123.309V181.808H122.23V174.762ZM118.551 175.646H119.708C119.708 178.675 117.615 180.794 114.235 181.808L113.793 180.937C116.796 180.066 118.551 178.337 118.551 176.114V175.646ZM114.404 175.646H119.292V176.53H114.404V175.646ZM119.487 181.938C121.866 181.938 123.374 182.783 123.374 184.2C123.374 185.617 121.866 186.462 119.487 186.462C117.108 186.462 115.6 185.617 115.6 184.2C115.6 182.783 117.108 181.938 119.487 181.938ZM119.487 182.783C117.771 182.783 116.666 183.316 116.666 184.2C116.666 185.084 117.771 185.604 119.487 185.604C121.216 185.604 122.321 185.084 122.321 184.2C122.321 183.316 121.216 182.783 119.487 182.783ZM134.163 174.762H135.242V186.514H134.163V174.762ZM130.718 176.023H131.784C131.784 179.429 130.25 182.406 126.324 184.33L125.752 183.459C129.145 181.821 130.718 179.325 130.718 176.205V176.023ZM126.285 176.023H131.186V176.907H126.285V176.023ZM138.907 180.248H146.98V181.132H138.907V180.248ZM137.568 184.135H148.215V185.045H137.568V184.135ZM142.326 180.625H143.405V184.499H142.326V180.625ZM138.907 175.698H146.863V176.582H139.986V180.638H138.907V175.698Z" fill="#111111"/>
<rect x="167.5" y="164.5" width="63" height="31" rx="15.5" fill="white"/>
<rect x="167.5" y="164.5" width="63" height="31" rx="15.5" stroke="#E6E6E7"/>
<path d="M189.684 174.762H190.763V181.795H189.684V174.762ZM190.464 177.791H192.505V178.701H190.464V177.791ZM186.434 175.62H187.591C187.591 178.636 185.498 180.833 182.105 181.834L181.65 180.963C184.64 180.079 186.434 178.311 186.434 176.114V175.62ZM182.17 175.62H187.045V176.517H182.17V175.62ZM187.084 181.938C189.411 181.938 190.893 182.796 190.893 184.213C190.893 185.63 189.411 186.488 187.084 186.488C184.744 186.488 183.249 185.63 183.249 184.213C183.249 182.796 184.744 181.938 187.084 181.938ZM187.084 182.796C185.394 182.796 184.315 183.329 184.315 184.213C184.315 185.097 185.394 185.63 187.084 185.63C188.774 185.63 189.853 185.097 189.853 184.213C189.853 183.329 188.774 182.796 187.084 182.796ZM196.937 180.677H198.016V183.29H196.937V180.677ZM202.15 174.762H203.229V183.706H202.15V174.762ZM195.208 185.37H203.515V186.254H195.208V185.37ZM195.208 182.835H196.287V185.617H195.208V182.835ZM193.687 181.08L193.544 180.196C195.715 180.196 198.627 180.17 201.123 179.845L201.201 180.638C198.666 181.041 195.819 181.08 193.687 181.08ZM199.758 181.704H202.423V182.497H199.758V181.704ZM197.366 175.243C199.082 175.243 200.252 176.049 200.252 177.284C200.252 178.532 199.082 179.338 197.366 179.338C195.637 179.338 194.467 178.532 194.467 177.284C194.467 176.049 195.637 175.243 197.366 175.243ZM197.366 176.049C196.261 176.049 195.494 176.53 195.494 177.284C195.494 178.038 196.261 178.519 197.366 178.519C198.458 178.519 199.225 178.038 199.225 177.284C199.225 176.53 198.458 176.049 197.366 176.049ZM206.907 180.248H214.98V181.132H206.907V180.248ZM205.568 184.135H216.215V185.045H205.568V184.135ZM210.326 180.625H211.405V184.499H210.326V180.625ZM206.907 175.698H214.863V176.582H207.986V180.638H206.907V175.698Z" fill="#111111"/>
<rect x="235.5" y="164.5" width="63" height="31" rx="15.5" fill="white"/>
<rect x="235.5" y="164.5" width="63" height="31" rx="15.5" stroke="#E6E6E7"/>
<path d="M254.421 181.132H255.474V182.9H254.421V181.132ZM249.637 180.56H260.258V181.431H249.637V180.56ZM254.421 174.723H255.487V176.309H254.421V174.723ZM254.369 176.439H255.318V176.634C255.318 178.558 253.16 179.676 250.586 179.936L250.261 179.104C252.536 178.909 254.369 177.973 254.369 176.634V176.439ZM254.59 176.439H255.539V176.634C255.539 177.973 257.372 178.909 259.647 179.104L259.322 179.936C256.748 179.676 254.59 178.558 254.59 176.634V176.439ZM250.729 175.906H259.179V176.764H250.729V175.906ZM254.941 182.601C257.476 182.601 258.971 183.29 258.971 184.551C258.971 185.812 257.476 186.488 254.941 186.488C252.406 186.488 250.911 185.812 250.911 184.551C250.911 183.29 252.406 182.601 254.941 182.601ZM254.941 183.42C253.082 183.42 252.003 183.81 252.003 184.551C252.003 185.266 253.082 185.669 254.941 185.669C256.8 185.669 257.879 185.266 257.879 184.551C257.879 183.81 256.8 183.42 254.941 183.42ZM264.534 176.764H265.418V177.271C265.418 179.312 264.118 181.028 262.155 181.691L261.635 180.846C263.364 180.287 264.534 178.857 264.534 177.271V176.764ZM264.729 176.764H265.613V177.271C265.613 178.727 266.822 180.04 268.551 180.547L268.057 181.392C266.081 180.781 264.729 179.195 264.729 177.271V176.764ZM261.934 176.179H268.2V177.05H261.934V176.179ZM264.534 174.71H265.613V176.491H264.534V174.71ZM267.849 178.103H270.501V179H267.849V178.103ZM270.189 174.762H271.268V181.873H270.189V174.762ZM267.407 182.185C269.838 182.185 271.32 182.978 271.32 184.343C271.32 185.695 269.838 186.488 267.407 186.488C264.963 186.488 263.481 185.695 263.481 184.343C263.481 182.978 264.963 182.185 267.407 182.185ZM267.407 183.03C265.626 183.03 264.56 183.511 264.56 184.343C264.56 185.162 265.626 185.643 267.407 185.643C269.175 185.643 270.254 185.162 270.254 184.343C270.254 183.511 269.175 183.03 267.407 183.03ZM274.907 180.248H282.98V181.132H274.907V180.248ZM273.568 184.135H284.215V185.045H273.568V184.135ZM278.326 180.625H279.405V184.499H278.326V180.625ZM274.907 175.698H282.863V176.582H275.986V180.638H274.907V175.698Z" fill="#111111"/>
<rect x="303.5" y="164.5" width="63" height="31" rx="15.5" fill="white"/>
<rect x="303.5" y="164.5" width="63" height="31" rx="15.5" stroke="#E6E6E7"/>
<path d="M323.266 176.92H326.412V177.804H323.266V176.92ZM323.162 179.364H326.334V180.248H323.162V179.364ZM326.23 174.762H327.309V181.808H326.23V174.762ZM322.551 175.646H323.708C323.708 178.675 321.615 180.794 318.235 181.808L317.793 180.937C320.796 180.066 322.551 178.337 322.551 176.114V175.646ZM318.404 175.646H323.292V176.53H318.404V175.646ZM323.487 181.938C325.866 181.938 327.374 182.783 327.374 184.2C327.374 185.617 325.866 186.462 323.487 186.462C321.108 186.462 319.6 185.617 319.6 184.2C319.6 182.783 321.108 181.938 323.487 181.938ZM323.487 182.783C321.771 182.783 320.666 183.316 320.666 184.2C320.666 185.084 321.771 185.604 323.487 185.604C325.216 185.604 326.321 185.084 326.321 184.2C326.321 183.316 325.216 182.783 323.487 182.783ZM332.456 175.373H333.353V176.569C333.353 178.831 332.079 180.703 330.116 181.47L329.544 180.599C331.312 179.949 332.456 178.363 332.456 176.569V175.373ZM332.651 175.373H333.535V176.647C333.535 178.233 334.705 179.702 336.395 180.287L335.823 181.132C333.938 180.43 332.651 178.688 332.651 176.647V175.373ZM337.643 174.762H338.722V181.886H337.643V174.762ZM338.423 177.791H340.464V178.701H338.423V177.791ZM334.978 182.211C337.383 182.211 338.839 183.004 338.839 184.356C338.839 185.708 337.383 186.488 334.978 186.488C332.573 186.488 331.117 185.708 331.117 184.356C331.117 183.004 332.573 182.211 334.978 182.211ZM334.978 183.069C333.236 183.069 332.17 183.537 332.17 184.356C332.17 185.175 333.236 185.643 334.978 185.643C336.72 185.643 337.786 185.175 337.786 184.356C337.786 183.537 336.72 183.069 334.978 183.069ZM342.907 180.248H350.98V181.132H342.907V180.248ZM341.568 184.135H352.215V185.045H341.568V184.135ZM346.326 180.625H347.405V184.499H346.326V180.625ZM342.907 175.698H350.863V176.582H343.986V180.638H342.907V175.698Z" fill="#111111"/>
<rect x="371.5" y="164.5" width="63" height="31" rx="15.5" fill="white"/>
<rect x="371.5" y="164.5" width="63" height="31" rx="15.5" stroke="#E6E6E7"/>
<path d="M391.877 177.999H394.841V178.883H391.877V177.999ZM394.23 174.775H395.309V183.381H394.23V174.775ZM387.808 185.37H395.634V186.254H387.808V185.37ZM387.808 182.627H388.887V185.825H387.808V182.627ZM388.64 176.231H389.524V177.18C389.524 179.312 388.198 181.158 386.235 181.886L385.676 181.028C387.431 180.404 388.64 178.844 388.64 177.18V176.231ZM388.848 176.231H389.719V177.167C389.719 178.688 390.863 180.17 392.566 180.768L392.02 181.613C390.109 180.924 388.848 179.156 388.848 177.167V176.231ZM386.014 175.724H392.293V176.595H386.014V175.724ZM405.565 174.749H406.644V186.527H405.565V174.749ZM406.384 179.429H408.568V180.339H406.384V179.429ZM398.077 182.796H399.013C401.223 182.796 402.757 182.718 404.538 182.38L404.655 183.277C402.822 183.602 401.262 183.693 399.013 183.693H398.077V182.796ZM398.051 175.854H403.368V180.066H399.143V183.16H398.077V179.182H402.302V176.738H398.051V175.854ZM410.907 180.248H418.98V181.132H410.907V180.248ZM409.568 184.135H420.215V185.045H409.568V184.135ZM414.326 180.625H415.405V184.499H414.326V180.625ZM410.907 175.698H418.863V176.582H411.986V180.638H410.907V175.698Z" fill="#111111"/>
</g>
<defs>
<pattern id="pattern0_1084_474568" patternContentUnits="objectBoundingBox" width="1" height="1">
<use xlink:href="#image0_1084_474568" href="#image0_1084_474568" transform="matrix(0.00114514 0 0 0.000976562 -0.0863095 0)"/>
</pattern>
<filter id="filter0_d_1084_474568" x="377.344" y="399.344" width="25.3125" height="22.6562" filterUnits="userSpaceOnUse" color-interpolation-filters="sRGB">
<feFlood flood-opacity="0" result="BackgroundImageFix"/>
<feColorMatrix in="SourceAlpha" type="matrix" values="0 0 0 0 0 0 0 0 0 0 0 0 0 0 0 0 0 0 127 0" result="hardAlpha"/>
<feOffset/>
<feGaussianBlur stdDeviation="1"/>
<feComposite in2="hardAlpha" operator="out"/>
<feColorMatrix type="matrix" values="0 0 0 0 0 0 0 0 0 0 0 0 0 0 0 0 0 0 0.5 0"/>
<feBlend mode="normal" in2="BackgroundImageFix" result="effect1_dropShadow_1084_474568"/>
<feBlend mode="normal" in="SourceGraphic" in2="effect1_dropShadow_1084_474568" result="shape"/>
</filter>
<pattern id="pattern1_1084_474568" patternContentUnits="objectBoundingBox" width="1" height="1">
<use xlink:href="#image1_1084_474568" transform="matrix(0.00114514 0 0 0.000976562 -0.0863095 0)"/>
</pattern>
<filter id="filter1_d_1084_474568" x="202.344" y="680.344" width="25.3125" height="22.6562" filterUnits="userSpaceOnUse" color-interpolation-filters="sRGB">
<feFlood flood-opacity="0" result="BackgroundImageFix"/>
<feColorMatrix in="SourceAlpha" type="matrix" values="0 0 0 0 0 0 0 0 0 0 0 0 0 0 0 0 0 0 127 0" result="hardAlpha"/>
<feOffset/>
<feGaussianBlur stdDeviation="1"/>
<feComposite in2="hardAlpha" operator="out"/>
<feColorMatrix type="matrix" values="0 0 0 0 0 0 0 0 0 0 0 0 0 0 0 0 0 0 0.5 0"/>
<feBlend mode="normal" in2="BackgroundImageFix" result="effect1_dropShadow_1084_474568"/>
<feBlend mode="normal" in="SourceGraphic" in2="effect1_dropShadow_1084_474568" result="shape"/>
</filter>
<pattern id="pattern2_1084_474568" patternContentUnits="objectBoundingBox" width="1" height="1">
<use xlink:href="#image2_1084_474568" transform="matrix(0.00114514 0 0 0.000976562 -0.0863095 0)"/>
</pattern>
<filter id="filter2_d_1084_474568" x="202" y="241" width="25.3125" height="22.6562" filterUnits="userSpaceOnUse" color-interpolation-filters="sRGB">
<feFlood flood-opacity="0" result="BackgroundImageFix"/>
<feColorMatrix in="SourceAlpha" type="matrix" values="0 0 0 0 0 0 0 0 0 0 0 0 0 0 0 0 0 0 127 0" result="hardAlpha"/>
<feOffset/>
<feGaussianBlur stdDeviation="1"/>
<feComposite in2="hardAlpha" operator="out"/>
<feColorMatrix type="matrix" values="0 0 0 0 0 0 0 0 0 0 0 0 0 0 0 0 0 0 0.5 0"/>
<feBlend mode="normal" in2="BackgroundImageFix" result="effect1_dropShadow_1084_474568"/>
<feBlend mode="normal" in="SourceGraphic" in2="effect1_dropShadow_1084_474568" result="shape"/>
</filter>
<pattern id="pattern3_1084_474568" patternContentUnits="objectBoundingBox" width="1" height="1">
<use xlink:href="#image3_1084_474568" transform="matrix(0.00114514 0 0 0.000976562 -0.0863095 0)"/>
</pattern>
<filter id="filter3_d_1084_474568" x="377.344" y="680.344" width="25.3125" height="22.6562" filterUnits="userSpaceOnUse" color-interpolation-filters="sRGB">
<feFlood flood-opacity="0" result="BackgroundImageFix"/>
<feColorMatrix in="SourceAlpha" type="matrix" values="0 0 0 0 0 0 0 0 0 0 0 0 0 0 0 0 0 0 127 0" result="hardAlpha"/>
<feOffset/>
<feGaussianBlur stdDeviation="1"/>
<feComposite in2="hardAlpha" operator="out"/>
<feColorMatrix type="matrix" values="0 0 0 0 0 0 0 0 0 0 0 0 0 0 0 0 0 0 0.5 0"/>
<feBlend mode="normal" in2="BackgroundImageFix" result="effect1_dropShadow_1084_474568"/>
<feBlend mode="normal" in="SourceGraphic" in2="effect1_dropShadow_1084_474568" result="shape"/>
</filter>
<pattern id="pattern4_1084_474568" patternContentUnits="objectBoundingBox" width="1" height="1">
<use xlink:href="#image4_1084_474568" transform="matrix(0.0016 0 0 0.0010352 -2.0288 -0.413043)"/>
</pattern>
<pattern id="pattern5_1084_474568" patternContentUnits="objectBoundingBox" width="1" height="1">
<use xlink:href="#image5_1084_474568" transform="matrix(0.00327869 0 0 0.00109051 -1.83607 -0.408942)"/>
</pattern>
<filter id="filter4_d_1084_474568" x="0.4" y="155" width="476.2" height="111.2" filterUnits="userSpaceOnUse" color-interpolation-filters="sRGB">
<feFlood flood-opacity="0" result="BackgroundImageFix"/>
<feColorMatrix in="SourceAlpha" type="matrix" values="0 0 0 0 0 0 0 0 0 0 0 0 0 0 0 0 0 0 127 0" result="hardAlpha"/>
<feOffset dy="30.6"/>
<feGaussianBlur stdDeviation="15.3"/>
<feComposite in2="hardAlpha" operator="out"/>
<feColorMatrix type="matrix" values="0 0 0 0 0 0 0 0 0 0 0 0 0 0 0 0 0 0 0.12 0"/>
<feBlend mode="normal" in2="BackgroundImageFix" result="effect1_dropShadow_1084_474568"/>
<feBlend mode="normal" in="SourceGraphic" in2="effect1_dropShadow_1084_474568" result="shape"/>
</filter>
<clipPath id="clip0_1084_474568">
<path d="M51 40C51 17.9086 68.9086 0 91 0H386C408.091 0 426 17.9086 426 40V717H51V40Z" fill="white"/>
</clipPath>
<clipPath id="clip1_1084_474568">
<rect width="24" height="24" fill="white" transform="translate(351 58)"/>
</clipPath>
<image id="image0_1084_474568" width="1024" height="1024" xlink:href="/svg-img/pot1.webp"/>
<image id="image1_1084_474568" width="1024" height="1024" xlink:href="/svg-img/pot2.webp"/>
<image id="image2_1084_474568" width="1024" height="1024" xlink:href="/svg-img/pot3.webp"/>
<image id="image3_1084_474568" width="1024" height="1024" xlink:href="/svg-img/pot4.webp"/>
<image id="image4_1084_474568" width="2268" height="1512" xlink:href="/svg-img/icons.webp"/>
<image id="image5_1084_474568" width="2268" height="1512" xlink:href="/svg-img/icons.webp"/>
</defs>
</svg>
