<svg width="549" height="717" viewBox="0 0 549 717" fill="none" xmlns="http://www.w3.org/2000/svg">
<path d="M87 40C87 17.9086 104.909 0 127 0H422C444.091 0 462 17.9086 462 40V717H87V40Z" fill="white"/>
<rect width="375" height="74" transform="translate(87 92)" fill="white"/>
<path d="M107.869 121.834C108.584 121.834 109.229 122.024 109.803 122.405C110.377 122.786 110.846 123.331 111.209 124.04C111.572 124.743 111.798 125.572 111.886 126.527H114.918V120.674H116.852V136.582H114.918V128.109H111.912C111.842 129.117 111.628 129.996 111.271 130.746C110.913 131.49 110.441 132.064 109.855 132.469C109.27 132.867 108.607 133.066 107.869 133.066C107.072 133.066 106.366 132.838 105.751 132.381C105.136 131.924 104.655 131.271 104.31 130.421C103.964 129.571 103.791 128.578 103.791 127.441C103.791 126.316 103.964 125.332 104.31 124.488C104.655 123.639 105.136 122.985 105.751 122.528C106.372 122.065 107.078 121.834 107.869 121.834ZM107.869 123.592C107.43 123.592 107.043 123.747 106.709 124.058C106.375 124.362 106.117 124.805 105.936 125.385C105.754 125.959 105.666 126.645 105.672 127.441C105.666 128.244 105.754 128.936 105.936 129.516C106.117 130.096 106.375 130.541 106.709 130.852C107.043 131.156 107.43 131.309 107.869 131.309C108.309 131.309 108.692 131.156 109.021 130.852C109.354 130.541 109.612 130.096 109.794 129.516C109.981 128.936 110.078 128.244 110.084 127.441C110.078 126.645 109.981 125.956 109.794 125.376C109.612 124.796 109.354 124.354 109.021 124.049C108.692 123.744 108.309 123.592 107.869 123.592ZM132.953 136.248H121.633V131.221H123.584V134.666H132.953V136.248ZM132.531 132.188H130.615V126.527H128.172V124.945H130.615V120.691H132.531V132.188ZM123.514 123.504H121.316V128.268C122.143 128.227 122.916 128.127 123.637 127.969L123.795 129.551C123.203 129.686 122.649 129.771 122.134 129.806C121.624 129.835 120.959 129.85 120.139 129.85H119.4V121.922H123.514V123.504ZM128.77 123.504H126.256V128.276C126.883 128.265 127.419 128.235 127.864 128.188C128.31 128.136 128.758 128.057 129.209 127.951L129.402 129.533C128.805 129.668 128.216 129.756 127.636 129.797C127.056 129.832 126.232 129.85 125.166 129.85H124.322V121.922H128.77V123.504ZM141.391 123.398H145.1V121.377H147.033V128.303H139.457V121.377H141.391V123.398ZM145.1 126.756V124.875H141.391V126.756H145.1ZM151.445 123.891H153.66V125.473H151.445V128.812H149.494V120.674H151.445V123.891ZM151.445 133.611H143.008V134.877H151.938V136.424H141.074V132.188H149.494V130.975H141.057V129.445H151.445V133.611ZM168.25 124.383H155.119V122.818H160.727V120.885H162.66V122.818H168.25V124.383ZM168.988 134.877H154.469V133.312H158.072V130.597C157.504 130.333 157.07 129.999 156.771 129.595C156.473 129.19 156.326 128.725 156.332 128.197C156.326 127.57 156.537 127.031 156.965 126.58C157.398 126.123 158.02 125.774 158.828 125.534C159.637 125.294 160.592 125.174 161.693 125.174C162.783 125.174 163.729 125.294 164.532 125.534C165.335 125.774 165.953 126.123 166.387 126.58C166.82 127.031 167.037 127.57 167.037 128.197C167.037 128.719 166.888 129.182 166.589 129.586C166.296 129.984 165.871 130.315 165.314 130.579V133.312H168.988V134.877ZM161.693 126.686C160.609 126.686 159.777 126.814 159.197 127.072C158.617 127.33 158.33 127.705 158.336 128.197C158.33 128.689 158.617 129.064 159.197 129.322C159.777 129.58 160.609 129.709 161.693 129.709C162.766 129.709 163.589 129.58 164.163 129.322C164.743 129.064 165.033 128.689 165.033 128.197C165.033 127.705 164.743 127.33 164.163 127.072C163.589 126.814 162.766 126.686 161.693 126.686ZM163.381 133.312V131.124C162.883 131.2 162.32 131.238 161.693 131.238C161.09 131.238 160.533 131.203 160.023 131.133V133.312H163.381ZM184.51 131.115H178.199V136.547H176.266V131.115H170.025V129.533H184.51V131.115ZM183.174 123.117H178.401C178.442 123.697 178.691 124.257 179.148 124.796C179.605 125.329 180.232 125.786 181.029 126.167C181.826 126.548 182.734 126.803 183.754 126.932L183.051 128.461C181.703 128.273 180.522 127.887 179.509 127.301C178.501 126.715 177.754 125.988 177.268 125.121C176.781 125.982 176.034 126.709 175.026 127.301C174.019 127.887 172.85 128.273 171.52 128.461L170.781 126.932C171.795 126.803 172.697 126.548 173.488 126.167C174.285 125.786 174.912 125.329 175.369 124.796C175.832 124.257 176.087 123.697 176.134 123.117H171.361V121.57H183.174V123.117ZM200.084 129.357H185.564V127.881H200.084V129.357ZM198.326 133.928H189.221V135.035H198.801V136.389H187.27V132.662H196.393V131.678H187.252V130.307H198.326V133.928ZM198.291 124.611H189.344V125.648H198.572V126.984H187.41V123.346H196.34V122.379H187.357V121.025H198.291V124.611ZM220.105 124.4H217.943V126.211H220.105V127.828H217.943V130.008H215.992V120.674H217.943V122.801H220.105V124.4ZM209.875 121.588C210.684 121.582 211.413 121.74 212.063 122.062C212.714 122.379 213.224 122.827 213.593 123.407C213.968 123.987 214.158 124.646 214.164 125.385C214.158 126.117 213.968 126.773 213.593 127.354C213.224 127.928 212.714 128.379 212.063 128.707C211.413 129.029 210.684 129.193 209.875 129.199C209.061 129.193 208.325 129.029 207.669 128.707C207.019 128.379 206.506 127.928 206.131 127.354C205.762 126.773 205.58 126.117 205.586 125.385C205.58 124.646 205.762 123.99 206.131 123.416C206.506 122.836 207.019 122.385 207.669 122.062C208.325 121.74 209.061 121.582 209.875 121.588ZM209.875 123.223C209.418 123.223 209.008 123.313 208.645 123.495C208.287 123.677 208.006 123.932 207.801 124.26C207.596 124.582 207.496 124.957 207.502 125.385C207.496 125.812 207.593 126.19 207.792 126.519C207.997 126.841 208.281 127.093 208.645 127.274C209.008 127.45 209.418 127.541 209.875 127.547C210.326 127.541 210.73 127.45 211.088 127.274C211.451 127.093 211.735 126.841 211.94 126.519C212.146 126.19 212.248 125.812 212.248 125.385C212.248 124.957 212.146 124.582 211.94 124.26C211.735 123.932 211.451 123.677 211.088 123.495C210.73 123.313 210.326 123.223 209.875 123.223ZM212.775 130.377C213.854 130.377 214.791 130.5 215.588 130.746C216.391 130.992 217.009 131.35 217.442 131.818C217.876 132.281 218.096 132.832 218.102 133.471C218.096 134.109 217.876 134.66 217.442 135.123C217.009 135.586 216.391 135.938 215.588 136.178C214.791 136.424 213.854 136.547 212.775 136.547C211.686 136.547 210.733 136.424 209.919 136.178C209.11 135.938 208.486 135.586 208.047 135.123C207.613 134.66 207.396 134.109 207.396 133.471C207.396 132.832 207.616 132.281 208.056 131.818C208.495 131.35 209.119 130.992 209.928 130.746C210.736 130.5 211.686 130.377 212.775 130.377ZM212.775 131.941C211.68 131.941 210.833 132.073 210.235 132.337C209.644 132.595 209.348 132.973 209.348 133.471C209.348 133.969 209.644 134.347 210.235 134.604C210.827 134.856 211.674 134.982 212.775 134.982C213.871 134.982 214.709 134.856 215.289 134.604C215.875 134.347 216.168 133.969 216.168 133.471C216.168 132.973 215.875 132.595 215.289 132.337C214.709 132.073 213.871 131.941 212.775 131.941ZM235.486 134.648H220.967V133.049H227.242V129.393H229.193V133.049H235.486V134.648ZM234.238 123.557H229.229C229.246 124.312 229.501 125.033 229.993 125.719C230.491 126.404 231.168 126.987 232.023 127.468C232.879 127.948 233.84 128.268 234.906 128.426L234.133 129.973C232.779 129.727 231.581 129.264 230.538 128.584C229.501 127.904 228.728 127.072 228.218 126.088C227.708 127.09 226.938 127.939 225.906 128.637C224.875 129.334 223.697 129.809 222.373 130.061L221.6 128.514C222.637 128.338 223.577 128.004 224.421 127.512C225.265 127.02 225.93 126.428 226.416 125.736C226.902 125.039 227.154 124.312 227.172 123.557H222.18V121.957H234.238V123.557ZM248.969 127.002H251.412V128.619H248.969V136.564H247.035V120.674H248.969V127.002ZM245.805 124.682H236.436V123.117H240.197V120.902H242.148V123.117H245.805V124.682ZM241.182 125.719C241.938 125.719 242.617 125.88 243.221 126.202C243.83 126.519 244.308 126.961 244.653 127.529C244.999 128.098 245.172 128.742 245.172 129.463C245.172 130.184 244.999 130.828 244.653 131.396C244.308 131.959 243.83 132.398 243.221 132.715C242.617 133.031 241.938 133.189 241.182 133.189C240.414 133.189 239.726 133.031 239.116 132.715C238.507 132.398 238.029 131.959 237.684 131.396C237.338 130.828 237.168 130.184 237.174 129.463C237.168 128.742 237.338 128.098 237.684 127.529C238.029 126.961 238.507 126.519 239.116 126.202C239.726 125.88 240.414 125.719 241.182 125.719ZM241.182 127.318C240.766 127.318 240.394 127.406 240.065 127.582C239.743 127.758 239.491 128.01 239.31 128.338C239.128 128.66 239.037 129.035 239.037 129.463C239.037 129.891 239.128 130.266 239.31 130.588C239.491 130.904 239.743 131.15 240.065 131.326C240.394 131.496 240.766 131.578 241.182 131.572C241.586 131.578 241.946 131.496 242.263 131.326C242.585 131.15 242.837 130.904 243.019 130.588C243.206 130.266 243.303 129.891 243.309 129.463C243.303 129.035 243.206 128.66 243.019 128.338C242.837 128.016 242.585 127.767 242.263 127.591C241.946 127.409 241.586 127.318 241.182 127.318ZM265.281 128.777H263.348V120.674H265.281V128.777ZM265.316 133.646H256.721V134.877H265.791V136.424H254.805V132.188H263.365V131.027H254.77V129.516H265.316V133.646ZM258.004 122.291C258.004 122.971 258.15 123.621 258.443 124.242C258.742 124.863 259.182 125.411 259.762 125.886C260.342 126.36 261.039 126.721 261.854 126.967L260.904 128.479C260.002 128.203 259.22 127.784 258.558 127.222C257.901 126.659 257.389 125.991 257.02 125.218C256.65 126.056 256.129 126.782 255.455 127.397C254.781 128.007 253.979 128.461 253.047 128.76L252.062 127.23C252.895 126.961 253.604 126.574 254.189 126.07C254.781 125.561 255.227 124.98 255.525 124.33C255.83 123.674 255.982 122.994 255.982 122.291V121.061H258.004V122.291ZM285.215 132.346H283.264V127.002H280.205V125.385H283.264V120.691H285.215V132.346ZM280.311 121.887C280.311 123.264 280.018 124.529 279.432 125.684C278.846 126.832 277.999 127.831 276.892 128.681C275.79 129.524 274.475 130.189 272.945 130.676L272.119 129.111C273.262 128.748 274.264 128.288 275.125 127.731C275.992 127.169 276.687 126.53 277.208 125.815C277.735 125.095 278.061 124.318 278.184 123.486H272.945V121.887H280.311ZM285.619 136.248H274.861V131.168H276.848V134.666H285.619V136.248ZM299.91 126.879H302.266V128.514H299.91V136.529H297.959V120.674H299.91V126.879ZM295.709 122.326C295.709 127.541 293.301 131.332 288.484 133.699L287.377 132.188C289.311 131.227 290.802 130.063 291.851 128.698C292.905 127.333 293.532 125.748 293.731 123.943H288.238V122.326H295.709ZM317.541 134.631H303.021V133.031H306.379V129.015C305.734 128.64 305.233 128.174 304.876 127.617C304.524 127.061 304.352 126.434 304.357 125.736C304.352 124.91 304.601 124.178 305.104 123.539C305.608 122.9 306.309 122.408 307.205 122.062C308.102 121.711 309.115 121.535 310.246 121.535C311.383 121.535 312.399 121.711 313.296 122.062C314.198 122.408 314.901 122.9 315.405 123.539C315.915 124.172 316.17 124.904 316.17 125.736C316.17 126.416 315.997 127.034 315.651 127.591C315.312 128.142 314.828 128.602 314.201 128.971V133.031H317.541V134.631ZM310.246 123.082C309.455 123.082 308.758 123.19 308.154 123.407C307.557 123.618 307.091 123.923 306.757 124.321C306.429 124.72 306.268 125.191 306.273 125.736C306.268 126.275 306.429 126.744 306.757 127.143C307.091 127.541 307.56 127.849 308.163 128.065C308.767 128.282 309.461 128.391 310.246 128.391C311.031 128.391 311.726 128.282 312.329 128.065C312.938 127.849 313.41 127.541 313.744 127.143C314.084 126.744 314.254 126.275 314.254 125.736C314.254 125.197 314.084 124.729 313.744 124.33C313.41 123.926 312.941 123.618 312.338 123.407C311.734 123.19 311.037 123.082 310.246 123.082ZM312.215 133.031V129.718C311.594 129.853 310.938 129.92 310.246 129.92C309.584 129.92 308.939 129.855 308.312 129.727V133.031H312.215ZM321.268 131.098C321.273 130.377 321.344 129.794 321.479 129.349C321.613 128.903 321.801 128.549 322.041 128.285C322.287 128.016 322.615 127.752 323.025 127.494C323.441 127.23 323.764 126.943 323.992 126.633C324.227 126.316 324.344 125.953 324.344 125.543C324.344 125.221 324.268 124.939 324.115 124.699C323.963 124.453 323.755 124.263 323.491 124.128C323.233 123.993 322.943 123.926 322.621 123.926C322.316 123.926 322.032 123.99 321.769 124.119C321.505 124.248 321.288 124.444 321.118 124.708C320.954 124.972 320.863 125.291 320.846 125.666H318.648C318.666 124.904 318.854 124.257 319.211 123.724C319.568 123.185 320.046 122.78 320.644 122.511C321.241 122.235 321.906 122.098 322.639 122.098C323.424 122.098 324.118 122.238 324.722 122.52C325.331 122.795 325.803 123.19 326.137 123.706C326.477 124.222 326.646 124.822 326.646 125.508C326.646 126.188 326.485 126.773 326.163 127.266C325.847 127.758 325.387 128.186 324.783 128.549C324.432 128.76 324.15 128.979 323.939 129.208C323.734 129.431 323.582 129.691 323.482 129.99C323.383 130.289 323.33 130.658 323.324 131.098V131.256H321.268V131.098ZM322.357 135.141C322.111 135.141 321.883 135.079 321.672 134.956C321.461 134.833 321.294 134.666 321.171 134.455C321.048 134.244 320.986 134.016 320.986 133.77C320.986 133.529 321.048 133.307 321.171 133.102C321.294 132.891 321.461 132.724 321.672 132.601C321.883 132.478 322.111 132.416 322.357 132.416C322.592 132.416 322.812 132.478 323.017 132.601C323.228 132.724 323.395 132.891 323.518 133.102C323.646 133.307 323.711 133.529 323.711 133.77C323.711 134.016 323.646 134.244 323.518 134.455C323.395 134.666 323.228 134.833 323.017 134.956C322.812 135.079 322.592 135.141 322.357 135.141Z" fill="#111111"/>
<rect x="103.5" y="166.5" width="342" height="57" rx="7.5" fill="white"/>
<rect x="103.5" y="166.5" width="342" height="57" rx="7.5" stroke="#FC6955"/>
<path d="M126.625 190.469H121.609V192.078H126.359V193.234H121.609V194.922C122.964 194.917 124.068 194.888 124.922 194.836C125.781 194.784 126.641 194.682 127.5 194.531L127.656 195.719C126.786 195.865 125.919 195.966 125.055 196.023C124.195 196.081 123.135 196.109 121.875 196.109H121.219H120.125V189.266H126.625V190.469ZM130.516 191.953H132.547V193.203H130.516V196.812H129.031V188.328H130.516V191.953ZM130.516 202.328H129.031V198.656H121.266V197.453H130.516V202.328ZM146.109 197.422H140.422V202.312H138.969V197.422H133.344V196.219H146.109V197.422ZM144.906 190.344H140.578C140.583 190.911 140.802 191.453 141.234 191.969C141.672 192.479 142.258 192.914 142.992 193.273C143.727 193.628 144.531 193.865 145.406 193.984L144.859 195.156C144.094 195.036 143.372 194.836 142.695 194.555C142.018 194.268 141.424 193.914 140.914 193.492C140.404 193.065 140.008 192.589 139.727 192.062C139.305 192.854 138.635 193.523 137.719 194.07C136.807 194.612 135.776 194.974 134.625 195.156L134.062 193.984C134.927 193.865 135.724 193.628 136.453 193.273C137.188 192.914 137.773 192.479 138.211 191.969C138.648 191.453 138.875 190.911 138.891 190.344H134.531V189.156H144.906V190.344Z" fill="#FC6955"/>
<rect x="103.5" y="232.5" width="342" height="57" rx="7.5" fill="white"/>
<rect x="103.5" y="232.5" width="342" height="57" rx="7.5" stroke="#E6E6E7"/>
<path d="M132.5 257.594H130.516V259.375H132.5V260.625H130.516V262.625H129.031V254.328H130.516V256.375H132.5V257.594ZM130.516 268.328H129.031V264.453H121.266V263.25H130.516V268.328ZM123.453 255.141C124.161 255.141 124.797 255.284 125.359 255.57C125.927 255.852 126.372 256.247 126.695 256.758C127.018 257.263 127.182 257.839 127.188 258.484C127.182 259.13 127.018 259.708 126.695 260.219C126.372 260.724 125.927 261.12 125.359 261.406C124.797 261.688 124.161 261.828 123.453 261.828C122.745 261.828 122.107 261.688 121.539 261.406C120.971 261.12 120.526 260.724 120.203 260.219C119.885 259.708 119.729 259.13 119.734 258.484C119.729 257.839 119.885 257.263 120.203 256.758C120.526 256.247 120.971 255.852 121.539 255.57C122.107 255.284 122.745 255.141 123.453 255.141ZM123.453 256.406C123.016 256.406 122.625 256.495 122.281 256.672C121.938 256.844 121.667 257.086 121.469 257.398C121.276 257.711 121.182 258.073 121.188 258.484C121.182 258.901 121.276 259.268 121.469 259.586C121.667 259.898 121.938 260.141 122.281 260.312C122.625 260.484 123.016 260.568 123.453 260.562C123.891 260.568 124.281 260.484 124.625 260.312C124.974 260.141 125.245 259.898 125.438 259.586C125.635 259.268 125.734 258.901 125.734 258.484C125.734 258.073 125.635 257.711 125.438 257.398C125.245 257.081 124.974 256.836 124.625 256.664C124.281 256.492 123.891 256.406 123.453 256.406ZM146.109 263.422H140.422V268.312H138.969V263.422H133.344V262.219H146.109V263.422ZM144.906 256.344H140.578C140.583 256.911 140.802 257.453 141.234 257.969C141.672 258.479 142.258 258.914 142.992 259.273C143.727 259.628 144.531 259.865 145.406 259.984L144.859 261.156C144.094 261.036 143.372 260.836 142.695 260.555C142.018 260.268 141.424 259.914 140.914 259.492C140.404 259.065 140.008 258.589 139.727 258.062C139.305 258.854 138.635 259.523 137.719 260.07C136.807 260.612 135.776 260.974 134.625 261.156L134.062 259.984C134.927 259.865 135.724 259.628 136.453 259.273C137.188 258.914 137.773 258.479 138.211 257.969C138.648 257.453 138.875 256.911 138.891 256.344H134.531V255.156H144.906V256.344Z" fill="#111111"/>
<rect x="103.5" y="298.5" width="342" height="57" rx="7.5" fill="white"/>
<rect x="103.5" y="298.5" width="342" height="57" rx="7.5" stroke="#E6E6E7"/>
<path d="M124.422 323.312C124.422 323.859 124.565 324.385 124.852 324.891C125.138 325.396 125.544 325.841 126.07 326.227C126.596 326.612 127.208 326.901 127.906 327.094L127.203 328.25C126.401 328.021 125.701 327.669 125.102 327.195C124.503 326.716 124.042 326.151 123.719 325.5C123.411 326.234 122.956 326.872 122.352 327.414C121.753 327.951 121.042 328.349 120.219 328.609L119.516 327.469C120.214 327.245 120.82 326.922 121.336 326.5C121.857 326.073 122.255 325.586 122.531 325.039C122.812 324.487 122.953 323.911 122.953 323.312V323.141H119.906V321.953H122.953V320.266H124.438V321.953H127.469V323.141H124.422V323.312ZM131.188 328.812H129.703V325.469H127.031V324.25H129.703V320.328H131.188V328.812ZM126.5 329.125C127.474 329.125 128.315 329.227 129.023 329.43C129.737 329.633 130.284 329.927 130.664 330.312C131.044 330.698 131.234 331.161 131.234 331.703C131.234 332.25 131.042 332.719 130.656 333.109C130.276 333.5 129.729 333.797 129.016 334C128.307 334.203 127.469 334.302 126.5 334.297C125.526 334.302 124.682 334.203 123.969 334C123.255 333.797 122.708 333.5 122.328 333.109C121.948 332.719 121.76 332.25 121.766 331.703C121.76 331.161 121.948 330.698 122.328 330.312C122.708 329.927 123.253 329.633 123.961 329.43C124.674 329.227 125.521 329.125 126.5 329.125ZM126.5 330.281C125.474 330.281 124.672 330.406 124.094 330.656C123.521 330.901 123.234 331.25 123.234 331.703C123.234 332.005 123.365 332.266 123.625 332.484C123.885 332.698 124.26 332.865 124.75 332.984C125.24 333.099 125.823 333.156 126.5 333.156C127.182 333.156 127.768 333.099 128.258 332.984C128.747 332.865 129.12 332.698 129.375 332.484C129.635 332.266 129.766 332.005 129.766 331.703C129.766 331.25 129.479 330.901 128.906 330.656C128.333 330.406 127.531 330.281 126.5 330.281ZM146.109 329.422H140.422V334.312H138.969V329.422H133.344V328.219H146.109V329.422ZM144.906 322.344H140.578C140.583 322.911 140.802 323.453 141.234 323.969C141.672 324.479 142.258 324.914 142.992 325.273C143.727 325.628 144.531 325.865 145.406 325.984L144.859 327.156C144.094 327.036 143.372 326.836 142.695 326.555C142.018 326.268 141.424 325.914 140.914 325.492C140.404 325.065 140.008 324.589 139.727 324.062C139.305 324.854 138.635 325.523 137.719 326.07C136.807 326.612 135.776 326.974 134.625 327.156L134.062 325.984C134.927 325.865 135.724 325.628 136.453 325.273C137.188 324.914 137.773 324.479 138.211 323.969C138.648 323.453 138.875 322.911 138.891 322.344H134.531V321.156H144.906V322.344Z" fill="#111111"/>
<rect x="103.5" y="364.5" width="342" height="57" rx="7.5" fill="white"/>
<rect x="103.5" y="364.5" width="342" height="57" rx="7.5" stroke="#E6E6E7"/>
<path d="M126.609 393.656H120.062V387.359H126.609V393.656ZM121.516 392.469H125.156V388.531H121.516V392.469ZM130.516 389.875H132.547V391.109H130.516V394.625H129.031V386.328H130.516V389.875ZM130.516 400.344H129.031V396.516H121.266V395.328H130.516V400.344ZM145.016 393.453H143.531V390.781H140.625V389.578H143.531V386.328H145.016V393.453ZM140.5 386.953C140.5 388.693 139.943 390.138 138.828 391.289C137.719 392.44 136.13 393.271 134.062 393.781L133.547 392.578C135.167 392.198 136.432 391.628 137.344 390.867C138.26 390.107 138.781 389.208 138.906 388.172H134.297V386.953H140.5ZM145.016 397.594H137.359V399H145.438V400.188H135.891V396.469H143.531V395.219H135.859V394.047H145.016V397.594ZM158.797 400.359H157.312V386.328H158.797V400.359ZM154.516 392.703H149.484V395.766C150.714 395.76 151.841 395.721 152.867 395.648C153.898 395.576 154.969 395.448 156.078 395.266L156.219 396.484C155.052 396.682 153.919 396.818 152.82 396.891C151.727 396.964 150.505 397 149.156 397H147.969V391.516H153V388.797H147.953V387.594H154.516V392.703Z" fill="#111111"/>
<rect x="103.5" y="430.5" width="342" height="57" rx="7.5" fill="white"/>
<rect x="103.5" y="430.5" width="342" height="57" rx="7.5" stroke="#E6E6E7"/>
<path d="M131.453 460.688H130.047V457.078H128.406V460.594H127.031V452.594H128.406V455.875H130.047V452.344H131.453V460.688ZM131.453 466.328H129.984V462.594H121.938V461.406H131.453V466.328ZM125.578 459.688H120.109V453.531H125.578V459.688ZM121.5 458.547H124.203V454.688H121.5V458.547ZM146.109 461.422H140.422V466.312H138.969V461.422H133.344V460.219H146.109V461.422ZM144.906 454.344H140.578C140.583 454.911 140.802 455.453 141.234 455.969C141.672 456.479 142.258 456.914 142.992 457.273C143.727 457.628 144.531 457.865 145.406 457.984L144.859 459.156C144.094 459.036 143.372 458.836 142.695 458.555C142.018 458.268 141.424 457.914 140.914 457.492C140.404 457.065 140.008 456.589 139.727 456.062C139.305 456.854 138.635 457.523 137.719 458.07C136.807 458.612 135.776 458.974 134.625 459.156L134.062 457.984C134.927 457.865 135.724 457.628 136.453 457.273C137.188 456.914 137.773 456.479 138.211 455.969C138.648 455.453 138.875 454.911 138.891 454.344H134.531V453.156H144.906V454.344Z" fill="#111111"/>
<rect x="103.5" y="496.5" width="342" height="57" rx="7.5" fill="white"/>
<rect x="103.5" y="496.5" width="342" height="57" rx="7.5" stroke="#E6E6E7"/>
<path d="M127.312 520.688C127.312 521.573 127.289 522.435 127.242 523.273C127.195 524.112 127.083 525.078 126.906 526.172L125.438 526.062C125.594 525.062 125.698 524.169 125.75 523.383C125.802 522.591 125.831 521.807 125.836 521.031H120.156V519.828H127.312V520.688ZM123.719 528.023C125.391 527.961 126.859 527.849 128.125 527.688L128.203 528.797C126.026 529.141 123.359 529.312 120.203 529.312H119.547L119.375 528.109C120.651 528.099 121.609 528.086 122.25 528.07V523.828H123.719V528.023ZM130.422 524.109H132.562V525.375H130.422V532.328H128.922V518.328H130.422V524.109ZM144.938 525.531H143.469V518.328H144.938V525.531ZM144.953 529.703H137.234V531H145.422V532.188H135.797V528.578H143.484V527.375H135.75V526.203H144.953V529.703ZM138.438 519.781C138.432 520.401 138.57 520.995 138.852 521.562C139.138 522.13 139.544 522.63 140.07 523.062C140.602 523.49 141.219 523.812 141.922 524.031L141.188 525.188C140.38 524.922 139.674 524.526 139.07 524C138.471 523.469 138.013 522.844 137.695 522.125C137.372 522.901 136.906 523.578 136.297 524.156C135.688 524.734 134.969 525.167 134.141 525.453L133.391 524.281C134.109 524.042 134.734 523.693 135.266 523.234C135.797 522.771 136.206 522.242 136.492 521.648C136.779 521.049 136.922 520.427 136.922 519.781V518.703H138.438V519.781ZM159.938 527.422H154.25V532.312H152.797V527.422H147.172V526.219H159.938V527.422ZM158.734 520.344H154.406C154.411 520.911 154.63 521.453 155.062 521.969C155.5 522.479 156.086 522.914 156.82 523.273C157.555 523.628 158.359 523.865 159.234 523.984L158.688 525.156C157.922 525.036 157.201 524.836 156.523 524.555C155.846 524.268 155.253 523.914 154.742 523.492C154.232 523.065 153.836 522.589 153.555 522.062C153.133 522.854 152.464 523.523 151.547 524.07C150.635 524.612 149.604 524.974 148.453 525.156L147.891 523.984C148.755 523.865 149.552 523.628 150.281 523.273C151.016 522.914 151.602 522.479 152.039 521.969C152.477 521.453 152.703 520.911 152.719 520.344H148.359V519.156H158.734V520.344Z" fill="#111111"/>
<path d="M87 44H462V92H87V44Z" fill="white"/>
<path d="M218.578 63.9395H216.469V65.832H218.578V67.1436H216.469V69.3184H214.892V60.5361H216.469V62.6445H218.578V63.9395ZM208.965 61.3994C209.718 61.3994 210.393 61.5488 210.991 61.8477C211.594 62.1465 212.067 62.5643 212.41 63.1011C212.753 63.6379 212.928 64.2493 212.933 64.9355C212.928 65.6162 212.753 66.2249 212.41 66.7617C212.067 67.293 211.594 67.7108 210.991 68.0151C210.393 68.314 209.718 68.4661 208.965 68.4717C208.213 68.4661 207.535 68.314 206.932 68.0151C206.328 67.7108 205.855 67.293 205.512 66.7617C205.175 66.2249 205.009 65.6162 205.014 64.9355C205.009 64.2493 205.175 63.6379 205.512 63.1011C205.855 62.5643 206.328 62.1465 206.932 61.8477C207.535 61.5488 208.213 61.3994 208.965 61.3994ZM208.965 62.7275C208.506 62.7275 208.091 62.8216 207.72 63.0098C207.355 63.1924 207.067 63.4525 206.857 63.79C206.652 64.1221 206.553 64.5039 206.558 64.9355C206.553 65.3672 206.652 65.7518 206.857 66.0894C207.062 66.4214 207.347 66.6787 207.712 66.8613C208.083 67.0439 208.5 67.138 208.965 67.1436C209.43 67.138 209.845 67.0439 210.21 66.8613C210.581 66.6787 210.869 66.4214 211.074 66.0894C211.284 65.7518 211.389 65.3672 211.389 64.9355C211.389 64.5039 211.284 64.1221 211.074 63.79C210.863 63.4525 210.573 63.1924 210.202 63.0098C209.837 62.8216 209.425 62.7275 208.965 62.7275ZM211.671 69.7168C212.679 69.7168 213.553 69.8302 214.294 70.0571C215.036 70.2785 215.606 70.6022 216.004 71.0283C216.403 71.4544 216.602 71.9635 216.602 72.5557C216.602 73.1423 216.403 73.6486 216.004 74.0747C215.606 74.5008 215.036 74.8245 214.294 75.0459C213.553 75.2728 212.679 75.3835 211.671 75.3779C210.653 75.3835 209.768 75.2728 209.015 75.0459C208.263 74.8245 207.684 74.5008 207.28 74.0747C206.876 73.6486 206.674 73.1423 206.674 72.5557C206.674 71.9635 206.876 71.4544 207.28 71.0283C207.684 70.6022 208.26 70.2785 209.007 70.0571C209.759 69.8302 210.648 69.7168 211.671 69.7168ZM211.671 70.9951C210.587 70.9951 209.743 71.1307 209.14 71.4019C208.542 71.673 208.246 72.0576 208.251 72.5557C208.246 73.0592 208.542 73.4466 209.14 73.7178C209.737 73.9834 210.581 74.1162 211.671 74.1162C212.75 74.1162 213.583 73.9834 214.17 73.7178C214.762 73.4466 215.058 73.0592 215.058 72.5557C215.058 72.0576 214.762 71.673 214.17 71.4019C213.578 71.1307 212.745 70.9951 211.671 70.9951ZM233.087 73.5518H219.474V72.2568H225.484V68.7373H227.061V72.2568H233.087V73.5518ZM227.078 63.2422C227.078 63.9782 227.327 64.6838 227.825 65.3589C228.328 66.0285 228.995 66.5985 229.825 67.0688C230.655 67.5337 231.543 67.8408 232.49 67.9902L231.859 69.2354C231.056 69.0804 230.287 68.8286 229.551 68.48C228.821 68.1258 228.171 67.6886 227.601 67.1685C227.031 66.6483 226.588 66.07 226.272 65.4336C225.957 66.0811 225.517 66.6704 224.953 67.2017C224.388 67.7274 223.743 68.1701 223.019 68.5298C222.299 68.8895 221.544 69.1468 220.752 69.3018L220.105 68.0566C221.029 67.9017 221.901 67.5863 222.72 67.1104C223.539 66.6289 224.194 66.0479 224.687 65.3672C225.185 64.6865 225.434 63.9782 225.434 63.2422V63.1094H220.603V61.8145H231.909V63.1094H227.078V63.2422ZM241.753 61.1006C241.753 61.6595 241.986 62.1825 242.451 62.6694C242.921 63.1564 243.557 63.5687 244.36 63.9062C245.162 64.2383 246.048 64.4596 247.016 64.5703L246.468 65.7656C245.229 65.6162 244.114 65.2925 243.123 64.7944C242.138 64.2964 241.41 63.6738 240.94 62.9268C240.464 63.6738 239.734 64.2964 238.749 64.7944C237.764 65.2925 236.657 65.6162 235.428 65.7656L234.88 64.5703C235.849 64.4596 236.734 64.2383 237.537 63.9062C238.339 63.5687 238.973 63.1564 239.438 62.6694C239.908 62.1825 240.143 61.6595 240.143 61.1006V60.6025H241.753V61.1006ZM247.73 67.8906H241.72V69.2188H246.02V72.7383H237.354V74.0498H246.435V75.2617H235.81V71.5928H244.459V70.4307H235.793V69.2188H240.143V67.8906H234.167V66.6289H247.73V67.8906ZM254.022 64.3213C254.016 65.1956 254.171 66.0589 254.487 66.9111C254.802 67.7578 255.242 68.5187 255.807 69.1938C256.377 69.8634 257.027 70.3753 257.757 70.7295L256.778 71.9912C255.981 71.5762 255.275 70.9757 254.661 70.1899C254.052 69.4041 253.582 68.5076 253.25 67.5005C252.912 68.5741 252.425 69.5314 251.789 70.3726C251.158 71.2082 250.425 71.8418 249.589 72.2734L248.61 70.9951C249.357 70.6354 250.021 70.1042 250.602 69.4014C251.189 68.6986 251.642 67.9017 251.963 67.0107C252.284 66.1198 252.445 65.2233 252.445 64.3213V61.7812H254.022V64.3213ZM260.447 66.4629H262.837V67.8076H260.447V75.4111H258.87V60.5361H260.447V66.4629ZM273.462 67.4258H269.694V70.4805C270.629 70.4749 271.484 70.4473 272.259 70.3975C273.039 70.3421 273.85 70.237 274.691 70.082L274.824 71.377C273.889 71.543 272.995 71.6536 272.143 71.709C271.296 71.7643 270.314 71.7975 269.196 71.8086H268.167V66.1641H271.952V63.4082H268.15V62.1299H273.462V67.4258ZM280.468 75.4111H278.958V60.5361H280.468V75.4111ZM277.414 74.6475H275.919V67.0771H274.16V65.7988H275.919V60.8682H277.414V74.6475ZM287.856 64.3213C287.85 65.2178 288.014 66.1004 288.346 66.9692C288.683 67.8325 289.151 68.6017 289.749 69.2769C290.352 69.952 291.032 70.4583 291.791 70.7959L290.844 72.041C289.998 71.637 289.248 71.0422 288.595 70.2563C287.942 69.465 287.438 68.5575 287.084 67.5337C286.735 68.6349 286.226 69.6089 285.557 70.4556C284.893 71.3022 284.121 71.9414 283.241 72.373L282.278 71.0449C283.047 70.7018 283.733 70.1816 284.336 69.4844C284.945 68.7871 285.418 67.9875 285.756 67.0854C286.093 66.1779 286.262 65.2565 286.262 64.3213V61.7812H287.856V64.3213ZM294.712 75.4443H293.135V60.5361H294.712V75.4443ZM309.455 75.4111H307.861V60.5361H309.455V75.4111ZM305.918 63.3584H304.375V70.2729C305.238 70.2065 305.996 70.1374 306.649 70.0654L306.732 71.2275C305.304 71.4544 303.827 71.6066 302.299 71.6841C300.772 71.756 299.084 71.7975 297.236 71.8086L297.053 70.4971L299.012 70.4805V63.3584H297.452V62.0635H305.918V63.3584ZM300.54 70.4473C301.386 70.4307 302.15 70.403 302.831 70.3643V63.3584H300.54V70.4473ZM328.696 75.4111H327.185V60.5361H328.696V75.4111ZM325.674 74.6641H324.18V67.0938H321.873V65.7988H324.18V60.8516H325.674V74.6641ZM320.412 64.6865C320.412 65.5498 320.528 66.3882 320.76 67.2017C320.998 68.0096 321.35 68.7428 321.814 69.4014C322.285 70.0599 322.858 70.5856 323.533 70.9785L322.586 72.1406C321.895 71.7256 321.303 71.1611 320.81 70.4473C320.318 69.7334 319.938 68.9172 319.673 67.9985C319.402 68.9946 319.012 69.8828 318.502 70.6631C317.993 71.4378 317.385 72.0465 316.676 72.4893L315.713 71.3105C316.394 70.8955 316.972 70.3394 317.448 69.6421C317.93 68.9448 318.292 68.1701 318.536 67.3179C318.779 66.4601 318.901 65.583 318.901 64.6865V63.4912H316.162V62.2129H322.968V63.4912H320.412V64.6865ZM335.818 63.209C335.818 63.8454 335.959 64.4569 336.241 65.0435C336.529 65.63 336.941 66.153 337.478 66.6123C338.02 67.0716 338.662 67.4258 339.404 67.6748L338.607 68.9033C337.777 68.6156 337.055 68.195 336.44 67.6416C335.832 67.0882 335.364 66.4435 335.038 65.7075C334.711 66.5155 334.23 67.221 333.593 67.8242C332.962 68.4274 332.215 68.8812 331.352 69.1855L330.505 67.957C331.269 67.6969 331.93 67.3234 332.489 66.8364C333.048 66.3494 333.477 65.7933 333.776 65.168C334.08 64.5371 334.235 63.8786 334.241 63.1924V62.7939H330.97V61.5156H339.022V62.7939H335.818V63.209ZM342.309 64.3545H344.467V65.6826H342.309V69.501H340.732V60.5361H342.309V64.3545ZM342.309 75.4111H340.732V71.5098H332.481V70.2314H342.309V75.4111Z" fill="#111111"/>
<path fill-rule="evenodd" clip-rule="evenodd" d="M115.708 67.6586L123.437 59.9294L121.828 58.3203L113.294 66.854C112.85 67.2984 112.85 68.0188 113.294 68.4632L121.828 76.9969L123.437 75.3877L115.708 67.6586Z" fill="#111111"/>
<g filter="url(#filter0_d_1144_17113)">
<rect x="35.5" y="145.5" width="478.057" height="80" rx="9.5" fill="white" stroke="#FC6955"/>
<path d="M74.6875 176.006H66.8506V178.521H74.2725V180.327H66.8506V182.964C68.9665 182.956 70.6917 182.911 72.0264 182.83C73.3691 182.748 74.7119 182.59 76.0547 182.354L76.2988 184.209C74.9398 184.437 73.5848 184.596 72.2339 184.685C70.8911 184.775 69.235 184.819 67.2656 184.819H66.2402H64.5312V174.126H74.6875V176.006ZM80.7666 178.325H83.9404V180.278H80.7666V185.918H78.4473V172.661H80.7666V178.325ZM80.7666 194.536H78.4473V188.799H66.3135V186.919H80.7666V194.536ZM105.132 186.87H96.2451V194.512H93.9746V186.87H85.1855V184.99H105.132V186.87ZM103.252 175.811H96.4893C96.4974 176.698 96.8392 177.544 97.5146 178.35C98.1982 179.147 99.1138 179.827 100.261 180.388C101.409 180.942 102.666 181.312 104.033 181.499L103.179 183.33C101.982 183.143 100.855 182.83 99.7974 182.39C98.7394 181.943 97.8117 181.389 97.0142 180.73C96.2166 180.063 95.5981 179.318 95.1587 178.496C94.4995 179.733 93.4538 180.779 92.0215 181.633C90.5973 182.48 88.986 183.045 87.1875 183.33L86.3086 181.499C87.6595 181.312 88.9046 180.942 90.0439 180.388C91.1914 179.827 92.1069 179.147 92.7905 178.35C93.4741 177.544 93.8281 176.698 93.8525 175.811H87.041V173.955H103.252V175.811Z" fill="#FC6955"/>
</g>
<defs>
<filter id="filter0_d_1144_17113" x="0.869999" y="145" width="547.315" height="149.26" filterUnits="userSpaceOnUse" color-interpolation-filters="sRGB">
<feFlood flood-opacity="0" result="BackgroundImageFix"/>
<feColorMatrix in="SourceAlpha" type="matrix" values="0 0 0 0 0 0 0 0 0 0 0 0 0 0 0 0 0 0 127 0" result="hardAlpha"/>
<feOffset dy="34.13"/>
<feGaussianBlur stdDeviation="17.065"/>
<feComposite in2="hardAlpha" operator="out"/>
<feColorMatrix type="matrix" values="0 0 0 0 0 0 0 0 0 0 0 0 0 0 0 0 0 0 0.12 0"/>
<feBlend mode="normal" in2="BackgroundImageFix" result="effect1_dropShadow_1144_17113"/>
<feBlend mode="normal" in="SourceGraphic" in2="effect1_dropShadow_1144_17113" result="shape"/>
</filter>
</defs>
</svg>
