<svg width="256" height="256" viewBox="0 0 256 256" fill="none" xmlns="http://www.w3.org/2000/svg">
<path d="M214 190.998C214 203.701 203.703 213.998 191 213.998H65C52.2975 213.998 42 203.701 42 190.998V64.998C42 52.2955 52.2975 41.998 65 41.998H97C104.18 41.998 110 47.8183 110 54.998V54.998C110 62.1777 104.18 67.998 97 67.998H78C72.4772 67.998 68 72.4752 68 77.998V176.998C68 182.521 72.4772 186.998 78 186.998H177C182.523 186.998 187 182.521 187 176.998V158.498C187 151.042 193.044 144.998 200.5 144.998V144.998C207.956 144.998 214 151.042 214 158.498V190.998Z" fill="white"/>
<path d="M130.318 143.773C125.045 149.045 116.498 149.045 111.226 143.773C105.954 138.5 105.954 129.953 111.226 124.681L170.906 65L151 65C143.82 65 138 59.1797 138 52C138 44.8203 143.82 39 151 39L203 39C210.18 39 216 44.8203 216 52V103.998C216 111.178 210.18 116.998 203 116.998C195.82 116.998 190 111.178 190 103.998V84.09L130.318 143.773Z" fill="white"/>
</svg>
